<?xml version="1.0" standalone="no"?>
<!DOCTYPE svg PUBLIC "-//W3C//DTD SVG 20010904//EN"
 "http://www.w3.org/TR/2001/REC-SVG-20010904/DTD/svg10.dtd">
<svg version="1.0" xmlns="http://www.w3.org/2000/svg"
 width="512.000000pt" height="512.000000pt" viewBox="0 0 512.000000 512.000000"
 preserveAspectRatio="xMidYMid meet">
<metadata>
Created by potrace 1.16, written by Peter Selinger 2001-2019
</metadata>
<g transform="translate(0.000000,512.000000) scale(0.100000,-0.100000)"
fill="#000000" stroke="none">
<path d="M1737 4044 c-343 -62 -658 -288 -830 -596 -85 -152 -147 -371 -147
-520 l0 -73 -87 -23 c-261 -67 -477 -248 -593 -495 -58 -124 -80 -226 -80
-377 0 -154 22 -256 84 -385 116 -242 329 -418 596 -492 61 -17 166 -18 1880
-18 1714 0 1819 1 1880 18 267 74 480 250 596 492 62 129 84 231 84 385 0 190
-51 361 -150 505 -126 183 -347 333 -555 376 l-60 12 -22 87 c-59 244 -239
465 -469 579 -245 122 -556 123 -799 5 -70 -34 -78 -36 -87 -21 -5 10 -36 53
-68 96 -168 223 -426 383 -707 440 -121 25 -343 27 -466 5z m427 -313 c236
-55 454 -220 571 -433 20 -37 60 -126 88 -197 l53 -130 121 113 c67 62 141
125 166 139 137 81 320 101 472 53 193 -61 349 -226 399 -420 9 -32 19 -111
22 -176 l7 -117 119 -6 c146 -8 190 -19 297 -69 149 -71 274 -222 316 -384 19
-75 19 -213 0 -288 -42 -161 -167 -313 -316 -384 -151 -72 -12 -67 -1924 -67
l-1730 0 -75 23 c-114 36 -188 80 -265 157 -78 77 -135 174 -160 271 -19 75
-19 213 0 288 41 155 165 311 305 380 106 52 166 65 328 73 121 5 142 9 142
22 0 9 -7 59 -15 111 -50 323 33 591 251 805 187 185 435 275 699 253 44 -3
102 -11 129 -17z"/>
</g>
</svg>
