<?xml version="1.0" encoding="UTF-8"?>
<svg version="1.1" xmlns="http://www.w3.org/2000/svg" width="512" height="512">
<path d="M0 0 C11.40737428 10.57920425 21.18077662 21.63956552 28.8125 35.25 C29.38726074 36.27335449 29.38726074 36.27335449 29.97363281 37.31738281 C31.51684791 40.11590992 32.93234764 42.8289634 34.109375 45.8046875 C35.83378007 50.00262443 37.12945722 51.59381474 41.33203125 53.5546875 C43.37707873 54.31639322 45.43442634 55.01972026 47.50561523 55.70703125 C71.92029494 63.85167815 91.49118622 84.48501642 103 107 C108.90092874 119.21377296 113.47575323 133.36958405 114 147 C114.07734375 148.7325 114.07734375 148.7325 114.15625 150.5 C114.96236756 177.3159522 105.60311495 202.19199932 89 223 C87.93428508 224.51858223 86.87138301 226.03914612 85.8125 227.5625 C82.56353129 231.90045822 78.36756616 234.21065204 73 235 C65.61901526 235.49206565 59.99747015 234.46458657 54.1875 229.6875 C48.38068514 222.55341317 48.08955219 215.91011282 49 207 C49.88730302 203.95710206 51.21012725 201.60194465 53 199 C53.45890625 198.32066406 53.9178125 197.64132812 54.390625 196.94140625 C54.88046875 196.21824219 55.3703125 195.49507812 55.875 194.75 C66.50070282 179.02610644 70.97301356 162.36131985 68.5625 143.59375 C65.32741471 126.93306076 55.89937758 112.27564919 41.859375 102.7734375 C33.36183189 97.50310339 25.14865841 94.13754263 15.40600586 91.99926758 C9.76014332 90.64198698 5.71922674 88.54798328 2 84 C0.03560981 80.57978353 -1.45247873 77.02437721 -2.9375 73.375 C-6.59965638 64.88238769 -10.35262394 57.37049277 -16 50 C-17.04414062 48.60974609 -17.04414062 48.60974609 -18.109375 47.19140625 C-35.28909337 25.22939039 -60.48863344 11.11759827 -88.109375 7.3828125 C-114.94351461 4.74250559 -143.07611262 11.18911273 -164.5 28.0625 C-166.01006834 29.36340347 -167.51059288 30.67549153 -169 32 C-169.7425 32.60070312 -170.485 33.20140625 -171.25 33.8203125 C-190.87749776 50.1084096 -202.38479473 75.95074474 -205 101 C-205.17408814 103.74865065 -205.30378173 106.49913377 -205.4375 109.25 C-205.84097437 117.24646889 -206.91534574 124.2355907 -213 130 C-218.24464591 133.46823359 -223.65873128 134.32168844 -229.8125 134.9375 C-243.42436967 136.36048707 -252.31165336 141.70716419 -261.58984375 151.71484375 C-268.95842034 160.87517148 -270.13466898 172.68876862 -269 184 C-267.25997712 193.62450156 -263.1418267 200.51464871 -257 208 C-251.74590632 214.42380067 -249.21403449 219.63802235 -249.45703125 228.015625 C-250.6165806 234.38897539 -254.06859776 240.11654126 -258.671875 244.64453125 C-263.34590431 247.79393672 -268.63116958 247.76353127 -274 247 C-285.12741986 244.42294417 -292.1079636 236.09858583 -298.2421875 226.92578125 C-311.35194747 205.1053141 -317.5097882 182.18871992 -311.9765625 156.85546875 C-306.11327698 133.70721753 -291.35556456 113.29107999 -270.78125 101.015625 C-264.21764953 97.35756741 -255.58778006 93 -248 93 C-247.86464844 91.94425781 -247.72929687 90.88851562 -247.58984375 89.80078125 C-243.71883734 62.23366305 -232.16191602 36.16588312 -214 15 C-213.30132812 14.17886719 -212.60265625 13.35773438 -211.8828125 12.51171875 C-185.75464915 -17.3822475 -148.67111863 -34.71636624 -109.26953125 -37.74609375 C-69.27320829 -40.08642422 -29.82874617 -26.84587156 0 0 Z " fill="#000000" transform="translate(356,101)"/>
<path d="M0 0 C7.18418307 3.27932604 16.74628794 3.07960966 24.2902832 0.95068359 C27.25132737 -0.28891364 30.10051484 -1.63896776 32.9543457 -3.10791016 C50.93941637 -12.06129076 69.73774328 -13.88965707 88.88793945 -7.82324219 C93.34705717 -6.27962039 97.70501451 -4.47602815 102.02075195 -2.57055664 C108.35925189 0.21339068 114.47466781 1.9937892 121.4543457 2.26708984 C128.67206407 2.86607062 133.54829814 5.02568464 138.3918457 10.45458984 C143.41366074 16.59844529 142.50341427 24.36985041 141.9543457 31.89208984 C140.52397122 37.60497105 137.48214458 40.7992153 132.63793945 43.98193359 C123.94088488 48.68358955 109.64599959 46.68792911 100.3918457 44.39208984 C95.33527807 42.87346888 90.62271642 40.90258457 85.80834961 38.74536133 C72.63656441 32.83264434 72.63656441 32.83264434 58.63647461 34.76220703 C54.23938111 36.59820721 49.94350854 38.62094382 45.65356445 40.69287109 C27.72546777 49.29507776 6.1740316 49.03005805 -12.4128418 42.75537109 C-16.66081954 41.17112528 -20.80824331 39.52546478 -24.84643555 37.45849609 C-32.01430365 33.79676318 -38.03019362 32.39868296 -46.0456543 33.89208984 C-50.9476283 35.55412784 -55.63371486 37.73380474 -60.35424805 39.84521484 C-70.2556694 44.24406601 -79.67512916 46.22555327 -90.4831543 46.39208984 C-91.31194092 46.41078125 -92.14072754 46.42947266 -92.99462891 46.44873047 C-99.59109634 46.37958093 -105.10170884 44.79853281 -109.88549805 40.07568359 C-110.42883789 39.21136719 -110.42883789 39.21136719 -110.9831543 38.32958984 C-111.36342773 37.75080078 -111.74370117 37.17201172 -112.13549805 36.57568359 C-115.39855439 30.53972959 -115.25208499 21.06978698 -113.36206055 14.52490234 C-110.28977438 8.78826843 -105.13476547 4.91602736 -99.0456543 2.89208984 C-96.69773967 2.57154607 -94.34207374 2.30531189 -91.9831543 2.07958984 C-84.66833345 1.2417493 -78.69245757 -1.04688234 -72.0456543 -4.10791016 C-46.09653259 -14.9200442 -24.86313066 -11.96293945 0 0 Z " fill="#000000" transform="translate(242.045654296875,402.10791015625)"/>
<path d="M0 0 C7.94934554 3.78829226 16.69545239 4.02353126 25.01953125 1.08203125 C29.10046669 -0.5655878 33.04890668 -2.45996821 37.01953125 -4.35546875 C53.28785517 -11.86246402 73.48622175 -13.41843358 90.58203125 -7.29296875 C93.94121415 -5.88575538 97.25317705 -4.37639135 100.56079102 -2.85253906 C107.98769307 0.49676053 115.61037014 1.9922759 123.65234375 3.1484375 C130.63533957 4.20444913 135.30137972 5.76243833 139.89453125 11.28515625 C143.89400562 17.6732056 143.49931349 25.47157217 142.58203125 32.70703125 C140.37605134 38.73731239 136.13260129 42.95389774 130.390625 45.7890625 C113.50053904 51.30946612 94.16220983 42.92750094 78.96875 36.078125 C71.02941608 32.86393099 64.3169393 33.17614075 56.4609375 36.39453125 C53.33828445 37.81815598 50.24231791 39.29263654 47.14453125 40.76953125 C27.85909896 49.82888023 7.01622152 49.38546382 -13.0234375 42.98828125 C-16.84317468 41.54653925 -20.44518485 39.81863826 -24.10546875 38.01953125 C-32.77604133 33.81558397 -39.42954361 32.47402378 -48.65625 35.6171875 C-53.13764273 37.3856579 -57.5336853 39.34666267 -61.9453125 41.28125 C-73.73091689 46.12010894 -88.3928441 49.19830474 -101.02734375 46.05859375 C-105.89994266 43.8489268 -109.45960725 40.11898214 -112.41796875 35.70703125 C-114.61337469 29.12081343 -114.742344 19.50964667 -111.85546875 13.08203125 C-108.90938918 8.37648749 -105.25792372 5.46057758 -99.87109375 4.03125 C-98.10550633 3.70456645 -96.33305819 3.41189057 -94.5546875 3.1640625 C-86.01066478 1.91916753 -78.76980489 -0.16279931 -70.91796875 -3.79296875 C-46.8727461 -14.90988853 -23.1524494 -11.56105633 0 0 Z " fill="#000000" transform="translate(241.41796875,316.29296875)"/>
</svg>
