<svg xmlns="http://www.w3.org/2000/svg" version="1.1" viewBox="25.31 -0.5 461.16 513.38">
<path d="M0 0 C1.56548584 0.00749268 1.56548584 0.00749268 3.16259766 0.01513672 C21.50829628 0.42495436 35.31268913 7.74173967 48.3125 20.5 C48.951875 21.11488281 49.59125 21.72976562 50.25 22.36328125 C61.24466887 33.82424188 65.82999575 49.50020053 65.63047791 65.0369873 C65.62865794 66.14526744 65.62683798 67.25354758 65.62496287 68.39541197 C65.61557345 72.08086823 65.58488688 75.76583421 65.55444336 79.45117188 C65.54380617 82.10487019 65.53444409 84.75854099 65.5269165 87.4122467 C65.50884956 93.11319493 65.4811514 98.81402816 65.44810295 104.51490784 C65.39699141 113.53332203 65.38074014 122.55165008 65.37049866 131.57019043 C65.36660734 134.66156781 65.36256773 137.752945 65.35853672 140.8443222 C65.35754842 141.61669473 65.35656012 142.38906725 65.35554187 143.184845 C65.34403166 151.95966607 65.32729763 160.7344726 65.30688477 169.50927734 C65.30503115 170.31062802 65.30317754 171.11197869 65.30126775 171.93761271 C65.27011028 184.93060841 65.20532578 197.92326558 65.13087838 210.91607541 C65.05538759 224.27894167 65.02592307 237.64139368 65.03641611 251.00446939 C65.04123763 259.23527863 65.00904452 267.46424596 64.92865831 275.69467175 C64.87679018 281.33610555 64.8689334 286.9765368 64.89519285 292.61814344 C64.90897235 295.86945907 64.89693484 299.11702415 64.84503365 302.3680439 C64.00728009 316.13393523 64.00728009 316.13393523 68.96357918 328.41523743 C71.77291296 331.25197296 74.94620527 333.36033848 78.3125 335.5 C95.85035618 352.76810162 105.25922817 378.61699991 105.60473633 402.83227539 C105.66944862 415.54317267 105.39773257 427.35180842 101.3125 439.5 C100.961875 440.6034375 100.61125 441.706875 100.25 442.84375 C90.7335445 470.07138657 70.749529 491.14848269 45 503.75 C21.34490803 514.16985033 -6.99820465 516.72075114 -31.6875 508.5 C-32.79222656 508.149375 -33.89695312 507.79875 -35.03515625 507.4375 C-62.26071819 497.91020736 -83.33392999 477.94122341 -95.9375 452.1875 C-106.30162561 428.68778344 -108.94145683 400.04466111 -100.6875 375.5 C-100.336875 374.3965625 -99.98625 373.293125 -99.625 372.15625 C-94.98132619 358.87018326 -86.08648716 339.3476014 -73.24089527 332.12421513 C-69.06695725 329.44039567 -66.28646789 326.98207002 -65.11263633 322.11781573 C-64.15575895 314.40243073 -64.42921196 306.61259681 -64.53979492 298.85522461 C-64.5409393 296.20983072 -64.53808823 293.56472561 -64.53015137 290.91937256 C-64.52075476 285.22893493 -64.54723508 279.53958593 -64.59782982 273.84937859 C-64.67063162 265.60514108 -64.68303966 257.3616451 -64.68012933 249.11712641 C-64.6765599 235.71662656 -64.71385532 222.31658379 -64.78051758 208.91625977 C-64.78648151 207.71450458 -64.78648151 207.71450458 -64.79256592 206.48847152 C-64.79654914 205.68635491 -64.80053237 204.8842383 -64.8046363 204.05781513 C-64.86093603 192.7040131 -64.90767218 181.35022671 -64.94262695 169.99633789 C-64.94509421 169.19827305 -64.94756146 168.40020821 -64.95010348 167.57795959 C-64.99052679 154.23442507 -65.01053828 140.89090369 -65.02027208 127.54731375 C-65.02756689 119.33251064 -65.05537215 111.11824224 -65.11045197 102.90361757 C-65.14741998 97.26520999 -65.16711278 91.62691419 -65.17370512 85.98838984 C-65.17823004 82.74360874 -65.19376152 79.49953627 -65.22632027 76.25489998 C-65.44343791 53.93210513 -62.81335093 36.64176135 -46.95703125 19.8125 C-45.83361328 18.6678125 -45.83361328 18.6678125 -44.6875 17.5 C-44.07261719 16.860625 -43.45773437 16.22125 -42.82421875 15.5625 C-31.37797262 4.58194696 -15.53859578 -0.09868185 0 0 Z M-11.6875 186.5 C-15.99628182 194.21480303 -15.12919277 203.58421868 -15.11987305 212.12719727 C-15.12890064 213.80338763 -15.13923029 215.47957141 -15.15075684 217.15574646 C-15.17823591 221.68401237 -15.18759895 226.2121527 -15.19361091 230.74049115 C-15.20301832 235.48109196 -15.22922359 240.22159983 -15.25361633 244.96214294 C-15.29722001 253.92914763 -15.32580461 262.89613422 -15.34893972 271.86321253 C-15.3760243 282.07609801 -15.41993378 292.28888972 -15.46522844 302.50170815 C-15.55798687 323.50108826 -15.62970786 344.50049645 -15.6875 365.5 C-16.42645508 365.88671875 -17.16541016 366.2734375 -17.92675781 366.671875 C-19.39387207 367.45304687 -19.39387207 367.45304687 -20.890625 368.25 C-21.85645508 368.76046875 -22.82228516 369.2709375 -23.81738281 369.796875 C-33.63492764 375.62259742 -40.08874859 385.56602293 -43.25463867 396.44970703 C-45.90468101 409.0019098 -43.60800251 421.28401148 -37.0625 432.125 C-30.03524137 441.95259477 -20.56413515 448.88921781 -8.6875 451.5 C5.80787936 452.37633116 17.72412004 451.08825033 29.3125 441.5 C37.74426282 433.63496222 43.84218553 424.27946394 44.55078125 412.55859375 C44.9163258 397.36873567 41.56561825 386.22724292 31.125 374.8125 C28.19756312 372.03106671 25.1354887 370.18332362 21.57421875 368.29296875 C20.58768311 367.76598389 19.60114746 367.23899902 18.5847168 366.69604492 C17.83488525 366.3013501 17.08505371 365.90665527 16.3125 365.5 C16.30918985 364.63031806 16.30587971 363.76063612 16.30246925 362.86460018 C16.22123205 341.69865711 16.12913714 320.53278554 16.02497292 299.36694241 C15.97486133 289.13128083 15.9284182 278.8956272 15.890625 268.65991211 C15.85767331 259.7379719 15.81782446 250.81609364 15.76970994 241.89422184 C15.7444766 237.17062309 15.72268594 232.44706526 15.70915604 227.72341728 C15.69630701 223.27553851 15.67422192 218.82780035 15.64511681 214.37999916 C15.63606325 212.74943438 15.63035599 211.11884697 15.62828636 209.48825836 C15.62494807 207.25722662 15.60942883 205.02658977 15.5909729 202.79563904 C15.58544214 201.54845313 15.57991138 200.30126722 15.57421303 199.0162878 C15.17961777 193.71463923 14.38951402 189.74270848 10.875 185.6875 C6.31161369 181.79192632 3.74448324 180.97888584 -2.11328125 181.1328125 C-6.38224922 181.74173965 -8.83488773 183.33237133 -11.6875 186.5 Z " fill="#000000" transform="translate(320.6875,-0.5)"/>
<path d="M0 0 C4.61152612 2.18440711 6.74277295 4.49099272 9 9 C9.38476086 11.91099262 9.38476086 11.91099262 9.39872742 15.18196106 C9.41126556 16.42571503 9.42380371 17.66946899 9.4367218 18.95091248 C9.43554786 20.32119777 9.43408875 21.69148285 9.43237305 23.06176758 C9.44139321 24.51077103 9.45172105 25.95976684 9.46325684 27.40875244 C9.49082338 31.33603725 9.50011085 35.26317725 9.50611091 39.19054627 C9.51549549 43.29722975 9.54169895 47.4038051 9.56611633 51.51042175 C9.60978271 59.28403861 9.63832881 67.05763449 9.66143972 74.83133668 C9.68849065 83.68261607 9.73240222 92.5337867 9.77772844 101.38498843 C9.87057669 119.58993487 9.9422566 137.79491007 10 156 C10.88042969 155.09636719 11.76085937 154.19273437 12.66796875 153.26171875 C13.84087506 152.07004593 15.01406728 150.87865447 16.1875 149.6875 C16.76564453 149.09259766 17.34378906 148.49769531 17.93945312 147.88476562 C25.34372174 140.39683296 25.34372174 140.39683296 30.90234375 139.56640625 C37.05071801 139.55849328 41.31314296 139.5534946 46 144 C48.5990635 147.66631179 49.47428036 150.32506095 49.5625 154.8125 C49.62630859 156.27623047 49.62630859 156.27623047 49.69140625 157.76953125 C47.94066242 165.94956033 40.0012917 172.29387019 34.27734375 177.98828125 C33.4542421 178.81329636 32.63114044 179.63831146 31.78309631 180.48832703 C30.0534103 182.21936646 28.3212264 183.94791323 26.58666992 185.67407227 C23.93499579 188.31499406 21.29421493 190.9664729 18.65429688 193.61914062 C16.96678707 195.30532949 15.27865733 196.9908982 13.58984375 198.67578125 C12.80326889 199.46640457 12.01669403 200.25702789 11.20628357 201.0716095 C10.4652388 201.80634995 9.72419403 202.54109039 8.96069336 203.2980957 C7.99189491 204.26450737 7.99189491 204.26450737 7.00352478 205.2504425 C2.91579251 208.82001285 -0.36809282 210.45546709 -5.8125 210.5625 C-7.27623047 210.62630859 -7.27623047 210.62630859 -8.76953125 210.69140625 C-16.94956033 208.94066242 -23.29387019 201.0012917 -28.98828125 195.27734375 C-29.81329636 194.4542421 -30.63831146 193.63114044 -31.48832703 192.78309631 C-33.21936646 191.0534103 -34.94791323 189.3212264 -36.67407227 187.58666992 C-39.31499406 184.93499579 -41.9664729 182.29421493 -44.61914062 179.65429688 C-46.30532949 177.96678707 -47.9908982 176.27865733 -49.67578125 174.58984375 C-50.46640457 173.80326889 -51.25702789 173.01669403 -52.0716095 172.20628357 C-52.80634995 171.4652388 -53.54109039 170.72419403 -54.2980957 169.96069336 C-54.94237015 169.31482773 -55.58664459 168.6689621 -56.2504425 168.00352478 C-60.86211146 162.72242196 -61.53693118 158.74145371 -61.3515625 151.8828125 C-60.87547989 147.9789351 -59.6969168 145.84269609 -57 143 C-51.54309057 139.13157448 -46.49569671 138.98955829 -40 140 C-34.67730269 142.40227932 -30.81987284 147.15116206 -26.7578125 151.2265625 C-25.86465332 152.12197754 -24.97149414 153.01739258 -24.05126953 153.93994141 C-23.37435059 154.61976074 -22.69743164 155.29958008 -22 156 C-21.99853344 155.24793211 -21.99706688 154.49586422 -21.99555588 153.72100639 C-21.95849704 135.41776134 -21.89949461 117.11470729 -21.81609726 98.81161308 C-21.77629542 89.96034315 -21.74390876 81.10916226 -21.72900391 72.2578125 C-21.7159933 64.54256474 -21.68904384 56.82751284 -21.64538693 49.11237538 C-21.62275869 45.0275861 -21.60709013 40.94303851 -21.60811615 36.858181 C-21.60886197 33.01178248 -21.59094319 29.16591849 -21.55883217 25.31965828 C-21.55032743 23.90960312 -21.5485872 22.49948805 -21.55419731 21.08941841 C-21.59984768 7.84992166 -21.59984768 7.84992166 -17 3 C-11.77740143 -1.05630398 -6.34659858 -0.77397544 0 0 Z " fill="#000000" transform="translate(147,180)"/>
<path d="M0 0 C0.97582031 -0.04253906 1.95164063 -0.08507813 2.95703125 -0.12890625 C11.13706033 1.62183758 17.48137019 9.5612083 23.17578125 15.28515625 C24.00079636 16.1082579 24.82581146 16.93135956 25.67582703 17.77940369 C27.40686646 19.5090897 29.13541323 21.2412736 30.86157227 22.97583008 C33.50249406 25.62750421 36.1539729 28.26828507 38.80664062 30.90820312 C40.49282949 32.59571293 42.1783982 34.28384267 43.86328125 35.97265625 C44.65390457 36.75923111 45.44452789 37.54580597 46.2591095 38.35621643 C46.99384995 39.0972612 47.72859039 39.83830597 48.4855957 40.60180664 C49.12987015 41.24767227 49.77414459 41.8935379 50.4379425 42.55897522 C55.04961146 47.84007804 55.72443118 51.82104629 55.5390625 58.6796875 C55.06297989 62.5835649 53.8844168 64.71980391 51.1875 67.5625 C45.73059057 71.43092552 40.68319671 71.57294171 34.1875 70.5625 C28.86480269 68.16022068 25.00737284 63.41133794 20.9453125 59.3359375 C20.05215332 58.44052246 19.15899414 57.54510742 18.23876953 56.62255859 C17.56185059 55.94273926 16.88493164 55.26291992 16.1875 54.5625 C16.18603344 55.31456789 16.18456688 56.06663578 16.18305588 56.84149361 C16.14599704 75.14473866 16.08699461 93.44779271 16.00359726 111.75088692 C15.96379542 120.60215685 15.93140876 129.45333774 15.91650391 138.3046875 C15.9034933 146.01993526 15.87654384 153.73498716 15.83288693 161.45012462 C15.81025869 165.5349139 15.79459013 169.61946149 15.79561615 173.704319 C15.79636197 177.55071752 15.77844319 181.39658151 15.74633217 185.24284172 C15.73782743 186.65289688 15.7360872 188.06301195 15.74169731 189.47308159 C15.78734768 202.71257834 15.78734768 202.71257834 11.1875 207.5625 C5.96490143 211.61880398 0.53409858 211.33647544 -5.8125 210.5625 C-10.42402612 208.37809289 -12.55527295 206.07150728 -14.8125 201.5625 C-15.19726086 198.65150738 -15.19726086 198.65150738 -15.21122742 195.38053894 C-15.22376556 194.13678497 -15.23630371 192.89303101 -15.2492218 191.61158752 C-15.24804786 190.24130223 -15.24658875 188.87101715 -15.24487305 187.50073242 C-15.25389321 186.05172897 -15.26422105 184.60273316 -15.27575684 183.15374756 C-15.30332338 179.22646275 -15.31261085 175.29932275 -15.31861091 171.37195373 C-15.32799549 167.26527025 -15.35419895 163.1586949 -15.37861633 159.05207825 C-15.42228271 151.27846139 -15.45082881 143.50486551 -15.47393972 135.73116332 C-15.50099065 126.87988393 -15.54490222 118.0287133 -15.59022844 109.17751157 C-15.68307669 90.97256513 -15.7547566 72.76758993 -15.8125 54.5625 C-16.69292969 55.46613281 -17.57335938 56.36976562 -18.48046875 57.30078125 C-19.65337506 58.49245407 -20.82656728 59.68384553 -22 60.875 C-22.57814453 61.46990234 -23.15628906 62.06480469 -23.75195312 62.67773438 C-31.15622174 70.16566704 -31.15622174 70.16566704 -36.71484375 70.99609375 C-42.86321801 71.00400672 -47.12564296 71.0090054 -51.8125 66.5625 C-54.4115635 62.89618821 -55.28678036 60.23743905 -55.375 55.75 C-55.41753906 54.77417969 -55.46007812 53.79835937 -55.50390625 52.79296875 C-53.75316242 44.61293967 -45.8137917 38.26862981 -40.08984375 32.57421875 C-39.2667421 31.74920364 -38.44364044 30.92418854 -37.59559631 30.07417297 C-35.8659103 28.34313354 -34.1337264 26.61458677 -32.39916992 24.88842773 C-29.74749579 22.24750594 -27.10671493 19.5960271 -24.46679688 16.94335938 C-22.77928707 15.25717051 -21.09115733 13.5716018 -19.40234375 11.88671875 C-18.61576889 11.09609543 -17.82919403 10.30547211 -17.01878357 9.4908905 C-16.2777388 8.75615005 -15.53669403 8.02140961 -14.77319336 7.2644043 C-14.12732773 6.62012985 -13.4814621 5.97585541 -12.81602478 5.3120575 C-8.72829251 1.74248715 -5.44440718 0.10703291 0 0 Z " fill="#000000" transform="translate(80.8125,59.4375)"/>
<path d="M0 0 C0.91092911 -0.00524185 1.82185822 -0.0104837 2.76039124 -0.0158844 C4.68261701 -0.02229391 6.60488207 -0.02098148 8.52709961 -0.01245117 C11.45953608 -0.00394431 14.39002157 -0.03271196 17.32226562 -0.06445312 C19.19400984 -0.06606545 21.06575748 -0.06548702 22.9375 -0.0625 C23.80954575 -0.07373398 24.68159149 -0.08496796 25.58006287 -0.09654236 C31.05135915 -0.03427472 34.19909883 0.78346157 38.53515625 4.43359375 C42.59146023 9.65619232 42.30913169 15.08699517 41.53515625 21.43359375 C39.36231821 26.02069627 37.0980721 28.30503943 32.53515625 30.43359375 C29.37932795 30.8790101 26.25358663 30.8778788 23.0703125 30.8671875 C22.15938339 30.87242935 21.24845428 30.8776712 20.30992126 30.8830719 C18.38769549 30.88948141 16.46543043 30.88816898 14.54321289 30.87963867 C11.61077642 30.87113181 8.68029093 30.89989946 5.74804688 30.93164062 C3.87630266 30.93325295 2.00455502 30.93267452 0.1328125 30.9296875 C-0.73923325 30.94092148 -1.61127899 30.95215546 -2.50975037 30.96372986 C-7.98104665 30.90146222 -11.12878633 30.08372593 -15.46484375 26.43359375 C-19.52114773 21.21099518 -19.23881919 15.78019233 -18.46484375 9.43359375 C-14.42692708 0.90910299 -8.62686886 -0.02897407 0 0 Z " fill="#000000" transform="translate(444.46484375,299.56640625)"/>
<path d="M0 0 C0.91092911 -0.00524185 1.82185822 -0.0104837 2.76039124 -0.0158844 C4.68261701 -0.02229391 6.60488207 -0.02098148 8.52709961 -0.01245117 C11.45953608 -0.00394431 14.39002157 -0.03271196 17.32226562 -0.06445312 C19.19400984 -0.06606545 21.06575748 -0.06548702 22.9375 -0.0625 C23.80954575 -0.07373398 24.68159149 -0.08496796 25.58006287 -0.09654236 C31.05135915 -0.03427472 34.19909883 0.78346157 38.53515625 4.43359375 C42.59146023 9.65619232 42.30913169 15.08699517 41.53515625 21.43359375 C39.36231821 26.02069627 37.0980721 28.30503943 32.53515625 30.43359375 C29.37932795 30.8790101 26.25358663 30.8778788 23.0703125 30.8671875 C22.15938339 30.87242935 21.24845428 30.8776712 20.30992126 30.8830719 C18.38769549 30.88948141 16.46543043 30.88816898 14.54321289 30.87963867 C11.61077642 30.87113181 8.68029093 30.89989946 5.74804688 30.93164062 C3.87630266 30.93325295 2.00455502 30.93267452 0.1328125 30.9296875 C-0.73923325 30.94092148 -1.61127899 30.95215546 -2.50975037 30.96372986 C-7.98104665 30.90146222 -11.12878633 30.08372593 -15.46484375 26.43359375 C-19.52114773 21.21099518 -19.23881919 15.78019233 -18.46484375 9.43359375 C-14.42692708 0.90910299 -8.62686886 -0.02897407 0 0 Z " fill="#000000" transform="translate(444.46484375,179.56640625)"/>
<path d="M0 0 C0.91092911 -0.00524185 1.82185822 -0.0104837 2.76039124 -0.0158844 C4.68261701 -0.02229391 6.60488207 -0.02098148 8.52709961 -0.01245117 C11.45953608 -0.00394431 14.39002157 -0.03271196 17.32226562 -0.06445312 C19.19400984 -0.06606545 21.06575748 -0.06548702 22.9375 -0.0625 C23.80954575 -0.07373398 24.68159149 -0.08496796 25.58006287 -0.09654236 C31.05135915 -0.03427472 34.19909883 0.78346157 38.53515625 4.43359375 C42.59146023 9.65619232 42.30913169 15.08699517 41.53515625 21.43359375 C39.36231821 26.02069627 37.0980721 28.30503943 32.53515625 30.43359375 C29.37932795 30.8790101 26.25358663 30.8778788 23.0703125 30.8671875 C22.15938339 30.87242935 21.24845428 30.8776712 20.30992126 30.8830719 C18.38769549 30.88948141 16.46543043 30.88816898 14.54321289 30.87963867 C11.61077642 30.87113181 8.68029093 30.89989946 5.74804688 30.93164062 C3.87630266 30.93325295 2.00455502 30.93267452 0.1328125 30.9296875 C-0.73923325 30.94092148 -1.61127899 30.95215546 -2.50975037 30.96372986 C-7.98104665 30.90146222 -11.12878633 30.08372593 -15.46484375 26.43359375 C-19.52114773 21.21099518 -19.23881919 15.78019233 -18.46484375 9.43359375 C-14.42692708 0.90910299 -8.62686886 -0.02897407 0 0 Z " fill="#000000" transform="translate(444.46484375,59.56640625)"/>
<path d="M0 0 C1.21494141 -0.01998047 2.42988281 -0.03996094 3.68164062 -0.06054688 C14.96313714 -0.05436523 14.96313714 -0.05436523 19.5625 4.4375 C23.61880398 9.66009857 23.33647544 15.09090142 22.5625 21.4375 C20.37746744 26.05034651 18.07069887 28.17717876 13.5625 30.4375 C9.10102246 31.04838321 4.62399644 30.90117079 0.125 30.875 C-1.08994141 30.89498047 -2.30488281 30.91496094 -3.55664062 30.93554688 C-14.83813714 30.92936523 -14.83813714 30.92936523 -19.4375 26.4375 C-23.49380398 21.21490143 -23.21147544 15.78409858 -22.4375 9.4375 C-17.68821562 -0.58876702 -9.86229941 -0.05736927 0 0 Z " fill="#000000" transform="translate(448.4375,239.5625)"/>
<path d="M0 0 C1.21494141 -0.01998047 2.42988281 -0.03996094 3.68164062 -0.06054688 C14.96313714 -0.05436523 14.96313714 -0.05436523 19.5625 4.4375 C23.61880398 9.66009857 23.33647544 15.09090142 22.5625 21.4375 C20.37746744 26.05034651 18.07069887 28.17717876 13.5625 30.4375 C9.10102246 31.04838321 4.62399644 30.90117079 0.125 30.875 C-1.08994141 30.89498047 -2.30488281 30.91496094 -3.55664062 30.93554688 C-14.83813714 30.92936523 -14.83813714 30.92936523 -19.4375 26.4375 C-23.49380398 21.21490143 -23.21147544 15.78409858 -22.4375 9.4375 C-17.68821562 -0.58876702 -9.86229941 -0.05736927 0 0 Z " fill="#000000" transform="translate(448.4375,119.5625)"/>
<path d="M0 0 C4.61581142 2.18643699 6.72864085 4.49599804 9 9 C9.82885269 14.54808604 9.7240695 19.47140883 7.3125 24.5625 C4.21064779 27.8320199 1.61649202 29.75850523 -2.90234375 30.43359375 C-9.05071801 30.44150672 -13.31314296 30.4465054 -18 26 C-21.88937897 20.55860924 -21.79042609 15.48149391 -21 9 C-16.63929544 -0.20593186 -9.3488659 -1.1401056 0 0 Z " fill="#000000" transform="translate(327,392)"/>
</svg>