<?xml version="1.0" encoding="UTF-8"?>
<svg version="1.1" xmlns="http://www.w3.org/2000/svg" width="512" height="512">
<path d="M0 0 C1.19629028 0.00323273 1.19629028 0.00323273 2.41674805 0.00653076 C13.94854791 0.05658097 25.10718832 0.3374977 36.3125 3.3125 C37.50020996 3.61849121 37.50020996 3.61849121 38.71191406 3.93066406 C61.22809633 9.86415743 82.18617875 19.56566237 100.3125 34.3125 C100.87179199 34.76496094 101.43108398 35.21742187 102.00732422 35.68359375 C122.55410104 52.41575518 141.36970759 74.99027729 150.3125 100.3125 C150.3125 101.3025 150.3125 102.2925 150.3125 103.3125 C151.42367188 103.03535156 152.53484375 102.75820312 153.6796875 102.47265625 C169.45246002 98.60138355 169.45246002 98.60138355 177.3125 98.3125 C178.93091797 98.23515625 178.93091797 98.23515625 180.58203125 98.15625 C212.90380255 97.33013444 240.98213846 109.30861386 264.3125 131.3125 C265.34503906 132.24835938 265.34503906 132.24835938 266.3984375 133.203125 C287.72264839 153.26305461 297.7692115 183.51630539 298.66381836 212.15307617 C298.9882892 242.59646899 287.56576728 272.24155226 266.41796875 294.171875 C258.06850298 302.66355836 249.71425898 309.44850838 239.3125 315.3125 C238.44625 315.84230469 237.58 316.37210937 236.6875 316.91796875 C230.34979818 320.54386547 224.55512608 321.45167207 217.3125 320.3125 C213.27595889 318.3296377 210.6624944 316.14670139 208.3125 312.3125 C206.50044316 306.87632947 206.6025164 301.33034814 208.5 295.9375 C211.84081329 291.09908076 216.32802977 288.65793451 221.5 286.0625 C227.738883 282.76329408 233.04447597 278.99311604 238.3125 274.3125 C238.94800781 273.74789063 239.58351563 273.18328125 240.23828125 272.6015625 C255.3362012 258.34055608 263.41179173 237.76372266 264.46875 217.28515625 C265.09094086 194.23816972 257.38900259 173.43813363 241.546875 156.5859375 C240.80953125 155.83570313 240.0721875 155.08546875 239.3125 154.3125 C238.69890625 153.68601563 238.0853125 153.05953125 237.453125 152.4140625 C222.71508138 138.49479908 201.53891208 131.59803353 181.51953125 132.0703125 C170.42084082 132.90845965 160.67544806 135.54289774 150.51513672 139.97485352 C145.23282516 142.22142989 140.78937283 143.22683334 135.0546875 141.71875 C129.01738207 138.78850971 125.96320592 134.52936882 123.52978516 128.31298828 C122.87556725 126.26027208 122.27746433 124.19704689 121.6875 122.125 C116.44567209 105.32993587 107.76037176 90.58246068 96.3125 77.3125 C95.73757813 76.59964844 95.16265625 75.88679688 94.5703125 75.15234375 C83.40677278 61.42420707 67.36115144 51.31960257 51.3125 44.3125 C50.66700195 44.03035645 50.02150391 43.74821289 49.35644531 43.45751953 C17.71882953 29.96103034 -16.54377442 30.78148626 -48.4375 43.0625 C-79.52037032 56.16409695 -104.83188688 81.61872742 -117.70410156 112.77294922 C-121.85669298 123.39580993 -124.98062505 134.01981536 -126.6875 145.3125 C-126.81769531 146.14136719 -126.94789062 146.97023437 -127.08203125 147.82421875 C-131.41739221 181.87125346 -121.54467246 216.54070813 -101.609375 244.1953125 C-93.64934234 254.30750214 -84.17255754 263.81364937 -74.140625 271.8828125 C-70.88901292 275.08197922 -70.37486869 278.23437562 -70.3125 282.6875 C-70.41265942 287.70214829 -71.24492196 290.49775136 -74.6875 294.3125 C-79.43498431 298.59681511 -83.10108261 299.69913367 -89.36328125 299.578125 C-96.39152482 298.77489716 -101.33213931 293.12182088 -106.26953125 288.54296875 C-108.26029111 286.70658122 -110.28228186 284.96649915 -112.375 283.25 C-124.6540406 272.74142572 -133.86236007 258.29721796 -141.6875 244.3125 C-142.29335937 243.2503125 -142.89921875 242.188125 -143.5234375 241.09375 C-163.55579021 203.74836847 -167.23390301 156.98003457 -155.08251953 116.61767578 C-146.99336036 90.98647101 -134.32546565 68.73621463 -115.6875 49.3125 C-114.80964844 48.37148437 -113.93179688 47.43046875 -113.02734375 46.4609375 C-83.79535998 15.68568136 -42.02894531 -0.20414059 0 0 Z " fill="#000000" transform="translate(187.6875,47.6875)"/>
<path d="M0 0 C4.52966583 2.47551505 7.16586374 5.37259122 8.8125 10.3125 C8.90800569 11.88503062 8.94739505 13.461279 8.95294189 15.03669739 C8.95865204 16.00819229 8.96436218 16.97968719 8.97024536 17.98062134 C8.97136322 19.04509491 8.97248108 20.10956848 8.97363281 21.20629883 C8.98108017 22.88962059 8.98108017 22.88962059 8.98867798 24.60694885 C9.00331007 28.32781584 9.01010335 32.04864019 9.015625 35.76953125 C9.02137555 38.35161846 9.02713329 40.93370566 9.03289795 43.51579285 C9.04206663 48.24100526 9.04836575 52.9662006 9.0513947 57.69142038 C9.05587366 64.64002821 9.07341514 71.58843915 9.1023953 78.53698713 C9.12664223 84.56031765 9.13434027 90.58355524 9.13607025 96.60693932 C9.13909886 99.16699991 9.14713436 101.72705963 9.16025543 104.28708839 C9.17730063 107.86838336 9.17543909 111.44919856 9.16894531 115.03051758 C9.18276749 116.6181189 9.18276749 116.6181189 9.1968689 118.23779297 C9.16593895 123.68026089 8.93314491 127.63870673 5.8125 132.3125 C1.71220714 136.19698797 -1.89707035 138.05320608 -7.5 138.6875 C-12.0887016 138.22085238 -15.42851824 136.98464573 -19.1875 134.3125 C-22.73145224 129.85984206 -24.30550391 126.32562337 -24.33467102 120.6776886 C-24.34182632 119.72591232 -24.34898163 118.77413605 -24.35635376 117.79351807 C-24.35904266 116.75088806 -24.36173157 115.70825806 -24.36450195 114.6340332 C-24.37107315 113.53453842 -24.37764435 112.43504364 -24.38441467 111.30223083 C-24.40415898 107.65591364 -24.41581329 104.00963766 -24.42578125 100.36328125 C-24.42985678 99.11830557 -24.4339323 97.87332989 -24.43813133 96.59062767 C-24.45684563 90.67995329 -24.47140958 84.76929201 -24.4797433 78.85859519 C-24.48950551 72.04804734 -24.5157995 65.23782539 -24.55624419 58.4273923 C-24.59011843 52.51941872 -24.60189459 46.61152437 -24.60594749 40.70345116 C-24.61081673 38.1952716 -24.62244022 35.6870956 -24.64098549 33.17897987 C-24.66535135 29.66503667 -24.66441591 26.1519414 -24.6574707 22.63793945 C-24.67028076 21.6054306 -24.68309082 20.57292175 -24.69628906 19.50912476 C-24.65191052 13.33613053 -23.89012821 8.39800354 -20.1875 3.3125 C-13.86626389 -1.71868793 -7.56870114 -3.50193635 0 0 Z " fill="#000000" transform="translate(178.1875,283.6875)"/>
<path d="M0 0 C3.68807589 2.6217409 5.39998447 6.08667215 6.796875 10.27734375 C6.89421332 11.81999166 6.93606373 13.36645996 6.94404602 14.91215515 C6.95120132 15.86393143 6.95835663 16.8157077 6.96572876 17.79632568 C6.96841766 18.83895569 6.97110657 19.88158569 6.97387695 20.95581055 C6.98373375 22.60505272 6.98373375 22.60505272 6.99378967 24.28761292 C7.01353398 27.93393011 7.02518829 31.58020609 7.03515625 35.2265625 C7.03923178 36.47153818 7.0433073 37.71651386 7.04750633 38.99921608 C7.06622063 44.90989046 7.08078458 50.82055174 7.0891183 56.73124856 C7.09888051 63.54179641 7.1251745 70.35201836 7.16561919 77.16245145 C7.19949343 83.07042503 7.21126959 88.97831938 7.21532249 94.88639259 C7.22019173 97.39457215 7.23181522 99.90274815 7.25036049 102.41086388 C7.27472635 105.92480708 7.27379091 109.43790235 7.2668457 112.9519043 C7.27965576 113.98441315 7.29246582 115.016922 7.30566406 116.08071899 C7.26128552 122.25371322 6.49950321 127.19184021 2.796875 132.27734375 C-2.44128351 136.44649032 -6.52637922 137.82461799 -13.203125 137.27734375 C-18.47551847 135.46741763 -22.14833257 133.04281993 -25.203125 128.27734375 C-26.16626982 125.3879093 -26.33299225 123.55656432 -26.34356689 120.55314636 C-26.34927704 119.58165146 -26.35498718 118.61015656 -26.36087036 117.60922241 C-26.36198822 116.54474884 -26.36310608 115.48027527 -26.36425781 114.38354492 C-26.36922272 113.26133041 -26.37418762 112.13911591 -26.37930298 110.9828949 C-26.39393507 107.26202791 -26.40072835 103.54120356 -26.40625 99.8203125 C-26.41200055 97.23822529 -26.41775829 94.65613809 -26.42352295 92.0740509 C-26.43269163 87.34883849 -26.43899075 82.62364315 -26.4420197 77.89842337 C-26.44649866 70.94981554 -26.46404014 64.0014046 -26.4930203 57.05285662 C-26.51726723 51.0295261 -26.52496527 45.00628851 -26.52669525 38.98290443 C-26.52972386 36.42284384 -26.53775936 33.86278412 -26.55088043 31.30275536 C-26.56792563 27.72146039 -26.56606409 24.14064519 -26.55957031 20.55932617 C-26.5687851 19.50092529 -26.57799988 18.44252441 -26.5874939 17.35205078 C-26.55656395 11.90958286 -26.32376991 7.95113702 -23.203125 3.27734375 C-16.17208437 -3.38364211 -8.55607859 -4.65941489 0 0 Z " fill="#000000" transform="translate(351.203125,284.72265625)"/>
<path d="M0 0 C4.17167075 2.43539527 6.64667919 4.58334556 8.68359375 9.05078125 C9.14055005 12.84719912 9.10349087 16.62698361 9.08764648 20.44702148 C9.09450974 21.59878876 9.10137299 22.75055603 9.10844421 23.93722534 C9.12674642 27.74473394 9.12286965 31.55183185 9.1171875 35.359375 C9.12174761 38.00586583 9.12705267 40.65235547 9.1330719 43.29884338 C9.1430975 48.84616016 9.13980583 54.39336032 9.12963867 59.94067383 C9.11815909 66.34543656 9.13223191 72.74978048 9.15903515 79.15448803 C9.18388867 85.32522566 9.18636595 91.49577048 9.17991829 97.66655159 C9.17976484 100.28801228 9.18582818 102.90948095 9.19820976 105.5309124 C9.21308126 109.19597432 9.20246943 112.86011351 9.18530273 116.52514648 C9.1949707 117.60845749 9.20463867 118.69176849 9.21459961 119.8079071 C9.15493233 125.88926453 8.73653499 129.41954275 4.68359375 134.05078125 C0.86429203 137.67911788 -2.19919631 138.36078583 -7.31640625 138.55078125 C-12.43361619 138.36078583 -15.49710453 137.67911788 -19.31640625 134.05078125 C-24.1023247 128.57239808 -23.89260136 123.63254296 -23.84985352 116.55688477 C-23.86277687 114.83142426 -23.86277687 114.83142426 -23.8759613 113.07110596 C-23.89863896 109.2737367 -23.89187838 105.47710435 -23.8828125 101.6796875 C-23.88804734 99.03702068 -23.89432331 96.39435573 -23.90159607 93.75169373 C-23.91343363 88.21451544 -23.90776324 82.67754653 -23.89282227 77.14038086 C-23.87590367 70.75085951 -23.89173554 64.36202149 -23.92404515 57.97257477 C-23.95401085 51.81194947 -23.95591553 45.65163575 -23.94654655 39.49094963 C-23.94572671 36.87589568 -23.95259631 34.26082754 -23.96731758 31.6458149 C-23.98475167 27.98806195 -23.97022727 24.33176678 -23.94750977 20.67407227 C-23.95920197 19.59592758 -23.97089417 18.5177829 -23.98294067 17.40696716 C-23.8971991 10.61594803 -22.91833021 7.1186065 -18.31640625 2.05078125 C-12.94157731 -1.82409543 -6.14784851 -2.51927013 0 0 Z " fill="#000000" transform="translate(263.31640625,325.94921875)"/>
</svg>
