<?xml version="1.0" encoding="UTF-8"?>
<svg version="1.1" xmlns="http://www.w3.org/2000/svg" width="512" height="512">
<path d="M0 0 C4.73974702 2.9270292 8.60028101 6.44445642 10.234375 11.89453125 C10.69033865 14.9259771 11.05400568 17.95740061 11.39208984 21.00390625 C14.21929972 44.44738286 32.51736302 66.45514159 47.234375 83.89453125 C48.67394945 85.6636786 50.11140096 87.43455524 51.546875 89.20703125 C58.47237078 97.66749729 65.56495807 105.99327442 72.921875 114.08203125 C75.9135566 117.3739533 78.75961923 120.74044432 81.546875 124.20703125 C85.02056639 128.51709473 88.68731571 132.56137639 92.484375 136.58203125 C99.48415093 144.02843875 104.6626686 150.62701103 104.5078125 161.265625 C103.79004478 168.16644894 100.14166848 172.49591943 94.91796875 176.765625 C89.80368279 180.1949258 83.0975139 179.4612547 77.234375 178.89453125 C66.407731 175.66184073 57.22554053 161.00558559 50.51171875 152.640625 C48.01610874 149.63133883 45.39669033 146.75517736 42.734375 143.89453125 C38.42113723 139.25864088 34.37717039 134.46673793 30.40625 129.53125 C28.29681151 126.97033097 26.10549852 124.5232967 23.859375 122.08203125 C18.795584 116.51626444 14.19890821 110.6254971 9.60742188 104.67041016 C8.27780447 102.9507023 6.93743443 101.23997874 5.59375 99.53125 C0.11767946 92.53618591 -4.95049147 85.35933322 -9.765625 77.89453125 C-12.83750616 81.63815055 -15.69283294 85.51283903 -18.53637695 89.4296875 C-24.18331762 97.19798195 -29.96793316 104.73597295 -36.2578125 111.9921875 C-38.62610129 114.73305755 -40.92352563 117.51725711 -43.203125 120.33203125 C-50.0728076 128.76244675 -57.13571768 137.0367143 -64.453125 145.08203125 C-67.48275368 148.41680239 -70.37170592 151.82740764 -73.203125 155.33203125 C-76.27899088 159.13540628 -79.45315666 162.79535777 -82.765625 166.39453125 C-86.75330222 170.73694049 -90.53923665 175.18766802 -94.23828125 179.77734375 C-96.11610416 182.10691067 -98.02586617 184.40710522 -99.94921875 186.69921875 C-134.86425914 228.40933924 -167.66509507 274.66732104 -163.01171875 331.32421875 C-160.02468319 362.52214572 -147.44478598 392.36054804 -126.765625 415.89453125 C-125.68861328 417.15330078 -125.68861328 417.15330078 -124.58984375 418.4375 C-104.46653979 441.49172923 -78.05561648 456.60241629 -48.765625 464.89453125 C-47.60546875 465.23097656 -46.4453125 465.56742187 -45.25 465.9140625 C-5.58222645 475.83100589 36.63055122 467.584299 71.6015625 447.48828125 C81.23333597 441.65777149 89.94745969 434.562534 98.0234375 426.734375 C103.79670317 421.93012035 108.81703796 421.35616521 116.10546875 421.546875 C121.81939681 422.1817559 125.22818606 424.57314762 129.046875 428.83203125 C133.26391378 434.73588555 134.08111281 439.72475137 133.234375 446.89453125 C128.39950975 464.4168617 102.07850935 478.64521229 87.24609375 487.23828125 C61.58465026 501.62507575 30.96877136 510.83546143 1.44921875 511.1328125 C0.63891708 511.14260635 -0.17138458 511.15240021 -1.00624084 511.16249084 C-18.95884656 511.33479966 -36.208251 511.08424893 -53.765625 506.89453125 C-55.1266333 506.58902344 -55.1266333 506.58902344 -56.51513672 506.27734375 C-91.05190982 498.40958879 -120.58006739 480.49110191 -146.515625 456.83203125 C-147.29401733 456.12651123 -147.29401733 456.12651123 -148.08813477 455.40673828 C-180.41200421 425.49111264 -202.54959273 378.66411807 -204.879776 334.74291992 C-204.94536241 332.44416312 -204.98247955 330.14725097 -205.00390625 327.84765625 C-205.011978 326.99637146 -205.02004974 326.14508667 -205.02836609 325.26800537 C-205.042127 323.46954328 -205.05288447 321.67105595 -205.06079102 319.87255859 C-205.07221101 318.07527735 -205.09250055 316.27802726 -205.12231445 314.48095703 C-205.39949628 297.70448833 -203.2572731 281.63019981 -197.765625 265.70703125 C-197.47856689 264.86301758 -197.19150879 264.01900391 -196.89575195 263.14941406 C-188.43205928 239.30644048 -175.45175328 217.37608235 -160.765625 196.89453125 C-159.95303223 195.76096191 -159.95303223 195.76096191 -159.12402344 194.60449219 C-148.88948975 180.39538232 -138.00504077 166.80361243 -126.64990234 153.47949219 C-123.78398183 150.11510509 -120.97991445 146.70769262 -118.203125 143.26953125 C-114.37893149 138.56597774 -110.3387757 134.10363325 -106.234375 129.64453125 C-103.82184396 126.95715491 -101.5330629 124.20487681 -99.265625 121.39453125 C-96.21213821 117.60992791 -93.05894199 113.97245588 -89.765625 110.39453125 C-85.69935521 105.97113145 -81.85941597 101.41961481 -78.08984375 96.7421875 C-76.09284146 94.29544015 -74.05022701 91.89836588 -71.98193359 89.51196289 C-60.01794791 75.64253718 -48.76360218 60.87663285 -39.765625 44.89453125 C-39.24766357 43.97776611 -39.24766357 43.97776611 -38.71923828 43.04248047 C-34.22277605 34.8716299 -32.13832862 27.415843 -30.88793945 18.1953125 C-29.7224154 10.27424169 -26.8547456 5.53315509 -20.765625 0.33203125 C-14.5533027 -2.63607829 -6.30080884 -2.51854365 0 0 Z " fill="#000000" transform="translate(204.765625,1.10546875)"/>
<path d="M0 0 C4.97046709 3.8228845 9.05907752 8.24237484 13.21728516 12.90161133 C16.94857848 17.061557 20.74420328 20.57931842 25.5 23.5625 C26.44875 24.18125 27.3975 24.8 28.375 25.4375 C33.57198514 27.30841465 38.52847171 27.61038136 43.79296875 25.75390625 C52.24056586 21.43292295 58.91948932 14.4688419 65.0625 7.375 C73.1782661 -1.77651947 82.96181241 -7.0527831 95.29296875 -7.8203125 C110.38972871 -8.34947138 121.94303484 -5.70137815 133.5 4.5625 C136.15982242 7.26341397 138.69362793 10.07387475 141.21728516 12.90161133 C144.94857848 17.061557 148.74420328 20.57931842 153.5 23.5625 C154.44875 24.18125 155.3975 24.8 156.375 25.4375 C161.57198514 27.30841465 166.52847171 27.61038136 171.79296875 25.75390625 C180.24056586 21.43292295 186.91948932 14.4688419 193.0625 7.375 C201.1782661 -1.77651947 210.96181241 -7.0527831 223.29296875 -7.8203125 C238.38972871 -8.34947138 249.94303484 -5.70137815 261.5 4.5625 C264.15982242 7.26341397 266.69362793 10.07387475 269.21728516 12.90161133 C272.94736259 17.06020143 276.7413041 20.58559891 281.5 23.5625 C282.4075 24.14 283.315 24.7175 284.25 25.3125 C287.40054799 26.52424923 289.98340966 26.94150277 293.3125 27.375 C301.06357135 28.54969653 306.0030027 31.63918609 311.0625 37.5625 C313.72152367 43.12789839 313.38267923 49.6060997 312.5 55.5625 C310.2068881 61.29933119 306.93212848 64.81838588 301.46508789 67.76855469 C298.00728214 69.16559585 294.69054859 69.19878691 291 69.125 C289.82304565 69.10856445 289.82304565 69.10856445 288.62231445 69.09179688 C268.21122716 68.34905034 252.16142754 55.97169836 238.73828125 41.63671875 C237.87589844 40.72535156 237.01351563 39.81398438 236.125 38.875 C235.37476563 38.04613281 234.62453125 37.21726562 233.8515625 36.36328125 C230.79966026 34.02619332 229.27760821 34.14605676 225.5 34.5625 C223.22849457 36.06104126 223.22849457 36.06104126 221.328125 38.25390625 C220.58046875 39.03443359 219.8328125 39.81496094 219.0625 40.61914062 C217.9178125 41.85954102 217.9178125 41.85954102 216.75 43.125 C209.20020268 51.20198144 201.4815729 57.87842703 191.5 62.8125 C190.5925 63.27140625 189.685 63.7303125 188.75 64.203125 C180.75630088 67.54664338 173.4846235 69.12414104 164.8125 69.0625 C163.85351807 69.05605469 162.89453613 69.04960937 161.90649414 69.04296875 C141.61322806 68.52615943 125.67522359 57.35947338 112.10400391 43.09521484 C111.42797119 42.37325928 111.42797119 42.37325928 110.73828125 41.63671875 C109.87589844 40.72535156 109.01351562 39.81398438 108.125 38.875 C107.37476563 38.04613281 106.62453125 37.21726562 105.8515625 36.36328125 C102.79966026 34.02619332 101.27760821 34.14605676 97.5 34.5625 C95.22849457 36.06104126 95.22849457 36.06104126 93.328125 38.25390625 C92.20664062 39.42469727 92.20664062 39.42469727 91.0625 40.61914062 C89.9178125 41.85954102 89.9178125 41.85954102 88.75 43.125 C81.20020268 51.20198144 73.4815729 57.87842703 63.5 62.8125 C62.13875 63.50085938 62.13875 63.50085938 60.75 64.203125 C52.75630088 67.54664338 45.4846235 69.12414104 36.8125 69.0625 C35.85351807 69.05605469 34.89453613 69.04960937 33.90649414 69.04296875 C13.61322806 68.52615943 -2.32477641 57.35947338 -15.89599609 43.09521484 C-16.34668457 42.61391113 -16.79737305 42.13260742 -17.26171875 41.63671875 C-18.12410156 40.72535156 -18.98648438 39.81398438 -19.875 38.875 C-20.62523437 38.04613281 -21.37546875 37.21726562 -22.1484375 36.36328125 C-25.20033974 34.02619332 -26.72239179 34.14605676 -30.5 34.5625 C-32.77150543 36.06104126 -32.77150543 36.06104126 -34.671875 38.25390625 C-35.41953125 39.03443359 -36.1671875 39.81496094 -36.9375 40.61914062 C-38.0821875 41.85954102 -38.0821875 41.85954102 -39.25 43.125 C-52.04762539 56.81625268 -67.89191601 68.10478932 -87.16113281 69.06665039 C-94.30977532 69.24035165 -100.16665096 69.15464663 -105.86328125 64.30859375 C-111.5942971 58.19459832 -112.26888496 53.35135718 -112.01171875 45.015625 C-111.00180411 38.20062853 -107.68829531 34.26937034 -102.375 30.125 C-99.21385379 28.55841427 -96.10148304 28.11911942 -92.625 27.625 C-79.75132415 25.73557991 -71.18697942 16.90135536 -62.9375 7.375 C-47.15639879 -10.42012287 -19.64581881 -13.18081177 0 0 Z " fill="#000000" transform="translate(199.5,326.4375)"/>
<path d="M0 0 C4.97046709 3.8228845 9.05907752 8.24237484 13.21728516 12.90161133 C16.94857848 17.061557 20.74420328 20.57931842 25.5 23.5625 C26.44875 24.18125 27.3975 24.8 28.375 25.4375 C33.57198514 27.30841465 38.52847171 27.61038136 43.79296875 25.75390625 C52.24056586 21.43292295 58.91948932 14.4688419 65.0625 7.375 C73.1782661 -1.77651947 82.96181241 -7.0527831 95.29296875 -7.8203125 C110.38972871 -8.34947138 121.94303484 -5.70137815 133.5 4.5625 C136.15982242 7.26341397 138.69362793 10.07387475 141.21728516 12.90161133 C144.94736259 17.06020143 148.7413041 20.58559891 153.5 23.5625 C154.4075 24.14 155.315 24.7175 156.25 25.3125 C159.40054799 26.52424923 161.98340966 26.94150277 165.3125 27.375 C173.06357135 28.54969653 178.0030027 31.63918609 183.0625 37.5625 C185.72152367 43.12789839 185.38267923 49.6060997 184.5 55.5625 C182.2068881 61.29933119 178.93212848 64.81838588 173.46508789 67.76855469 C170.00728214 69.16559585 166.69054859 69.19878691 163 69.125 C161.82304565 69.10856445 161.82304565 69.10856445 160.62231445 69.09179688 C140.21122716 68.34905034 124.16142754 55.97169836 110.73828125 41.63671875 C109.87589844 40.72535156 109.01351562 39.81398438 108.125 38.875 C107.37476563 38.04613281 106.62453125 37.21726562 105.8515625 36.36328125 C102.79966026 34.02619332 101.27760821 34.14605676 97.5 34.5625 C95.22849457 36.06104126 95.22849457 36.06104126 93.328125 38.25390625 C92.20664062 39.42469727 92.20664062 39.42469727 91.0625 40.61914062 C89.9178125 41.85954102 89.9178125 41.85954102 88.75 43.125 C81.20020268 51.20198144 73.4815729 57.87842703 63.5 62.8125 C62.13875 63.50085938 62.13875 63.50085938 60.75 64.203125 C52.75630088 67.54664338 45.4846235 69.12414104 36.8125 69.0625 C35.85351807 69.05605469 34.89453613 69.04960937 33.90649414 69.04296875 C13.61322806 68.52615943 -2.32477641 57.35947338 -15.89599609 43.09521484 C-16.34668457 42.61391113 -16.79737305 42.13260742 -17.26171875 41.63671875 C-18.12410156 40.72535156 -18.98648438 39.81398438 -19.875 38.875 C-20.62523437 38.04613281 -21.37546875 37.21726562 -22.1484375 36.36328125 C-25.20033974 34.02619332 -26.72239179 34.14605676 -30.5 34.5625 C-32.77150543 36.06104126 -32.77150543 36.06104126 -34.671875 38.25390625 C-35.41953125 39.03443359 -36.1671875 39.81496094 -36.9375 40.61914062 C-38.0821875 41.85954102 -38.0821875 41.85954102 -39.25 43.125 C-52.04762539 56.81625268 -67.89191601 68.10478932 -87.16113281 69.06665039 C-94.30977532 69.24035165 -100.16665096 69.15464663 -105.86328125 64.30859375 C-111.5942971 58.19459832 -112.26888496 53.35135718 -112.01171875 45.015625 C-111.00180411 38.20062853 -107.68829531 34.26937034 -102.375 30.125 C-99.21385379 28.55841427 -96.10148304 28.11911942 -92.625 27.625 C-79.75132415 25.73557991 -71.18697942 16.90135536 -62.9375 7.375 C-47.15639879 -10.42012287 -19.64581881 -13.18081177 0 0 Z " fill="#000000" transform="translate(327.5,226.4375)"/>
</svg>
