<svg xmlns="http://www.w3.org/2000/svg" version="1.1" viewBox="-0.47 75.5 512.87 361.81">
<path d="M0 0 C0.8712854 0.00087616 1.7425708 0.00175232 2.64025879 0.00265503 C43.13504926 0.13606202 82.68596828 10.86665366 119.8125 26.6875 C120.75198486 27.08364502 121.69146973 27.47979004 122.65942383 27.88793945 C128.89201848 30.64812991 132.90991919 33.61487878 136.75 39.375 C137.43923878 44.92898223 137.4742151 49.84610145 135.0625 54.9375 C131.45599256 58.73895379 128.03212366 60.84202909 122.75 61.125 C115.64793774 60.93584096 110.05899778 58.17696821 103.70996094 55.28686523 C73.66151441 41.74210265 40.60876495 33.60662572 7.75 31.375 C7.65847656 32.03371094 7.56695312 32.69242187 7.47265625 33.37109375 C0.9354457 60.54468787 -23.19734567 85.75505012 -46.25 100.375 C-58.85270049 108.07947349 -72.03064726 113.44925337 -86.25 117.375 C-86.9311084 117.56707031 -87.6122168 117.75914062 -88.31396484 117.95703125 C-121.50101096 126.81818394 -158.9382093 119.1616752 -188.34765625 102.72265625 C-194.01877405 99.40927254 -199.11873232 95.46100945 -204.25 91.375 C-207.71249878 89.06666748 -208.29555446 89.23721627 -212.25 89.73046875 C-261.79488516 94.74889574 -309.86749134 83.91291717 -355.5625 65.0625 C-356.55282227 64.65410889 -357.54314453 64.24571777 -358.56347656 63.82495117 C-372.34853932 57.97459362 -372.34853932 57.97459362 -375.25 51.375 C-376.07885269 45.82691396 -375.9740695 40.90359117 -373.5625 35.8125 C-369.95599256 32.01104621 -366.53212366 29.90797091 -361.25 29.625 C-354.14793774 29.81415904 -348.55899778 32.57303179 -342.20996094 35.46313477 C-315.55924339 47.47632292 -286.30565566 55.35623058 -257.25 58.375 C-256.48091309 58.45621094 -255.71182617 58.53742188 -254.91943359 58.62109375 C-209.26751999 63.07398629 -163.6877445 47.85987929 -122.6875 29.3125 C-84.07328173 11.85877338 -42.59373934 -0.10554111 0 0 Z " fill="#000000" transform="translate(375.25,315.625)"/>
<path d="M0 0 C0.89745941 0.00087616 1.79491882 0.00175232 2.71957397 0.00265503 C43.41283322 0.13298241 83.05671433 10.78494094 120.375 26.6875 C121.31448486 27.08364502 122.25396973 27.47979004 123.22192383 27.88793945 C129.45451848 30.64812991 133.47241919 33.61487878 137.3125 39.375 C138.00173878 44.92898223 138.0367151 49.84610145 135.625 54.9375 C132.01849256 58.73895379 128.59462366 60.84202909 123.3125 61.125 C116.21043774 60.93584096 110.62149778 58.17696821 104.27246094 55.28686523 C73.87021718 41.58262354 40.5519358 33.52659202 7.3125 31.375 C7.51931396 31.964021 7.72612793 32.55304199 7.93920898 33.15991211 C8.88595481 35.87412949 9.81802545 38.593177 10.75 41.3125 C11.23823242 42.70178711 11.23823242 42.70178711 11.73632812 44.11914062 C13.71456388 49.9314828 14.86633144 55.24803744 15.3125 61.375 C14.1059375 61.34019531 14.1059375 61.34019531 12.875 61.3046875 C-30.06116555 60.6455797 -69.17999286 73.17688534 -107.8125 91 C-119.16347649 96.21675736 -130.86127668 100.3740138 -142.6875 104.375 C-143.61336914 104.69210937 -144.53923828 105.00921875 -145.49316406 105.3359375 C-157.8302498 109.5092343 -170.32587548 112.54134184 -183.0625 115.1875 C-183.76462616 115.33479553 -184.46675232 115.48209106 -185.19015503 115.6338501 C-201.05772237 118.93257082 -216.53431153 120.7109094 -232.75 120.5 C-234.11783177 120.4899197 -235.48567098 120.48080303 -236.85351562 120.47265625 C-240.13171138 120.44948879 -243.40949938 120.41688109 -246.6875 120.375 C-247.49204125 117.98287164 -248.28091551 115.58714002 -249.0625 113.1875 C-249.28421875 112.53330078 -249.5059375 111.87910156 -249.734375 111.20507812 C-251.82545426 104.71658219 -252.7689905 98.11701565 -253.6875 91.375 C-254.94518188 91.19493408 -254.94518188 91.19493408 -256.22827148 91.01123047 C-274.62601031 88.34409152 -292.72583611 85.27500203 -310.6875 80.375 C-311.64382324 80.11493164 -312.60014648 79.85486328 -313.58544922 79.58691406 C-361.25587673 66.37791312 -361.25587673 66.37791312 -373.4375 54.75 C-375.34370127 49.60325657 -375.4231308 44.79191772 -374.6875 39.375 C-372.48952482 34.73483019 -370.1677412 32.71679518 -365.6875 30.375 C-356.88031467 28.11526166 -349.46765635 31.90335545 -341.64746094 35.46313477 C-277.9204694 64.18897821 -212.75552423 64.72004215 -147.66015625 40.35131836 C-139.1117895 37.05725371 -130.8191799 33.31073042 -122.53027344 29.41772461 C-84.4169102 11.6421909 -42.19085434 -0.10115367 0 0 Z " fill="#000000" transform="translate(374.6875,225.625)"/>
<path d="M0 0 C0.93948486 0.39614502 1.87896973 0.79229004 2.84692383 1.20043945 C9.07951848 3.96062991 13.09741919 6.92737878 16.9375 12.6875 C17.62673878 18.24148223 17.6617151 23.15860145 15.25 28.25 C11.64349256 32.05145379 8.21962366 34.15452909 2.9375 34.4375 C-4.16456226 34.24834096 -9.75350222 31.48946821 -16.10253906 28.59936523 C-58.74818787 9.37623542 -110.67803433 -2.22109963 -157.0625 8.6875 C-157.7225 9.0175 -158.3825 9.3475 -159.0625 9.6875 C-158.71993164 10.22640869 -158.37736328 10.76531738 -158.02441406 11.32055664 C-156.45214431 13.79600565 -154.88230791 16.27298914 -153.3125 18.75 C-152.77367187 19.59755859 -152.23484375 20.44511719 -151.6796875 21.31835938 C-148.68555226 26.04690222 -145.79355518 30.80209304 -143.0625 35.6875 C-147.139948 36.91130627 -151.21858325 37.97406452 -155.37109375 38.9140625 C-178.69814501 44.20504967 -200.26797565 51.91692216 -222.0625 61.6875 C-256.12725761 76.91200328 -291.05823877 87.4235788 -328.0625 92.6875 C-328.78493896 92.79425049 -329.50737793 92.90100098 -330.25170898 93.01098633 C-337.19279323 93.9216988 -344.13608824 93.79830189 -351.125 93.75 C-352.37216797 93.74548828 -353.61933594 93.74097656 -354.90429688 93.73632812 C-357.95708221 93.72463163 -361.00976498 93.70824086 -364.0625 93.6875 C-361.89708719 86.67328907 -359.09078258 80.21712492 -355.875 73.625 C-355.41158203 72.66400391 -354.94816406 71.70300781 -354.47070312 70.71289062 C-353.3394354 68.3687173 -352.20330989 66.02704029 -351.0625 63.6875 C-352.1148584 63.7189209 -352.1148584 63.7189209 -353.18847656 63.75097656 C-395.79927089 64.84143745 -436.12706986 54.56582429 -475.375 38.375 C-476.36532227 37.96660889 -477.35564453 37.55821777 -478.37597656 37.13745117 C-492.16103932 31.28709362 -492.16103932 31.28709362 -495.0625 24.6875 C-495.89135269 19.13941396 -495.7865695 14.21609117 -493.375 9.125 C-489.76849256 5.32354621 -486.34462366 3.22047091 -481.0625 2.9375 C-473.96043774 3.12665904 -468.37149778 5.88553179 -462.02246094 8.77563477 C-435.37174339 20.78882292 -406.11815566 28.66873058 -377.0625 31.6875 C-376.29341309 31.76871094 -375.52432617 31.84992188 -374.73193359 31.93359375 C-330.53783324 36.24429103 -285.08863657 22.15697 -245.40966797 3.77246094 C-220.1860167 -7.88698427 -193.32623293 -16.89496082 -166.0625 -22.3125 C-165.05783691 -22.51987793 -164.05317383 -22.72725586 -163.01806641 -22.94091797 C-107.86322952 -33.95795076 -51.01974464 -21.74120509 0 0 Z " fill="#000000" transform="translate(495.0625,162.3125)"/>
<path d="M0 0 C0.99902344 -0.01933594 1.99804688 -0.03867188 3.02734375 -0.05859375 C9.6738179 1.02776689 13.3567485 5.59180323 17.1875 10.75 C18.14104038 11.99937516 19.09550105 13.24804836 20.05078125 14.49609375 C20.78675537 15.46458252 20.78675537 15.46458252 21.53759766 16.45263672 C24.09592769 19.78264363 26.73952066 23.04348405 29.375 26.3125 C41.0625 40.89671053 41.0625 40.89671053 41.0625 43.4375 C40.49668213 43.59718262 39.93086426 43.75686523 39.34790039 43.92138672 C21.22862104 49.09313896 3.77111801 55.49534637 -13.359375 63.359375 C-26.04876735 69.18434002 -38.68928481 74.30339999 -51.9375 78.6875 C-52.66839844 78.93023651 -53.39929688 79.17297302 -54.15234375 79.42306519 C-66.30778516 83.4375 -66.30778516 83.4375 -69.9375 83.4375 C-68.43674221 78.98525189 -65.99190106 75.52100053 -63.1875 71.8125 C-62.19128255 70.47535257 -61.19519508 69.13810829 -60.19921875 67.80078125 C-59.66989746 67.0938916 -59.14057617 66.38700195 -58.59521484 65.65869141 C-56.30350377 62.58800107 -54.03754199 59.4986635 -51.77026367 56.40991211 C-48.83424405 52.41302207 -45.88553905 48.42552766 -42.9375 44.4375 C-42.41510742 43.72916016 -41.89271484 43.02082031 -41.35449219 42.29101562 C-34.74666297 33.34176268 -27.92119569 24.61592956 -20.85546875 16.0234375 C-17.95067578 12.48191392 -15.18379645 8.84881764 -12.5 5.13671875 C-8.82804293 1.14346544 -5.33915794 0.0068715 0 0 Z " fill="#000000" transform="translate(255.9375,75.5625)"/>
</svg>