<?xml version="1.0" encoding="UTF-8"?>
<svg version="1.1" xmlns="http://www.w3.org/2000/svg" width="512" height="512">
<path d="M0 0 C1.22501221 0.00902344 2.45002441 0.01804688 3.7121582 0.02734375 C24.55375116 0.42361884 43.07621147 7.06547012 59.25 20.4375 C60.52423828 21.46810547 60.52423828 21.46810547 61.82421875 22.51953125 C78.78646196 36.93613918 89.12049224 57.54625304 92.25 79.4375 C92.32694147 81.45452469 92.35806071 83.47372265 92.34765625 85.4921875 C92.34443359 86.60078125 92.34121094 87.709375 92.33789062 88.8515625 C92.32951172 89.99367188 92.32113281 91.13578125 92.3125 92.3125 C92.30798828 93.4778125 92.30347656 94.643125 92.29882812 95.84375 C92.28708781 98.70838645 92.2706657 101.57291633 92.25 104.4375 C93.27738281 104.91058594 94.30476563 105.38367188 95.36328125 105.87109375 C116.55678956 115.88056409 130.95011386 131.02102094 139.2421875 153.171875 C145.39114475 173.09640313 144.01774451 194.9874364 135 213.75 C131.71695372 219.94666273 127.9563021 225.25201077 123.25 230.4375 C122.49976563 231.28054688 121.74953125 232.12359375 120.9765625 232.9921875 C111.95039277 242.60257533 100.75473843 249.29850471 88.25 253.4375 C87.55753835 253.68500031 86.86507669 253.93250063 86.15163136 254.18750095 C75.03763163 257.58830132 63.49593633 256.86565674 51.99291992 256.84155273 C49.53275748 256.84726126 47.07259768 256.85422739 44.61244202 256.86235046 C38.6452755 256.87838995 32.67826064 256.88039305 26.71108743 256.87513756 C21.85594253 256.87108104 17.00082863 256.87255692 12.1456852 256.87788582 C11.45225089 256.87863424 10.75881658 256.87938266 10.04436911 256.88015376 C8.63522948 256.88168539 7.22608985 256.88322374 5.81695024 256.88476873 C-7.37157671 256.89846873 -20.56004419 256.893074 -33.74856975 256.88158352 C-45.78487135 256.87165649 -57.8210191 256.88458704 -69.85729698 256.90851771 C-82.24835124 256.93296605 -94.63933402 256.94250237 -107.0304119 256.93586498 C-113.97414003 256.93238511 -120.91774998 256.93452269 -127.86145973 256.95211601 C-134.39429885 256.96846447 -140.92689354 256.96356753 -147.45974159 256.94481087 C-149.84809821 256.94114027 -152.23647676 256.94418843 -154.62481308 256.95469666 C-170.53888959 257.01933337 -184.78571119 256.27236489 -199.125 248.625 C-199.79289551 248.27808105 -200.46079102 247.93116211 -201.14892578 247.57373047 C-206.49491373 244.72453086 -211.26723406 241.53265836 -215.75 237.4375 C-216.58015625 236.68726563 -217.4103125 235.93703125 -218.265625 235.1640625 C-231.89911504 222.22449261 -241.39158593 204.0888148 -242.18359375 185.10546875 C-242.2072833 182.94544201 -242.20811186 180.7850583 -242.1875 178.625 C-242.17847656 177.48498535 -242.16945312 176.3449707 -242.16015625 175.17041016 C-241.70083676 152.74987768 -232.08762297 134.17188593 -216.0625 118.75 C-201.59471656 106.250014 -184.31783952 101.20244463 -165.75 98.4375 C-165.54246094 97.78265625 -165.33492188 97.1278125 -165.12109375 96.453125 C-158.94841638 78.1675368 -147.94471071 65.33829143 -130.75 56.4375 C-114.52238635 48.81013243 -99.09819929 48.39204809 -81.75 51.4375 C-81.48316406 50.54546875 -81.21632812 49.6534375 -80.94140625 48.734375 C-74.69204453 31.44105929 -55.96378297 16.2726463 -39.91113281 8.55322266 C-26.9645617 2.70126445 -14.23860532 -0.12659175 0 0 Z M-39.93359375 48.20703125 C-48.69784243 56.32207632 -54.04516786 66.68997314 -57.49658203 77.96875 C-59.21708517 83.20816402 -61.38635735 85.33549409 -65.75 88.4375 C-69.50886226 90.31693113 -73.65723935 89.96559815 -77.75 89.4375 C-80.39408938 88.3589369 -82.80743912 87.06530014 -85.3046875 85.68359375 C-93.35086416 81.58338551 -101.64211348 81.70243928 -110.1875 84.0625 C-120.25082227 87.35154455 -127.12076907 93.43049708 -132.5625 102.4375 C-134.46439849 107.26370483 -134.21798194 112.69659828 -134.34375 117.81640625 C-134.92425106 122.99068012 -136.45095159 126.26518802 -140.3125 129.75 C-143.86111942 132.20673652 -145.53404205 132.54212671 -149.80859375 132.4296875 C-151.34870117 132.40455078 -151.34870117 132.40455078 -152.91992188 132.37890625 C-155.06334121 132.33534602 -157.20661227 132.28354437 -159.34960938 132.22265625 C-173.62647353 132.02768976 -186.26403492 136.40182578 -196.71484375 146.28125 C-206.04578927 156.16739574 -209.37807109 167.47902571 -209.22265625 180.85302734 C-208.72855456 193.51975391 -202.8619522 204.15137056 -193.72265625 212.80859375 C-181.66878369 222.76198951 -168.29361172 224.59894339 -153.175354 224.57121277 C-151.79325355 224.5746111 -151.79325355 224.5746111 -150.38323188 224.57807809 C-147.31830043 224.58437118 -144.25341373 224.58359176 -141.18847656 224.58276367 C-138.98166853 224.58575809 -136.77486102 224.58916128 -134.5680542 224.59294128 C-128.58856333 224.60175672 -122.60908678 224.60411837 -116.62959003 224.60475707 C-112.8894492 224.60546897 -109.14931199 224.60760596 -105.40917206 224.61025429 C-93.02191619 224.61902301 -80.63466726 224.62367501 -68.24740866 224.62292381 C-67.58085169 224.62288386 -66.91429473 224.6228439 -66.22753906 224.62280273 C-65.22646998 224.62274141 -65.22646998 224.62274141 -64.20517728 224.62267885 C-53.39601805 224.62227264 -42.5868937 224.63183831 -31.77774456 224.6459411 C-20.6546833 224.66033789 -9.5316364 224.66702673 1.59143472 224.66634732 C7.82641173 224.66609295 14.06134925 224.66891064 20.29631805 224.67952538 C26.16340821 224.68924158 32.0304214 224.68926143 37.89751434 224.68200874 C40.04321404 224.68096727 42.18891862 224.68329962 44.33460999 224.6893692 C64.74131311 224.74332715 81.91542688 224.17033246 97.4140625 209.37109375 C107.3219578 198.99934567 109.76398307 187.94651285 109.51953125 174.05859375 C109.0204016 161.97867264 103.38175929 152.57974093 94.96484375 144.1484375 C87.15671887 137.3686998 78.16806771 134.35361071 68.25 131.9375 C63.68044275 130.76019049 61.16762937 129.29630014 58.25 125.4375 C55.17841561 120.19837911 55.4883807 114.50598934 56.92578125 108.71484375 C57.19777344 107.77769531 57.46976562 106.84054687 57.75 105.875 C61.78579386 90.8324956 59.47813808 75.63225187 51.9375 62.0625 C43.23207379 48.22545414 31.10243993 38.84095554 15.25 34.4375 C-5.25407062 29.84176003 -23.75291574 35.09460345 -39.93359375 48.20703125 Z " fill="#000000" transform="translate(305.75,239.5625)"/>
<path d="M0 0 C0.75078827 0.00182281 1.50157654 0.00364563 2.27511597 0.00552368 C13.22478781 0.05030076 23.61132095 0.50682038 34.25 3.3125 C35.57417385 3.62128635 36.89839408 3.92987388 38.22265625 4.23828125 C63.62451667 10.56541842 85.92476835 24.94324754 104.25 43.3125 C105.53777344 44.58287109 105.53777344 44.58287109 106.8515625 45.87890625 C131.71105333 71.72488481 144.71087226 107.06522048 144.51074219 142.59985352 C144.49986583 144.90341613 144.51078469 147.20622417 144.5234375 149.50976562 C144.52211826 150.98698087 144.51956078 152.46419566 144.515625 153.94140625 C144.51967346 154.6236879 144.52372192 155.30596954 144.52789307 156.00892639 C144.49231114 159.61233506 144.21002862 162.24448101 142.25 165.3125 C141.69054687 164.46429688 141.13109375 163.61609375 140.5546875 162.7421875 C135.89909776 155.86512876 130.94772106 149.62258166 125.0625 143.75 C124.49321777 143.17942871 123.92393555 142.60885742 123.33740234 142.02099609 C120.51326299 139.26853954 117.73620993 136.92206579 114.42578125 134.7734375 C111.91460537 133.03256525 111.31893001 132.4764979 110.0859375 129.54296875 C109.93382812 128.53878906 109.78171875 127.53460938 109.625 126.5 C103.93959272 96.26861279 87.8585032 69.76413927 62.30078125 52.296875 C36.97116284 35.97126609 7.09816415 29.58032769 -22.53076172 35.81884766 C-52.53531031 42.64516532 -77.34326594 59.55519601 -93.859375 85.64453125 C-108.80097395 110.25954544 -114.59921424 140.36210541 -107.91064453 168.65185547 C-107.04276532 171.92002721 -106.12152002 175.16869099 -105.09545898 178.39086914 C-104.67830377 180.71131346 -104.94082987 182.10657165 -105.75 184.3125 C-107.35839627 186.11620153 -109.03640526 187.85842523 -110.75 189.5625 C-117.2832324 196.30134244 -121.48588426 204.0158995 -125.75 212.3125 C-126.41 212.3125 -127.07 212.3125 -127.75 212.3125 C-132.5508066 202.55869985 -136.87381473 192.83458569 -139.75 182.3125 C-139.94754883 181.6004541 -140.14509766 180.8884082 -140.34863281 180.15478516 C-146.05623699 158.53408161 -146.46880792 131.99728595 -140.75 110.3125 C-140.44121365 108.98832615 -140.13262612 107.66410592 -139.82421875 106.33984375 C-133.49708158 80.93798333 -119.11925246 58.63773165 -100.75 40.3125 C-99.90308594 39.45398438 -99.05617187 38.59546875 -98.18359375 37.7109375 C-71.82528393 12.35867004 -36.14040704 -0.18220208 0 0 Z " fill="#000000" transform="translate(255.75,111.6875)"/>
<path d="M0 0 C4.50664319 1.72046502 8.50997226 4.06155641 12.625 6.5625 C13.67945313 7.17158203 14.73390625 7.78066406 15.8203125 8.40820312 C36.16171557 20.30339242 36.16171557 20.30339242 38 27 C38.87627621 33.85088672 38.19944819 38.47441028 34 44 C30.62191651 47.2936314 27.47703757 48.41896056 22.875 48.9375 C13.72076327 48.65249886 5.97920921 43.05701875 -1.63232422 38.43652344 C-3.75171116 37.15064256 -5.88674961 35.900579 -8.03515625 34.6640625 C-13.87030047 31.24326958 -18.86549398 28.26901205 -22 22 C-22.50502343 16.46957948 -22.73807257 11.58969476 -20.375 6.5 C-14.10924175 -0.095535 -8.90228584 -1.23679022 0 0 Z " fill="#000000" transform="translate(68,128)"/>
<path d="M0 0 C9.30045769 3.96130605 14.12683623 16.54391074 18.8125 24.9375 C19.39708984 25.97712891 19.98167969 27.01675781 20.58398438 28.08789062 C24.98965462 35.93437402 27.03657684 40.78860123 26 50 C24.33767994 54.11280911 21.8658391 56.37579042 18.3125 58.9375 C12.29802368 60.86667165 7.2862198 61.02879891 1.484375 58.41796875 C-2.50271821 55.97802523 -4.51934403 52.86827118 -6.8125 48.875 C-7.22483887 48.17922852 -7.63717773 47.48345703 -8.06201172 46.76660156 C-8.93504669 45.28418883 -9.80011446 43.7970591 -10.65771484 42.30566406 C-12.01964119 39.96626202 -13.43622486 37.66732929 -14.86328125 35.3671875 C-23.46561504 21.18896239 -23.46561504 21.18896239 -22.59375 12.421875 C-21.39320297 7.52490686 -19.06981597 5.01632517 -15.5 1.625 C-10.32492849 -0.77771177 -5.60954467 -0.73403133 0 0 Z " fill="#000000" transform="translate(150,46)"/>
<path d="M0 0 C4.8846525 2.26787438 7.73212562 5.1153475 10 10 C10.73730745 15.47714107 10.74261259 20.25647479 8.5625 25.375 C2.03585172 32.06083482 -6.85015714 36.29779619 -14.9375 40.8125 C-15.97712891 41.39708984 -17.01675781 41.98167969 -18.08789062 42.58398438 C-25.93437402 46.98965462 -30.78860123 49.03657684 -40 48 C-44.11280911 46.33767994 -46.37579042 43.8658391 -48.9375 40.3125 C-50.83667631 34.39153857 -50.74599627 29.27725177 -48.8125 23.375 C-45.53606567 18.53889316 -40.13021612 16.02853271 -35.15332031 13.24072266 C-32.69723673 11.82555069 -30.30110402 10.32822212 -27.8984375 8.82421875 C-26.07879499 7.71504595 -24.25848148 6.60697319 -22.4375 5.5 C-21.58808838 4.95899658 -20.73867676 4.41799316 -19.86352539 3.8605957 C-13.27840149 -0.048948 -7.61938709 -1.03175474 0 0 Z " fill="#000000" transform="translate(456,128)"/>
<path d="M0 0 C4.8846525 2.26787438 7.73212562 5.1153475 10 10 C11.5150122 19.81575931 8.45183913 26.37445618 3.4375 34.625 C2.82841797 35.67945313 2.21933594 36.73390625 1.59179688 37.8203125 C-10.30339242 58.16171557 -10.30339242 58.16171557 -17 60 C-21.90152579 60.62693935 -26.38085004 60.67974256 -30.875 58.4375 C-35.2600269 55.01717902 -37.59212938 52.03522456 -38.32836914 46.55639648 C-38.5549781 39.11618164 -36.83286684 34.42086882 -33 28.125 C-32.50032715 27.26583984 -32.0006543 26.40667969 -31.48583984 25.52148438 C-30.01178753 23.00101068 -28.50705338 20.50082753 -27 18 C-26.2189234 16.65505456 -25.4400399 15.3088314 -24.6640625 13.9609375 C-18.1587751 2.87484355 -13.09612994 -1.21704872 0 0 Z " fill="#000000" transform="translate(374,46)"/>
<path d="M0 0 C0.95390625 -0.0038269 1.9078125 -0.00765381 2.890625 -0.01159668 C4.90105245 -0.01431036 6.91151553 -0.00698737 8.921875 0.00976562 C11.99038787 0.03118291 15.05655952 0.00994534 18.125 -0.015625 C20.08333848 -0.01298163 22.0416755 -0.00785645 24 0 C25.36898437 -0.01214539 25.36898437 -0.01214539 26.765625 -0.02453613 C32.34723968 0.05719316 35.57473138 0.80813314 40 4.53125 C43.62833663 8.35055172 44.31000458 11.41404006 44.5 16.53125 C44.31000458 21.64845994 43.62833663 24.71194828 40 28.53125 C34.73573631 32.96023965 30.57725694 33.12085225 24 33.0625 C22.56914062 33.06824036 22.56914062 33.06824036 21.109375 33.07409668 C19.09894755 33.07681036 17.08848447 33.06948737 15.078125 33.05273438 C12.00961213 33.03131709 8.94344048 33.05255466 5.875 33.078125 C3.91666152 33.07548163 1.9583245 33.07035645 0 33.0625 C-1.36898438 33.07464539 -1.36898438 33.07464539 -2.765625 33.08703613 C-8.34723968 33.00530684 -11.57473138 32.25436686 -16 28.53125 C-19.62833663 24.71194828 -20.31000458 21.64845994 -20.5 16.53125 C-20.31000458 11.41404006 -19.62833663 8.35055172 -16 4.53125 C-10.73573631 0.10226035 -6.57725694 -0.05835225 0 0 Z " fill="#000000" transform="translate(452,239.46875)"/>
<path d="M0 0 C0.95390625 -0.0038269 1.9078125 -0.00765381 2.890625 -0.01159668 C4.90105245 -0.01431036 6.91151553 -0.00698737 8.921875 0.00976562 C11.99038787 0.03118291 15.05655952 0.00994534 18.125 -0.015625 C20.08333848 -0.01298163 22.0416755 -0.00785645 24 0 C25.36898437 -0.01214539 25.36898437 -0.01214539 26.765625 -0.02453613 C32.34723968 0.05719316 35.57473138 0.80813314 40 4.53125 C43.62833663 8.35055172 44.31000458 11.41404006 44.5 16.53125 C44.31000458 21.64845994 43.62833663 24.71194828 40 28.53125 C34.73573631 32.96023965 30.57725694 33.12085225 24 33.0625 C22.56914063 33.06824036 22.56914063 33.06824036 21.109375 33.07409668 C19.09894755 33.07681036 17.08848447 33.06948737 15.078125 33.05273438 C12.00961213 33.03131709 8.94344048 33.05255466 5.875 33.078125 C3.91666152 33.07548163 1.9583245 33.07035645 0 33.0625 C-1.36898437 33.07464539 -1.36898437 33.07464539 -2.765625 33.08703613 C-8.34723968 33.00530684 -11.57473138 32.25436686 -16 28.53125 C-19.62833663 24.71194828 -20.31000458 21.64845994 -20.5 16.53125 C-20.31000458 11.41404006 -19.62833663 8.35055172 -16 4.53125 C-10.73573631 0.10226035 -6.57725694 -0.05835225 0 0 Z " fill="#000000" transform="translate(36,239.46875)"/>
<path d="M0 0 C4.96592669 2.30560882 7.41978039 5.22082111 10 10 C10.57098662 13.33824707 10.56124181 16.61943061 10.53125 20 C10.5350769 20.95390625 10.53890381 21.9078125 10.54284668 22.890625 C10.54556036 24.90105245 10.53823737 26.91151553 10.52148438 28.921875 C10.50006709 31.99038787 10.52130466 35.05655952 10.546875 38.125 C10.54423163 40.08333848 10.53910645 42.0416755 10.53125 44 C10.53934692 44.91265625 10.54744385 45.8253125 10.55578613 46.765625 C10.47405684 52.34723968 9.72311686 55.57473138 6 60 C2.18069828 63.62833663 -0.88279006 64.31000458 -6 64.5 C-11.11720994 64.31000458 -14.18069828 63.62833663 -18 60 C-22.42898965 54.73573631 -22.58960225 50.57725694 -22.53125 44 C-22.5350769 43.04609375 -22.53890381 42.0921875 -22.54284668 41.109375 C-22.54556036 39.09894755 -22.53823737 37.08848447 -22.52148438 35.078125 C-22.50006709 32.00961213 -22.52130466 28.94344048 -22.546875 25.875 C-22.54423163 23.91666152 -22.53910645 21.9583245 -22.53125 20 C-22.53934692 19.08734375 -22.54744385 18.1746875 -22.55578613 17.234375 C-22.47405684 11.65276032 -21.72311686 8.42526862 -18 4 C-12.72867143 -1.00776214 -6.89190982 -0.92775709 0 0 Z " fill="#000000" transform="translate(262,16)"/>
</svg>
