<svg xmlns="http://www.w3.org/2000/svg" version="1.1" viewBox="-0.38 0.04 512.92 511.34">
<path d="M0 0 C3.25467436 1.44001779 5.48079566 3.5141942 8 6 C8.886875 6.84691406 9.77375 7.69382812 10.6875 8.56640625 C15.45048928 13.18281696 19.95244414 17.99209959 24.2578125 23.0390625 C26.2543789 25.28631885 28.36012946 27.38894927 30.5 29.5 C33.87100065 32.83120807 37.0451403 36.25111628 40.12890625 39.84765625 C42.33079829 42.38052162 44.60195826 44.84332522 46.875 47.3125 C51.02245258 51.85524685 54.93232695 56.54119962 58.79296875 61.328125 C60.91623338 63.8985905 63.11811849 66.35919363 65.375 68.8125 C69.35683587 73.18700826 73.01742083 77.74529075 76.63891602 82.41650391 C79.60034698 86.23300668 82.61928285 89.99191263 85.69213867 93.71923828 C131.94794539 149.9064183 188.43730759 229.16894864 189.23828125 305.15234375 C189.2480751 305.9210379 189.25786896 306.68973206 189.26795959 307.48171997 C189.44501189 325.00383764 189.14074015 341.86981471 185 359 C184.67854004 360.34868164 184.67854004 360.34868164 184.35058594 361.72460938 C173.87060638 404.34624384 148.95282647 443.29992423 114 470 C113.42636719 470.44424316 112.85273438 470.88848633 112.26171875 471.34619141 C87.50123951 490.34008535 58.62331693 502.46967249 28 508 C26.98083496 508.18546387 25.96166992 508.37092773 24.91162109 508.56201172 C14.81084642 510.20898894 4.83162872 510.39983978 -5.375 510.375 C-6.25639648 510.37412384 -7.13779297 510.37324768 -8.04589844 510.37234497 C-22.35457435 510.32554119 -36.06111478 509.46874198 -50 506 C-50.99870117 505.75330566 -51.99740234 505.50661133 -53.02636719 505.25244141 C-66.62788812 501.7871806 -79.43027199 497.22960606 -92 491 C-92.70672852 490.65743164 -93.41345703 490.31486328 -94.14160156 489.96191406 C-131.09895638 471.92860723 -161.09658684 441.34077695 -180 405 C-180.34804687 404.33129883 -180.69609375 403.66259766 -181.0546875 402.97363281 C-189.74930624 386.00114867 -195.71224998 367.78202609 -199 349 C-199.26490234 347.51463745 -199.26490234 347.51463745 -199.53515625 345.99926758 C-201.12548028 336.1641074 -201.39945249 326.49848381 -201.375 316.5625 C-201.37445618 315.7278421 -201.37391235 314.8931842 -201.37335205 314.03323364 C-201.33247384 300.34639278 -200.36026565 287.31831316 -197 274 C-196.67854004 272.69869141 -196.67854004 272.69869141 -196.35058594 271.37109375 C-183.54380283 220.74049272 -156.6253904 175.46628004 -127 133 C-126.53255371 132.32791504 -126.06510742 131.65583008 -125.58349609 130.96337891 C-109.78153397 108.3097147 -92.35026537 86.72222493 -74.45019531 65.70458984 C-72.98196961 63.97880671 -71.51826467 62.24925728 -70.0546875 60.51953125 C-64.1308049 53.5398208 -58.05933727 46.7306972 -51.81640625 40.03515625 C-49.25536657 37.28665992 -46.74776222 34.49373371 -44.25 31.6875 C-40.91996679 27.96675893 -37.45628548 24.43128492 -33.8984375 20.9296875 C-32.01430453 19.01454 -30.25138435 17.03667772 -28.5 15 C-13.71184333 -2.11779779 -13.71184333 -2.11779779 0 0 Z M25 205 C21.38670719 211.24660456 18.67556188 217.96544303 16.04052734 224.66870117 C15.67594264 225.58549337 15.31135794 226.50228558 14.93572521 227.44685936 C13.73171338 230.47729345 12.53390632 233.51014131 11.3359375 236.54296875 C10.47415469 238.71444589 9.61191518 240.88574183 8.74925232 243.05686951 C6.43287039 248.88951993 4.12153522 254.72415649 1.81152725 260.5593338 C-2.54562989 271.5639912 -6.91051675 282.56558308 -11.27734375 293.56640625 C-11.77167047 294.81218626 -12.26599484 296.05796721 -12.76031685 297.30374908 C-19.21986904 313.57981475 -25.74495904 329.82764415 -32.35999298 346.04117012 C-33.61253274 349.11219851 -34.86289584 352.1841035 -36.11248779 355.2563324 C-36.91855898 357.2377096 -37.72465001 359.21907873 -38.53076172 361.20043945 C-38.92090958 362.15949031 -39.31105743 363.11854116 -39.71302795 364.10665417 C-42.00365707 369.73260636 -44.30965723 375.35195911 -46.62656116 380.96713734 C-48.05097599 384.42920717 -49.4612237 387.89691855 -50.86775017 391.36628914 C-51.51455621 392.95283868 -52.16743862 394.53692776 -52.82705879 396.11819267 C-57.85085059 407.64082192 -57.85085059 407.64082192 -58 420 C-55.83701163 424.40608743 -53.60319521 427.1987497 -49 429 C-44.21974152 429.64857778 -40.26921111 429.48815812 -35.75 427.75 C-26.7063867 418.7063867 -22.81547342 402.87486434 -18.203125 391.19140625 C-17.3400657 389.01724158 -16.47649188 386.84328109 -15.61244202 384.66950989 C-13.2978384 378.84273337 -10.9895472 373.01347762 -8.6829567 367.18352509 C-4.82402419 357.43215476 -0.9573321 347.68385582 2.90938377 337.93556976 C3.89133418 335.45978222 4.87307925 332.98391447 5.85448647 330.50791168 C12.22848276 314.42851276 18.65757502 298.37289179 25.16574478 282.34732628 C26.38575548 279.34164891 27.60348091 276.33505725 28.82028198 273.32807922 C29.21095541 272.3626995 29.60162884 271.39731977 30.00414085 270.40268612 C30.77573396 268.49585402 31.54724138 266.58898725 32.31865883 264.68208408 C34.53844433 259.19896236 36.7730612 253.72217949 39.01827908 248.24942684 C40.39631371 244.880304 41.76011556 241.50555597 43.12005806 238.12909508 C43.74454264 236.58735075 44.37503793 235.04802411 45.01222038 233.51148415 C49.88112651 222.16299492 49.88112651 222.16299492 50 210 C47.83701163 205.59391257 45.60319521 202.8012503 41 201 C34.66143741 200.13999402 29.75954417 200.3511429 25 205 Z M-111.984375 228.26953125 C-120.00737441 239.13789673 -121.0733929 250.92040045 -120 264 C-117.49780411 276.12492636 -109.80768742 285.7599904 -100 293 C-88.69386684 299.28950454 -76.39388749 300.93859707 -63.6875 298.31640625 C-52.19446565 294.38200102 -42.3075935 286.74341212 -36.359375 276.05078125 C-31.22393707 264.99778409 -29.60208599 251.68908284 -33.625 239.9375 C-39.14663775 227.37960858 -47.82510063 218.21919973 -60.5546875 212.875 C-79.8841957 205.95837087 -99.03933968 213.31032086 -111.984375 228.26953125 Z M28.015625 348.26953125 C19.99262559 359.13789673 18.9266071 370.92040045 20 384 C22.50219589 396.12492636 30.19231258 405.7599904 40 413 C51.30613316 419.28950454 63.60611251 420.93859707 76.3125 418.31640625 C87.80553435 414.38200102 97.6924065 406.74341212 103.640625 396.05078125 C108.77606293 384.99778409 110.39791401 371.68908284 106.375 359.9375 C100.85336225 347.37960858 92.17489937 338.21919973 79.4453125 332.875 C60.1158043 325.95837087 40.96066032 333.31032086 28.015625 348.26953125 Z " fill="#000000" transform="translate(201,1)"/>
<path d="M0 0 C3.19854523 1.51394137 5.49141466 3.52822828 8 6 C8.66644531 6.62648438 9.33289063 7.25296875 10.01953125 7.8984375 C13.84280768 11.59743917 17.36583523 15.51283096 20.828125 19.546875 C23.1764205 22.19926633 25.59460109 24.7749786 28.02539062 27.3515625 C33.48858238 33.14358417 38.76893998 38.98318633 43.73828125 45.2109375 C45.86799421 47.83721566 48.06077801 50.38818073 50.28442383 52.93432617 C56.72003799 60.31795699 62.6728976 67.9811228 68.45263672 75.88623047 C70.03404477 78.04650673 71.62806866 80.19709582 73.22265625 82.34765625 C106.40496904 127.37513325 135.94702227 180.07043749 128.3359375 237.8203125 C123.79569783 265.5252553 110.07361501 289.78866059 91 310 C90.32710937 310.73734375 89.65421875 311.4746875 88.9609375 312.234375 C75.38295019 326.57517059 56.1334145 338.82044941 37 344 C36.34 344 35.68 344 35 344 C35.01332367 343.17792053 35.01332367 343.17792053 35.0269165 342.3392334 C36.05925707 306.90553341 36.05925707 306.90553341 31 272 C30.58262121 270.15250449 30.1659744 268.30484348 29.75 266.45703125 C15.59612989 206.20863788 -18.5629153 151.21122633 -55 102 C-56.16208984 100.42798828 -56.16208984 100.42798828 -57.34765625 98.82421875 C-63.81339825 90.15237967 -70.41826167 81.58394504 -77 73 C-75.16816753 69.15097723 -72.76916718 65.94786907 -70.125 62.625 C-69.6410376 62.01358154 -69.1570752 61.40216309 -68.65844727 60.7722168 C-60.94927581 51.1014304 -52.82755529 41.7901211 -44.44921875 32.6953125 C-42.50735147 30.55832936 -40.60129439 28.40135375 -38.70703125 26.22265625 C-34.88440348 21.84364493 -30.96516743 17.56252141 -27 13.3125 C-26.32710938 12.57966797 -25.65421875 11.84683594 -24.9609375 11.09179688 C-17.46754734 3.07039756 -11.56241746 -2.14576239 0 0 Z " fill="#000000" transform="translate(383,1)"/>
<path d="M0 0 C4.61581142 2.18643699 6.72864085 4.49599804 9 9 C9.82885269 14.54808604 9.7240695 19.47140883 7.3125 24.5625 C4.21064779 27.8320199 1.61649202 29.75850523 -2.90234375 30.43359375 C-9.05071801 30.44150672 -13.31314296 30.4465054 -18 26 C-21.88937897 20.55860924 -21.79042609 15.48149391 -21 9 C-16.63929544 -0.20593186 -9.3488659 -1.1401056 0 0 Z " fill="#000000" transform="translate(271,361)"/>
<path d="M0 0 C4.61581142 2.18643699 6.72864085 4.49599804 9 9 C9.82885269 14.54808604 9.7240695 19.47140883 7.3125 24.5625 C4.21064779 27.8320199 1.61649202 29.75850523 -2.90234375 30.43359375 C-9.05071801 30.44150672 -13.31314296 30.4465054 -18 26 C-21.88937897 20.55860924 -21.79042609 15.48149391 -21 9 C-16.63929544 -0.20593186 -9.3488659 -1.1401056 0 0 Z " fill="#000000" transform="translate(131,241)"/>
</svg>