<?xml version="1.0" encoding="UTF-8"?>
<svg version="1.1" xmlns="http://www.w3.org/2000/svg" width="512" height="512">
<path d="M0 0 C2.1980588 0.01611552 4.3942803 0.00001064 6.59228516 -0.01904297 C36.34580351 -0.0628571 66.22318254 10.01539099 89.69775391 28.39111328 C90.62201172 29.09623047 91.54626953 29.80134766 92.49853516 30.52783203 C111.21733993 45.27517893 127.8018144 65.03950649 136.69775391 87.39111328 C136.69775391 88.38111328 136.69775391 89.37111328 136.69775391 90.39111328 C137.31199219 90.25108887 137.92623047 90.11106445 138.55908203 89.96679688 C146.77404492 88.26761563 154.83005566 87.99180036 163.19775391 88.01611328 C163.90296173 88.0166571 164.60816956 88.01720093 165.33474731 88.01776123 C176.86381742 88.05855477 187.63241979 89.01683728 198.69775391 92.39111328 C199.40319336 92.59478516 200.10863281 92.79845703 200.83544922 93.00830078 C232.50923989 102.32496731 259.25344805 124.90535527 275.01025391 153.76611328 C279.12451024 161.66519628 282.16469752 169.86442647 284.69775391 178.39111328 C284.90948242 179.08027832 285.12121094 179.76944336 285.33935547 180.47949219 C291.16567065 200.21601946 291.3799328 225.61804721 285.69775391 245.39111328 C285.35744141 246.61701172 285.01712891 247.84291016 284.66650391 249.10595703 C274.88433015 281.12935691 252.73213547 308.6631945 223.32275391 324.70361328 C212.68180998 330.2453078 201.37040892 334.00963901 189.69775391 336.70361328 C188.92568604 336.8834375 188.15361816 337.06326172 187.3581543 337.24853516 C182.56820297 338.21801628 178.30539432 338.39648699 173.42822266 338.01220703 C163.90689237 337.31262188 163.90689237 337.31262188 154.69775391 339.39111328 C148.61190158 344.7503364 145.59546843 352.62768814 142.33984375 359.88623047 C139.57180542 365.79434202 136.20454723 371.34285731 132.88525391 376.95361328 C131.62901963 379.12414256 130.37503728 381.29597706 129.12353516 383.46923828 C127.98167142 385.44323326 126.8397491 387.41719435 125.69775391 389.39111328 C125.21870605 390.22191406 124.7396582 391.05271484 124.24609375 391.90869141 C123.02997167 394.01201036 121.80379496 396.10900214 120.57275391 398.20361328 C119.93080078 399.30318359 119.28884766 400.40275391 118.62744141 401.53564453 C115.8917404 405.58381748 113.40619664 408.82163237 108.69775391 410.39111328 C103.64139439 410.92198752 99.81611604 410.98079513 95.26025391 408.57861328 C89.0981157 403.3182514 89.0981157 403.3182514 88.38476562 398.1027832 C87.97455188 389.82963485 90.58538562 384.6596298 94.82275391 377.70361328 C95.44496826 376.63941162 96.06718262 375.57520996 96.70825195 374.47875977 C98.01709784 372.2450377 99.33622379 370.01731065 100.66503906 367.79541016 C103.36321861 363.27662375 105.99992186 358.72376821 108.640625 354.17114258 C110.92052389 350.24756104 113.21874727 346.3349165 115.52124023 342.42456055 C116.28633043 341.102204 117.01452776 339.75756558 117.69775391 338.39111328 C101.83320136 338.12403168 85.97079051 337.95509673 70.10424995 337.90145779 C62.73599575 337.87428551 55.3705645 337.81558807 48.00341797 337.68139648 C41.57830117 337.56444522 35.15590524 337.50794405 28.72969234 337.52257591 C25.32872452 337.52824573 21.93389264 337.50465403 18.53415298 337.40850639 C4.89253054 336.4478305 4.89253054 336.4478305 -7.39259148 341.0440197 C-10.77424281 345.02851907 -12.76629687 349.40661344 -14.50723553 354.29705143 C-15.69480888 357.42512565 -17.35842717 360.1137995 -19.10302734 362.96533203 C-20.27366279 365.00305652 -21.44423545 367.0408171 -22.61474609 369.07861328 C-23.90069226 371.30547162 -25.18716066 373.53202846 -26.47412109 375.75830078 C-28.97749497 380.08911223 -31.46482559 384.42858267 -33.94287109 388.77392578 C-35.08291699 390.75082235 -36.22351527 392.72740051 -37.36474609 394.70361328 C-37.87626221 395.61006592 -38.38777832 396.51651855 -38.91479492 397.45043945 C-42.19034034 403.08342986 -45.32905023 407.40451535 -51.30224609 410.39111328 C-56.34447547 410.94430751 -60.20052551 410.9720205 -64.73974609 408.57861328 C-70.9018843 403.3182514 -70.9018843 403.3182514 -71.61523438 398.1027832 C-72.02544812 389.82963485 -69.41461438 384.6596298 -65.17724609 377.70361328 C-64.55503174 376.63941162 -63.93281738 375.57520996 -63.29174805 374.47875977 C-61.98290216 372.2450377 -60.66377621 370.01731065 -59.33496094 367.79541016 C-56.63678139 363.27662375 -54.00007814 358.72376821 -51.359375 354.17114258 C-49.07947611 350.24756104 -46.78125273 346.3349165 -44.47875977 342.42456055 C-43.71366957 341.102204 -42.98547224 339.75756558 -42.30224609 338.39111328 C-43.60198364 338.40110603 -43.60198364 338.40110603 -44.92797852 338.41130066 C-53.16400497 338.47184977 -61.3999548 338.51730756 -69.63615417 338.5465498 C-73.86869945 338.56208976 -78.10105815 338.58310956 -82.33349609 338.61743164 C-86.43138414 338.65044801 -90.52909474 338.66805356 -94.62710571 338.67574501 C-96.17691841 338.68121382 -97.72672333 338.69188827 -99.27645874 338.70830345 C-133.74719658 339.05832005 -164.07285036 324.94169954 -188.80224609 301.26611328 C-211.91879271 277.58896568 -223.52467121 246.83362491 -223.55224609 213.95361328 C-223.55292084 213.23424591 -223.55359558 212.51487854 -223.55429077 211.77371216 C-223.53873627 201.35583323 -223.20403338 191.488865 -220.30224609 181.39111328 C-219.96193359 180.16521484 -219.62162109 178.93931641 -219.27099609 177.67626953 C-209.46674936 145.58061047 -187.24556408 117.94222375 -157.67724609 102.01611328 C-141.11438482 93.39111328 -141.11438482 93.39111328 -133.30224609 93.39111328 C-133.13426514 92.83858887 -132.96628418 92.28606445 -132.79321289 91.71679688 C-131.03891438 86.17845238 -128.86916954 81.12552716 -126.11474609 76.01611328 C-125.51992432 74.90768066 -125.51992432 74.90768066 -124.91308594 73.77685547 C-121.5235395 67.5818408 -117.73009233 61.89970887 -113.30224609 56.39111328 C-112.90312012 55.88660645 -112.50399414 55.38209961 -112.09277344 54.86230469 C-94.28611461 32.47309983 -71.4052955 16.25130583 -44.30224609 7.01611328 C-43.36638672 6.69425049 -42.43052734 6.3723877 -41.46630859 6.04077148 C-27.85894137 1.63585235 -14.25911795 -0.12360649 0 0 Z M-78.30224609 64.39111328 C-79.02154297 65.04724609 -79.74083984 65.70337891 -80.48193359 66.37939453 C-93.89684903 78.95924495 -102.59793802 96.16292578 -108.25537109 113.48095703 C-110.49118871 117.56048993 -113.62987179 119.16915049 -117.94677734 120.59423828 C-119.33448548 120.94956377 -120.72391779 121.29820408 -122.11474609 121.64111328 C-145.50955331 127.98710399 -167.0005518 143.1813041 -179.38037109 164.22363281 C-191.79521122 186.34881212 -196.77494546 212.62952737 -190.20874023 237.52978516 C-183.0636184 261.76028638 -167.78081758 283.06812308 -145.55224609 295.54345703 C-122.68319075 307.81238474 -99.68007687 308.69490388 -74.22412109 308.64990234 C-71.62853904 308.65261738 -69.03295777 308.65618117 -66.43737793 308.66052246 C-60.15810183 308.66935182 -53.87887391 308.66752354 -47.59959602 308.66169718 C-42.49001805 308.65715502 -37.38045344 308.65657874 -32.27087402 308.65874481 C-31.53983955 308.65905128 -30.80880508 308.65935774 -30.05561805 308.6596735 C-28.56989956 308.66031304 -27.08418107 308.66096146 -25.59846258 308.66161868 C-11.71169157 308.66730305 2.1750529 308.66079393 16.06181955 308.65001795 C27.94177969 308.64108417 39.82170072 308.64263674 51.70166016 308.65185547 C65.54340634 308.6625917 79.38512935 308.66675391 93.22687912 308.66063094 C94.70671336 308.65999394 96.18654759 308.65936519 97.66638184 308.65874481 C98.39422827 308.65843626 99.1220747 308.65812771 99.87197709 308.65780981 C104.96726942 308.6560929 110.06254689 308.65897614 115.15783691 308.66370392 C122.03296076 308.66994377 128.90801012 308.66541452 135.78312683 308.65391541 C138.29481383 308.65128813 140.80650708 308.65200053 143.31819153 308.65644073 C172.24654492 308.70283611 201.00592151 306.42341145 223.69775391 286.39111328 C224.49310547 285.73755859 225.28845703 285.08400391 226.10791016 284.41064453 C243.33722853 269.79102199 254.43408948 248.72703415 257.69775391 226.39111328 C259.57533467 196.70979863 253.27754373 172.56063985 233.8581543 149.72705078 C219.08614685 133.03128435 196.48355945 120.84816377 174.12841797 119.2019043 C148.65526124 117.87456579 128.21116348 124.21018426 107.93994141 139.78955078 C103.2894799 143.111309 98.20483523 143.00015187 92.69775391 142.39111328 C88.93407618 140.61192017 87.19148725 139.09879774 84.82275391 135.70361328 C83.38903835 131.48211747 83.06229098 127.80676595 83.69775391 123.39111328 C85.19775391 120.45361328 85.19775391 120.45361328 86.69775391 118.39111328 C86.69775391 117.73111328 86.69775391 117.07111328 86.69775391 116.39111328 C87.28347168 116.10953369 87.86918945 115.8279541 88.47265625 115.5378418 C90.52464681 114.48032592 92.38887204 113.33511618 94.29931641 112.04345703 C94.95416016 111.60324219 95.60900391 111.16302734 96.28369141 110.70947266 C96.95658203 110.25378906 97.62947266 109.79810547 98.32275391 109.32861328 C99.66841654 108.42003615 101.01474071 107.51243781 102.36181641 106.60595703 C102.95430176 106.20497803 103.54678711 105.80399902 104.15722656 105.39086914 C105.69775391 104.39111328 105.69775391 104.39111328 107.69775391 103.39111328 C107.17399508 98.24875387 105.36344879 94.31121888 102.82275391 89.89111328 C102.42709229 89.19695312 102.03143066 88.50279297 101.6237793 87.78759766 C85.85122246 60.87660993 61.26573336 42.88702969 31.51025391 34.14111328 C-8.73255246 23.88816898 -48.81906947 35.95790734 -78.30224609 64.39111328 Z " fill="#000000" transform="translate(223.30224609375,-0.39111328125)"/>
<path d="M0 0 C3.95084519 2.96804788 5.80926906 6.38335773 7.1328125 11.0546875 C7.46272493 18.67964638 4.26660887 24.25130406 0.4453125 30.6171875 C-0.13629639 31.61532471 -0.71790527 32.61346191 -1.31713867 33.6418457 C-3.15350631 36.78769172 -5.01010172 39.92103881 -6.8671875 43.0546875 C-8.57387255 45.97312858 -10.27467068 48.89494597 -11.9753418 51.81689453 C-13.11768256 53.77757738 -14.26240323 55.73687544 -15.40942383 57.69482422 C-18.64747546 63.22390367 -21.85626641 68.76826037 -25.02734375 74.3359375 C-25.37894058 74.95306107 -25.73053741 75.57018463 -26.0927887 76.20600891 C-27.79428896 79.19421147 -29.49247205 82.18421547 -31.18676758 85.17651367 C-33.06396061 88.47898739 -34.95854889 91.77029127 -36.8671875 95.0546875 C-37.20673462 95.64123108 -37.54628174 96.22777466 -37.89611816 96.83209229 C-38.92994998 98.60719942 -39.9782908 100.37290359 -41.03125 102.13671875 C-41.64693848 103.17675049 -42.26262695 104.21678223 -42.89697266 105.28833008 C-45.36315199 108.75106589 -48.06117939 111.15168345 -51.8671875 113.0546875 C-57.06904288 113.57317309 -61.50279121 113.67486763 -66.3046875 111.4921875 C-70.52862865 107.47429226 -72.51302228 104.14426232 -73.4921875 98.3671875 C-72.98378398 88.82862348 -65.18589883 78.95189909 -60.4296875 70.9296875 C-59.18950514 68.82066464 -57.94994312 66.71127689 -56.7109375 64.6015625 C-56.07671875 63.52326172 -55.4425 62.44496094 -54.7890625 61.33398438 C-51.64234464 55.96473713 -48.53593751 50.57241472 -45.4296875 45.1796875 C-44.81577148 44.11580811 -44.20185547 43.05192871 -43.56933594 41.95581055 C-40.62607116 36.85341029 -37.68914747 31.74753905 -34.76832581 26.63226318 C-33.40322983 24.24258042 -32.03500133 21.85469859 -30.66647339 19.46697998 C-29.70432608 17.78525302 -28.74675494 16.10091056 -27.78930664 14.41650391 C-27.20270264 13.39347168 -26.61609863 12.37043945 -26.01171875 11.31640625 C-25.49971924 10.41881592 -24.98771973 9.52122559 -24.46020508 8.59643555 C-21.6118428 4.05171529 -19.11219565 0.44072281 -13.92578125 -1.5 C-9.21008931 -2.52009275 -4.33441071 -2.19440877 0 0 Z " fill="#000000" transform="translate(423.8671875,366.9453125)"/>
<path d="M0 0 C4.47161391 4.04574592 6.85053319 7.16750472 7.16796875 13.2734375 C7.03691468 20.77875596 3.40271145 26.21721216 -0.4375 32.4375 C-1.17097529 33.66570294 -1.90197084 34.89538978 -2.63061523 36.12646484 C-4.12963445 38.6533285 -5.64010234 41.17274874 -7.16015625 43.68701172 C-10.50831408 49.23974853 -13.71400318 54.87434511 -16.9375 60.5 C-18.16584183 62.62677869 -19.39501107 64.75307971 -20.625 66.87890625 C-22.89530139 70.80703056 -25.15888489 74.73885098 -27.41322327 78.67614746 C-28.43003531 80.45180815 -29.44811513 82.22673609 -30.46655273 84.00146484 C-31.73937239 86.22042482 -33.00988452 88.44071075 -34.27758789 90.66259766 C-45.14108003 109.57675385 -45.14108003 109.57675385 -51.375 111.375 C-56.38878365 112.01401164 -60.15178108 111.96395726 -64.75 109.75 C-69.09957809 105.81466744 -71.58589027 102.62620999 -72 96.6875 C-71.69457157 90.24486905 -68.6566583 85.77194407 -65.375 80.375 C-64.26509029 78.39331614 -63.17714394 76.40037651 -62.08886719 74.40673828 C-57.22092136 65.50697408 -52.12097613 56.74598204 -46.98828125 47.99707031 C-43.66745177 42.32906708 -40.37777218 36.64526647 -37.1328125 30.93359375 C-36.7772226 30.3082373 -36.42163269 29.68288086 -36.05526733 29.03857422 C-34.32585122 25.99581769 -32.60035468 22.95092985 -30.88037109 19.90283203 C-15.37945024 -7.40492049 -15.37945024 -7.40492049 0 0 Z " fill="#000000" transform="translate(108.375,367.625)"/>
<path d="M0 0 C4.34957809 3.93533256 6.83589027 7.12379001 7.25 13.0625 C7.02172462 17.18113644 6.05733868 19.88501637 4.0078125 23.44921875 C3.46366699 24.40900635 2.91952148 25.36879395 2.35888672 26.35766602 C1.7867041 27.35338623 1.21452148 28.34910645 0.625 29.375 C-0.47621448 31.35551805 -1.57515306 33.33730316 -2.671875 35.3203125 C-8.17752491 45.18681057 -13.6933472 55.04161562 -19.46679688 64.75439453 C-22.0522634 69.10869851 -24.5941954 73.48579708 -27.11328125 77.87890625 C-27.44315536 78.45378281 -27.77302948 79.02865936 -28.11289978 79.62095642 C-29.75332477 82.48019173 -31.39068314 85.3410646 -33.02319336 88.20483398 C-44.2026603 107.69643749 -44.2026603 107.69643749 -50.375 110.375 C-55.76384745 111.14023245 -59.96702593 111.07898703 -64.875 108.625 C-69.21879894 104.71558096 -71.06467719 101.81325063 -71.8125 95.9375 C-71.68966259 86.29366651 -63.72148462 76.31905628 -58.9375 68.25 C-57.69731764 66.14097714 -56.45775562 64.03158939 -55.21875 61.921875 C-54.58453125 60.84357422 -53.9503125 59.76527344 -53.296875 58.65429688 C-50.15015458 53.28504527 -47.04423409 47.89245224 -43.9375 42.5 C-43.32285889 41.4368457 -42.70821777 40.37369141 -42.07495117 39.27832031 C-39.12659838 34.17444265 -36.19249201 29.06358903 -33.30192566 23.92678833 C-31.94958242 21.52567401 -30.58972566 19.12885603 -29.22921753 16.73236084 C-28.27376128 15.04203674 -27.32923892 13.34554698 -26.38500977 11.64892578 C-25.80162842 10.6226709 -25.21824707 9.59641602 -24.6171875 8.5390625 C-24.1104248 7.63623535 -23.60366211 6.7334082 -23.08154297 5.80322266 C-17.60328035 -1.99174157 -8.51768109 -4.10110571 0 0 Z " fill="#000000" transform="translate(262.375,369.625)"/>
<path d="M0 0 C3.86098899 3.08556024 6.14347421 5.79257775 6.9296875 10.8046875 C6.85156181 19.44191659 3.26575729 25.4813748 -1.0078125 32.8046875 C-1.69449887 34.00630183 -2.37995519 35.20861989 -3.06420898 36.41162109 C-5.04721773 39.88718962 -7.0576132 43.3462319 -9.0703125 46.8046875 C-10.07335637 48.54662188 -11.07601409 50.28877873 -12.078125 52.03125 C-14.36382909 55.98359569 -16.69687519 59.90447765 -19.0703125 63.8046875 C-19.65296875 64.76890625 -20.235625 65.733125 -20.8359375 66.7265625 C-23.51451372 70.9744056 -25.44260201 73.5511937 -30.0703125 75.8046875 C-35.14754924 76.77111325 -40.0358917 76.98565933 -44.59375 74.33984375 C-48.3690031 71.11656809 -50.6320141 68.77845889 -51.37890625 63.7109375 C-51.79621446 55.92118416 -49.03193086 51.32270088 -45.0703125 44.8046875 C-43.94255491 42.78744566 -42.83694397 40.75887714 -41.73120117 38.72949219 C-39.54666912 34.73447089 -37.30769384 30.77027868 -35.0703125 26.8046875 C-34.53889648 25.85867676 -34.00748047 24.91266602 -33.45996094 23.93798828 C-31.78293526 20.96782849 -30.08554417 18.01017305 -28.3828125 15.0546875 C-27.86066162 14.12615967 -27.33851074 13.19763184 -26.80053711 12.2409668 C-23.4644079 6.50923797 -19.67697591 0.23648829 -12.99267578 -1.84106445 C-8.48124347 -2.67241933 -4.00597226 -2.3128821 0 0 Z " fill="#000000" transform="translate(304.0703125,436.1953125)"/>
<path d="M0 0 C4.17035325 3.85757676 6.10780341 7.33244496 6.62646484 13.10205078 C6.14456823 21.52500822 0.1442687 29.7318366 -4.0625 36.75 C-5.31309742 38.85902086 -6.56308938 40.96840085 -7.8125 43.078125 C-8.43253906 44.12162109 -9.05257812 45.16511719 -9.69140625 46.24023438 C-11.38589235 49.11866486 -13.04514644 52.01345394 -14.6875 54.921875 C-15.17532959 55.78240479 -15.66315918 56.64293457 -16.16577148 57.52954102 C-17.06964177 59.12825863 -17.96797292 60.730126 -18.85961914 62.33569336 C-21.94616169 67.76072861 -25.23556468 71.80287645 -30.5 75.3125 C-33.2421875 75.61328125 -33.2421875 75.61328125 -36.375 75.625 C-37.40367188 75.64175781 -38.43234375 75.65851563 -39.4921875 75.67578125 C-42.92128476 75.26161755 -44.73580205 74.35103631 -47.5 72.3125 C-51.26664772 67.42603809 -52.11129812 63.57262495 -52.00219727 57.44775391 C-51.01342101 51.27475209 -47.54535926 46.24470545 -44.3125 41 C-43.58144005 39.77658394 -42.85254278 38.55187316 -42.12573242 37.32592773 C-40.65031765 34.84439572 -39.16237397 32.37109014 -37.6640625 29.90332031 C-35.63547028 26.55317184 -33.66952976 23.16958667 -31.71875 19.7734375 C-30.58358843 17.80714437 -29.44818607 15.84099023 -28.3125 13.875 C-27.79727783 12.97676514 -27.28205566 12.07853027 -26.7512207 11.15307617 C-20.62556097 0.71755204 -12.49497534 -6.02436311 0 0 Z " fill="#000000" transform="translate(144.5,436.6875)"/>
</svg>
