<?xml version="1.0" encoding="UTF-8"?>
<svg version="1.1" xmlns="http://www.w3.org/2000/svg" width="512" height="512">
<path d="M0 0 C0.71936737 -0.00067474 1.43873474 -0.00134949 2.17990112 -0.00204468 C12.59778005 0.01350982 22.46474828 0.34821271 32.5625 3.25 C33.78839844 3.5903125 35.01429688 3.930625 36.27734375 4.28125 C56.07163307 10.32780277 72.73252905 20.96047989 87.5625 35.25 C88.21992188 35.84425781 88.87734375 36.43851563 89.5546875 37.05078125 C102.91854064 49.46007345 112.65607107 68.84327224 117.5625 86.25 C117.5625 87.24 117.5625 88.23 117.5625 89.25 C118.25472656 89.26417969 118.94695312 89.27835937 119.66015625 89.29296875 C139.4357167 90.25699475 155.89139336 99.43774624 169.5625 113.25 C170.56410156 114.21873047 170.56410156 114.21873047 171.5859375 115.20703125 C183.51389434 127.59375566 189.83816512 146.20296859 189.625 163.125 C189.62048828 163.81335938 189.61597656 164.50171875 189.61132812 165.2109375 C189.59966336 166.89066335 189.58173271 168.57034375 189.5625 170.25 C190.28824219 170.50652344 191.01398438 170.76304687 191.76171875 171.02734375 C204.41522278 176.55111887 214.31065384 189.61341445 219.75 201.94140625 C226.72296987 219.96345706 226.29140829 239.32716536 219.4375 257.375 C211.29292615 275.52296935 197.92775177 287.63382611 179.6796875 295.20703125 C170.31134701 298.34155119 161.43238267 298.53886601 151.66134644 298.51742554 C150.04322063 298.52116565 148.42509664 298.52576861 146.80697548 298.53115618 C142.37542947 298.54335718 137.94395912 298.54312914 133.51240015 298.54076743 C128.72693889 298.54035853 123.94150164 298.55140551 119.15605164 298.56088257 C109.7855429 298.57747807 100.41505932 298.58299148 91.04453711 298.58410732 C83.42473909 298.58505857 75.80494936 298.58917269 68.18515396 298.59550858 C46.56665937 298.61311771 24.94818462 298.62234806 3.32968281 298.62084763 C2.16482303 298.62076772 0.99996325 298.6206878 -0.20019531 298.62060547 C-1.36648275 298.62052371 -2.53277018 298.62044195 -3.73439966 298.62035771 C-22.62861838 298.6195451 -41.52275733 298.63867737 -60.41695298 298.6668822 C-79.83205908 298.69563517 -99.2471263 298.70942114 -118.66225421 298.70769465 C-129.55641669 298.70703154 -140.45049556 298.71248906 -151.34463882 298.73405075 C-160.62157167 298.75229438 -169.89838301 298.75658383 -179.17532606 298.7430319 C-183.90430422 298.73651808 -188.63304948 298.73632749 -193.36200523 298.7537384 C-197.69996431 298.76954479 -202.03750729 298.76652895 -206.37545668 298.74917014 C-207.93601138 298.74611678 -209.49659774 298.7496691 -211.05711509 298.76089029 C-233.30270627 298.91012316 -251.43159763 291.65241645 -267.61328125 276.16796875 C-281.47628496 261.65892215 -287.8470759 242.5179455 -287.73779297 222.72680664 C-287.20895129 201.22772473 -277.6517282 183.55368823 -262.41796875 168.82421875 C-248.92997631 157.17469448 -232.12144956 150.76704213 -214.375 151.125 C-213.50939453 151.13402344 -212.64378906 151.14304688 -211.75195312 151.15234375 C-209.64701221 151.17560277 -207.54221658 151.21145992 -205.4375 151.25 C-205.26734375 150.57195312 -205.0971875 149.89390625 -204.921875 149.1953125 C-199.12411334 126.9294406 -186.03412438 107.67099691 -166.4375 95.25 C-150.08516621 85.66980801 -133.34005767 81.24632437 -114.4375 82.25 C-114.1075 81.095 -113.7775 79.94 -113.4375 78.75 C-103.81155723 50.14205792 -81.99998165 25.58319518 -55.14453125 12.01953125 C-37.42178755 3.53349216 -19.56819846 0.01641091 0 0 Z M-66.35546875 58.79296875 C-77.22174866 71.61640226 -83.90687117 85.74954705 -88.22143555 101.90478516 C-89.62009489 106.82306826 -90.84763145 109.5114483 -95.4375 112.25 C-97.46484375 113.11328125 -97.46484375 113.11328125 -99.375 113.5625 C-100.00277344 113.72363281 -100.63054687 113.88476562 -101.27734375 114.05078125 C-104.12500084 114.31340424 -106.61800697 113.73334166 -109.4375 113.25 C-120.36934768 112.41412341 -130.18905517 113.05050158 -140.4375 117.25 C-141.72333984 117.74113281 -141.72333984 117.74113281 -143.03515625 118.2421875 C-155.69810714 123.74083813 -166.82029838 135.78966215 -172.25 148.3125 C-174.87327993 155.13302781 -176.40002157 161.08004821 -176.875 168.375 C-177.31756933 174.33093298 -178.47447279 178.0490301 -182.5 182.5625 C-187.26027679 185.29712709 -192.38602252 186.06579263 -197.74609375 184.6328125 C-198.51050781 184.36210937 -199.27492187 184.09140625 -200.0625 183.8125 C-209.53503619 180.59034596 -220.73876437 180.99377678 -229.91796875 184.9296875 C-242.1537351 191.34160847 -250.8004457 200.1149964 -255.4375 213.25 C-258.44902505 225.41119032 -256.14098892 237.62831338 -249.73828125 248.26171875 C-243.26235374 258.16035869 -233.89966159 264.31341315 -222.4375 267.25 C-214.80318792 268.51487251 -207.18464812 268.3926616 -199.46488953 268.38371277 C-197.9355232 268.38558255 -196.40615735 268.38788392 -194.87679225 268.39057809 C-190.68611443 268.39668179 -186.49545661 268.39656418 -182.30477536 268.39538372 C-177.78046114 268.39517935 -173.25615328 268.40070188 -168.73184204 268.40544128 C-159.87255322 268.4137404 -151.01327105 268.41649579 -142.15397867 268.41705366 C-134.95174524 268.41752914 -127.749514 268.4195855 -120.54728127 268.42275429 C-100.1200446 268.4315586 -79.69281318 268.43617398 -59.2655746 268.43542381 C-58.16481242 268.43538386 -57.06405025 268.4353439 -55.92993164 268.43530273 C-54.82782299 268.43526185 -53.72571433 268.43522097 -52.59020845 268.43517885 C-34.72789335 268.43477238 -16.86559932 268.4443429 0.99670968 268.4584411 C19.34502892 268.47280845 37.69333787 268.4797111 56.04166287 268.47884732 C66.33988567 268.47851549 76.63808637 268.48125652 86.93630409 268.49202538 C95.70390686 268.50113505 104.47147751 268.50330175 113.23908297 268.49651595 C117.71028713 268.49325321 122.18142967 268.49318523 126.65262794 268.5018692 C130.75037516 268.50974586 134.84801201 268.50829088 138.94575658 268.49958507 C140.42349661 268.49805266 141.90124493 268.49985643 143.37897519 268.50544515 C157.39695252 268.55492453 170.78099287 267.72300441 181.921875 258.2421875 C190.4885414 249.25684943 193.98617509 238.73715244 193.8359375 226.5078125 C193.04077773 217.03405177 189.30224794 208.9364693 182.5625 202.25 C178.14720176 198.65538916 173.37479291 196.12177663 168.25 193.6875 C163.55653889 191.42822524 160.91142968 188.94785936 158.5625 184.25 C158.52483732 182.34537058 158.54983681 180.43934553 158.60546875 178.53515625 C158.62673828 177.37306641 158.64800781 176.21097656 158.66992188 175.01367188 C158.72255319 172.58107835 158.78729687 170.14871115 158.86523438 167.71679688 C159.0553315 154.89580162 155.0981731 143.33973536 146.3046875 133.80078125 C134.75512979 122.84861445 123.09827372 119.94214603 107.56835938 119.859375 C101.81400547 119.71758394 97.91447904 119.41866635 93.5625 115.25 C91.04628746 110.56425309 89.85734413 105.79094885 88.6875 100.625 C83.00032877 77.04165109 70.21970243 57.40885849 49.5625 44.25 C12.42746737 22.45905784 -36.33146075 26.98645935 -66.35546875 58.79296875 Z " fill="#000000" transform="translate(287.4375,-0.25)"/>
<path d="M0 0 C5.13308791 2.61320839 8.1797908 5.53937241 10 11 C10.1464714 12.55266653 10.24694074 14.10995662 10.31640625 15.66796875 C10.35830078 16.56064453 10.40019531 17.45332031 10.44335938 18.37304688 C10.48267578 19.30181641 10.52199219 20.23058594 10.5625 21.1875 C10.60568359 22.12787109 10.64886719 23.06824219 10.69335938 24.03710938 C10.79938665 26.35792854 10.90145029 28.67885325 11 31 C12.02738281 30.3503125 13.05476563 29.700625 14.11328125 29.03125 C27.7727787 20.6812088 27.7727787 20.6812088 35.7265625 21.43359375 C40.84671555 22.70923326 44.27880272 25.56015181 47 30 C48.35682449 34.07047347 48.52472254 37.74391717 48 42 C44.58521825 48.70309011 39.071945 52.10174571 32.6875 55.75 C31.61886719 56.36359375 30.55023438 56.9771875 29.44921875 57.609375 C28.23685547 58.29773438 28.23685547 58.29773438 27 59 C28.10859375 59.66386719 29.2171875 60.32773437 30.359375 61.01171875 C31.82321338 61.90315879 33.28673865 62.79511311 34.75 63.6875 C35.47960937 64.12255859 36.20921875 64.55761719 36.9609375 65.00585938 C42.11391871 68.16791602 46.01567408 71.04702224 48 77 C48.44556362 83.79484527 47.43070797 87.63440435 43.375 93.25 C39.31400994 96.24230846 34.86772308 97.40375885 29.8359375 96.6953125 C23.01696225 94.68681433 17.00458072 90.7084128 11 87 C10.98541748 87.57443848 10.97083496 88.14887695 10.95581055 88.74072266 C10.88086275 91.36945696 10.78436006 93.99698552 10.6875 96.625 C10.66494141 97.52863281 10.64238281 98.43226563 10.61914062 99.36328125 C10.36011504 105.815373 9.33905348 110.29546941 5 115.3125 C1.0355404 118.65751279 -3.31734026 118.3309493 -8.26953125 118.28515625 C-13.06257952 117.7845947 -15.72900246 115.44630755 -18.8125 111.9375 C-20.76482655 108.75212511 -21.15356074 105.98442335 -21.31640625 102.33203125 C-21.37924805 100.99301758 -21.37924805 100.99301758 -21.44335938 99.62695312 C-21.48267578 98.69818359 -21.52199219 97.76941406 -21.5625 96.8125 C-21.60568359 95.87212891 -21.64886719 94.93175781 -21.69335938 93.96289062 C-21.79938665 91.64207146 -21.90145029 89.32114675 -22 87 C-23.07378906 87.63808594 -24.14757812 88.27617187 -25.25390625 88.93359375 C-26.6897566 89.76882696 -28.12597419 90.60342907 -29.5625 91.4375 C-30.26697266 91.85837891 -30.97144531 92.27925781 -31.69726562 92.71289062 C-36.74136456 95.61847757 -41.28003034 97.5727981 -47.2578125 96.65234375 C-52.35225273 94.70196182 -54.89925512 92.51017437 -58 88 C-59.676194 82.97141801 -59.60642735 78.65969589 -57.8125 73.75 C-54.46288552 68.66782631 -49.31972356 65.83963291 -44.1875 62.75 C-43.59001953 62.38648438 -42.99253906 62.02296875 -42.37695312 61.6484375 C-40.91985204 60.76252004 -39.4601898 59.88081727 -38 59 C-39.02480469 58.41992188 -40.04960937 57.83984375 -41.10546875 57.2421875 C-42.46649652 56.45373004 -43.82715411 55.66463334 -45.1875 54.875 C-46.19780273 54.30652344 -46.19780273 54.30652344 -47.22851562 53.7265625 C-52.66099246 50.54657606 -56.93799062 47.18602814 -59 41 C-59.3684431 35.38124276 -59.19190228 31.84288621 -56 27 C-51.17566544 22.64633223 -47.87500458 21.38432092 -41.44140625 21.3671875 C-34.25515533 22.68860935 -28.10075021 27.1420601 -22 31 C-21.98541748 30.42556152 -21.97083496 29.85112305 -21.95581055 29.25927734 C-21.88086275 26.63054304 -21.78436006 24.00301448 -21.6875 21.375 C-21.66494141 20.47136719 -21.64238281 19.56773437 -21.61914062 18.63671875 C-21.35553993 12.07066505 -20.52815251 7.33854108 -15.5 2.6875 C-10.64270951 -0.59117108 -5.68601499 -0.64654065 0 0 Z " fill="#000000" transform="translate(402,394)"/>
<path d="M0 0 C4.68308789 4.23707952 6.78208401 7.25983458 7.234375 13.5546875 C7.30027335 15.45255989 7.34669803 17.3511948 7.375 19.25 C7.40464844 20.22453125 7.43429688 21.1990625 7.46484375 22.203125 C7.53515864 24.59383127 7.58804234 26.98358434 7.625 29.375 C8.60082031 28.80910156 9.57664062 28.24320312 10.58203125 27.66015625 C11.86710525 26.91912818 13.15226604 26.17825061 14.4375 25.4375 C15.08009766 25.06431641 15.72269531 24.69113281 16.38476562 24.30664062 C22.65532636 20.70025595 27.44887906 19.58014105 34.625 20.375 C39.46358548 22.70468931 42.29531069 25.53641452 44.625 30.375 C45.27480519 34.92363634 45.21427283 38.90181792 43.5 43.1875 C38.57677149 48.9312666 32.28965787 52.88684273 25.625 56.375 C24.965 56.375 24.305 56.375 23.625 56.375 C27.12028371 60.38027173 31.955414 62.60766341 36.49609375 65.2421875 C40.1849697 67.75670219 42.62825958 70.38151915 44.625 74.375 C45.38750806 81.21257228 44.79494994 85.85263387 40.625 91.375 C36.87735614 94.41363016 33.41824219 95.21522526 28.625 95.375 C20.86013947 93.96864761 14.23433861 89.45690963 7.625 85.375 C7.6156543 85.97973145 7.60630859 86.58446289 7.59667969 87.20751953 C7.54268278 89.9724788 7.45909606 92.73579906 7.375 95.5 C7.36082031 96.45132813 7.34664063 97.40265625 7.33203125 98.3828125 C7.07100874 105.90026069 5.4287752 109.04551695 0.625 114.75 C-4.19877088 117.3628759 -9.01674278 117.10105111 -14.375 116.375 C-18.38730528 114.40404302 -21.08740216 112.22779636 -23.375 108.375 C-24.27288041 105.46566684 -24.49317371 102.86470931 -24.47265625 99.828125 C-24.46943359 98.98378906 -24.46621094 98.13945312 -24.46289062 97.26953125 C-24.45032227 95.96048828 -24.45032227 95.96048828 -24.4375 94.625 C-24.43298828 93.73683594 -24.42847656 92.84867187 -24.42382812 91.93359375 C-24.412074 89.74732671 -24.39564249 87.56119821 -24.375 85.375 C-25.4371875 86.01308594 -26.499375 86.65117187 -27.59375 87.30859375 C-29.02041517 88.14394375 -30.44752233 88.9785392 -31.875 89.8125 C-32.57109375 90.23337891 -33.2671875 90.65425781 -33.984375 91.08789062 C-39.46984534 94.26235263 -44.27192585 95.98059469 -50.73046875 95.02734375 C-55.38884695 93.20968232 -59.0982478 91.01607179 -61.375 86.375 C-62.78222595 81.43315356 -62.99227026 76.91746579 -61 72.125 C-58.24133765 67.39722349 -53.99460875 65.06516138 -49.375 62.375 C-46.70111418 60.71982702 -44.03755115 59.04833374 -41.375 57.375 C-42.48359375 56.71113281 -43.5921875 56.04726563 -44.734375 55.36328125 C-46.19821338 54.47184121 -47.66173865 53.57988689 -49.125 52.6875 C-49.85460937 52.25244141 -50.58421875 51.81738281 -51.3359375 51.36914062 C-56.18292089 48.39485536 -60.34340746 45.66857411 -62.125 39.98046875 C-62.76608129 33.78001064 -62.19251672 29.42622639 -58.375 24.375 C-55.03425407 21.11573568 -52.05597048 20.02014621 -47.5 19.5625 C-39.19221506 19.78082353 -32.18808512 25.06659987 -25.375 29.375 C-25.33632812 27.456875 -25.33632812 27.456875 -25.296875 25.5 C-25.24055525 23.79163435 -25.18320882 22.08330233 -25.125 20.375 C-25.11082031 19.53582031 -25.09664062 18.69664062 -25.08203125 17.83203125 C-24.85494823 11.97328925 -23.78861144 7.23466521 -20.375 2.375 C-14.5506931 -2.83409484 -6.92493348 -3.33422723 0 0 Z " fill="#000000" transform="translate(124.375,395.625)"/>
<path d="M0 0 C4.52488127 2.14336481 6.89879323 4.46581697 9 9 C10.24060475 13.5885381 10.11385488 18.09970204 10.0625 22.8125 C10.05798828 23.60076172 10.05347656 24.38902344 10.04882812 25.20117188 C10.03711312 27.13414761 10.01917998 29.06708393 10 31 C11.01578125 30.3503125 12.0315625 29.700625 13.078125 29.03125 C21.20572196 24.02408743 28.12075902 19.81665677 38 22 C42.87268436 24.0882933 45.26047695 27.04289172 47.37109375 31.78515625 C48.84703214 36.98302624 47.9166486 41.28410606 45.4140625 45.96875 C42.47474542 49.65954297 39.43976847 51.58564765 35.375 53.875 C34.694375 54.2771875 34.01375 54.679375 33.3125 55.09375 C28.31058673 58 28.31058673 58 26 58 C26 58.66 26 59.32 26 60 C26.87398438 60.26296875 27.74796875 60.5259375 28.6484375 60.796875 C35.13264522 63.12453931 41.02875858 66.79408698 45.625 71.9375 C48.04165167 77.32004236 48.68825162 81.67554646 46.875 87.25 C45.318299 90.8846826 43.39064493 92.88084692 40 95 C34.81553448 96.72815517 30.14277411 97.37378296 24.96923828 95.11230469 C20.16830738 92.65012372 15.57268789 89.85934826 11 87 C10.96261719 88.12277344 10.92523438 89.24554688 10.88671875 90.40234375 C10.09412231 109.90587769 10.09412231 109.90587769 4.5 115.5 C-0.47527996 118.48516798 -5.33557743 118.65290852 -11 118 C-15.65702344 115.54447855 -19.31667974 113.04996079 -21 108 C-21.14715199 106.37432921 -21.24721867 104.74413143 -21.31640625 103.11328125 C-21.35830078 102.17548828 -21.40019531 101.23769531 -21.44335938 100.27148438 C-21.48267578 99.29501953 -21.52199219 98.31855469 -21.5625 97.3125 C-21.60568359 96.32443359 -21.64886719 95.33636719 -21.69335938 94.31835938 C-21.79941654 91.87904454 -21.90147714 89.43962887 -22 87 C-22.97582031 87.56589844 -23.95164063 88.13179688 -24.95703125 88.71484375 C-26.24210525 89.45587182 -27.52726604 90.19674939 -28.8125 90.9375 C-29.77639648 91.49727539 -29.77639648 91.49727539 -30.75976562 92.06835938 C-37.07580189 95.70089837 -41.79232289 96.64684282 -49 96 C-52.73113266 94.37776841 -55.32658788 92.05532814 -58 89 C-58.99407938 86.01776186 -59.23040978 83.81124878 -59.3125 80.6875 C-59.34988281 79.76324219 -59.38726562 78.83898437 -59.42578125 77.88671875 C-58.77085015 73.44640608 -56.86883487 70.44496436 -53.29711914 67.68334961 C-51.35929592 66.41979019 -49.39051844 65.26017705 -47.375 64.125 C-46.694375 63.7228125 -46.01375 63.320625 -45.3125 62.90625 C-40.31058673 60 -40.31058673 60 -38 60 C-38 59.34 -38 58.68 -38 58 C-38.721875 57.72800781 -39.44375 57.45601563 -40.1875 57.17578125 C-46.90250771 54.36853497 -53.2973933 50.61278864 -58 45 C-59.94892318 39.15323045 -59.99344445 33.06047738 -57.3125 27.5 C-53.61309858 23.50064712 -50.16171541 21.52874364 -44.6875 21.25 C-36.00023688 21.38014626 -29.09604163 26.461415 -22 31 C-21.9906543 30.40050537 -21.98130859 29.80101074 -21.97167969 29.18334961 C-21.91757724 26.43393733 -21.83401203 23.68615448 -21.75 20.9375 C-21.73582031 19.99455078 -21.72164062 19.05160156 -21.70703125 18.08007812 C-21.49193302 11.90675885 -20.75439428 7.97780897 -17 3 C-11.86837629 -1.12046633 -6.29231206 -0.76735513 0 0 Z " fill="#000000" transform="translate(262,323)"/>
</svg>
