<?xml version="1.0" encoding="UTF-8"?>
<svg version="1.1" xmlns="http://www.w3.org/2000/svg" width="512" height="512">
<path d="M0 0 C1.02480469 0.50144531 2.04960937 1.00289062 3.10546875 1.51953125 C11.52465429 5.81462352 18.78281241 10.96117421 26 17 C27.010625 17.84433594 28.02125 18.68867188 29.0625 19.55859375 C55.08728182 42.36416428 69.595666 74.69338349 72 109 C72.02516194 111.33319766 72.0332436 113.66690349 72 116 C72.70382812 116.08636719 73.40765625 116.17273438 74.1328125 116.26171875 C96.88446792 119.49922585 115.88025268 130.91640335 130 149 C143.8031812 169.1082644 148.36578748 192.48498299 144.3828125 216.53515625 C139.00510173 238.78364994 124.93330671 257.85929546 105.69238281 269.97900391 C88.23332395 280.51186371 70.7086268 281.60188205 50.90625 281.609375 C48.61982062 281.6243863 46.33340197 281.64111954 44.04699707 281.65948486 C38.08281913 281.70283929 32.11878737 281.72308619 26.15447998 281.73822021 C20.04691029 281.75790725 13.93949585 281.7998636 7.83203125 281.83984375 C-4.1119572 281.9147998 -16.05583288 281.96323701 -28 282 C-32.95 292.395 -32.95 292.395 -38 303 C-8.795 303.495 -8.795 303.495 21 304 C17.09129657 308.560154 13.63374366 312.42963071 9.25 316.375 C8.46967407 317.08088257 8.46967407 317.08088257 7.67358398 317.80102539 C6.11961104 319.20508063 4.56056361 320.60327776 3 322 C1.3540712 323.47906044 -0.29176804 324.95822054 -1.9375 326.4375 C-2.74058594 327.15808594 -3.54367187 327.87867188 -4.37109375 328.62109375 C-7.43404593 331.39276964 -10.46856037 334.19395931 -13.5 337 C-18.12352611 341.27974955 -22.78092335 345.51758608 -27.47265625 349.72265625 C-30.33082203 352.29809775 -33.16710261 354.89685764 -36 357.5 C-40.45332617 361.59169207 -44.93659888 365.64822977 -49.4375 369.6875 C-52.82398321 372.74359461 -56.18244814 375.82985612 -59.54125977 378.91625977 C-62.65633125 381.77602204 -65.78851675 384.61515359 -68.9375 387.4375 C-72.82370598 390.92448097 -76.66842807 394.45331985 -80.5 398 C-85.12352611 402.27974955 -89.78092335 406.51758608 -94.47265625 410.72265625 C-97.33082203 413.29809775 -100.16710261 415.89685764 -103 418.5 C-107.45332617 422.59169207 -111.93659888 426.64822977 -116.4375 430.6875 C-119.82398321 433.74359461 -123.18244814 436.82985612 -126.54125977 439.91625977 C-129.65633125 442.77602204 -132.78851675 445.61515359 -135.9375 448.4375 C-139.82370598 451.92448097 -143.66842807 455.45331985 -147.5 459 C-152.12352611 463.27974955 -156.78092335 467.51758608 -161.47265625 471.72265625 C-164.3308254 474.29810079 -167.16678671 476.89719863 -170 479.5 C-171.51326011 480.88731626 -173.02683874 482.27428411 -174.54052734 483.66113281 C-175.9416794 484.9464988 -177.34004217 486.23490334 -178.73828125 487.5234375 C-183.30794486 491.69784948 -187.86554622 495.53982463 -193 499 C-192.35455849 491.96718842 -190.62879734 485.42187422 -188.73828125 478.62890625 C-188.21769825 476.73090402 -187.69711672 474.83290138 -187.1765852 472.93488503 C-186.61532582 470.89250354 -186.05135135 468.85088959 -185.48657227 466.80947876 C-184.29613043 462.50623628 -183.11312421 458.20097315 -181.93164062 453.89526367 C-181.51944782 452.39332358 -181.10724678 450.89138574 -180.69503784 449.38945007 C-180.48699398 448.6313825 -180.27895012 447.87331493 -180.0646019 447.09227562 C-179.41765592 444.73603172 -178.76996224 442.37999442 -178.12210083 440.02400208 C-174.71828642 427.64209251 -171.34353508 415.25240968 -167.98046875 402.859375 C-167.7304693 401.93816801 -167.48046986 401.01696102 -167.22289467 400.06783867 C-165.72712254 394.55560505 -164.23202123 389.04318965 -162.73714828 383.53071213 C-160.83529508 376.51768564 -158.93274921 369.50484746 -157.02912331 362.49230194 C-156.39270118 360.14725541 -155.75684077 357.80205709 -155.12101746 355.45684814 C-154.73435198 354.03217832 -154.34766019 352.60751563 -153.9609375 351.18286133 C-153.62884277 349.95851883 -153.29674805 348.73417633 -152.95458984 347.47273254 C-151.9932057 343.97528279 -150.9964622 340.48761771 -150 337 C-167.16 336.67 -184.32 336.34 -202 336 C-193.94763514 307.24155405 -193.94763514 307.24155405 -190.0625 294.9375 C-189.66046244 293.65440488 -189.25877113 292.37120121 -188.85742188 291.08789062 C-187.90828886 288.05752617 -186.95589064 285.02823806 -186 282 C-186.8359734 281.99780016 -186.8359734 281.99780016 -187.68883514 281.99555588 C-201.32231 281.95831676 -214.95553663 281.89883168 -228.58881378 281.81609726 C-235.1821028 281.77674214 -241.77526064 281.74449508 -248.36865234 281.72900391 C-254.7425295 281.71375844 -261.11604574 281.67917354 -267.48976135 281.63169098 C-269.91033271 281.61695824 -272.33095561 281.60896369 -274.75157166 281.60811615 C-291.04542406 281.59668303 -306.62200461 281.20221784 -321.3125 273.25 C-321.97000244 272.90638428 -322.62750488 272.56276855 -323.30493164 272.20874023 C-342.02133327 262.17532312 -355.57653913 246.89596683 -363 227 C-363.391875 225.98808594 -363.78375 224.97617188 -364.1875 223.93359375 C-370.84153625 203.62492061 -368.46044353 180.7276841 -359.25 161.75 C-349.19641687 142.16195567 -333.72345712 127.6866036 -313 120 C-304.77381916 117.35782279 -296.69576852 115.37887368 -288 116 C-287.95875 114.845 -287.9175 113.69 -287.875 112.5 C-285.65327976 92.69226885 -272.51196371 74.46286553 -257.36328125 62.35546875 C-240.38657364 49.99447788 -218.72941992 44.6319962 -197.9609375 47.49609375 C-188.90911172 48.95960198 -180.51816435 51.63266316 -172 55 C-171.5875 54.24976562 -171.175 53.49953125 -170.75 52.7265625 C-166.72030433 45.58464651 -162.34475299 39.21227819 -157 33 C-156.2884375 32.16597656 -155.576875 31.33195312 -154.84375 30.47265625 C-116.79905816 -12.99742298 -51.80357824 -26.16418062 0 0 Z M-132.58203125 51.921875 C-143.90483721 65.58449686 -158 89.04496684 -158 107 C-161.76608122 103.76867956 -165.48927275 100.50633109 -169.07421875 97.07421875 C-181.74475013 84.98781006 -194.07101462 77.56565262 -212.0703125 77.78515625 C-225.49973617 78.76998065 -236.96543808 85.25178361 -246 95 C-255.30164135 106.70263864 -257.65034966 119.16124218 -257.25 133.8125 C-257.23195313 135.08931641 -257.21390625 136.36613281 -257.1953125 137.68164062 C-257.14876649 140.7885869 -257.08340346 143.8938625 -257 147 C-258.02246826 146.97905273 -259.04493652 146.95810547 -260.09838867 146.93652344 C-263.95436145 146.86318149 -267.81027501 146.81786456 -271.66674805 146.78027344 C-273.32408066 146.76036939 -274.98134506 146.73323586 -276.63842773 146.69824219 C-293.67485048 146.34793171 -308.33086201 149.43550055 -321.34765625 161.2578125 C-332.76945292 173.30065249 -336.52410262 187.09016907 -336.27734375 203.15234375 C-335.79033082 215.67172584 -329.39404523 227.01158615 -321.0390625 236.12109375 C-312.60348087 243.89411054 -300.69323708 250.13265238 -289.03924561 250.12025452 C-288.04087677 250.12162918 -287.04250793 250.12300385 -286.0138855 250.12442017 C-284.92487946 250.12082489 -283.83587341 250.11722961 -282.71386719 250.11352539 C-280.98660904 250.11374443 -280.98660904 250.11374443 -279.22445679 250.1139679 C-275.41524375 250.11327078 -271.6060795 250.1054877 -267.796875 250.09765625 C-265.15700304 250.09579136 -262.51713073 250.09436779 -259.8772583 250.09336853 C-253.63708966 250.09026147 -247.39693855 250.08205651 -241.15677762 250.07201904 C-234.05162297 250.06083849 -226.94646747 250.05534256 -219.84130621 250.05032361 C-205.22752843 250.03987338 -190.61376446 250.02228603 -176 250 C-174.14556297 245.14795068 -172.41799837 240.31526168 -170.9152832 235.34033203 C-170.53511551 234.08608429 -170.15494781 232.83183655 -169.76325989 231.5395813 C-169.35896049 230.19570043 -168.95480425 228.85177649 -168.55078125 227.5078125 C-168.12923916 226.11151532 -167.70753953 224.7152657 -167.28569031 223.31906128 C-166.40737587 220.40984716 -165.53099725 217.50005899 -164.65600586 214.58984375 C-163.53325784 210.85618472 -162.40556408 207.1240406 -161.27644062 203.39230537 C-160.40716293 200.51737941 -159.54050318 197.6416695 -158.67464256 194.76571274 C-158.2596006 193.38831851 -157.84373198 192.0111731 -157.42702675 190.63428116 C-156.84752773 188.71809249 -156.27193229 186.80072458 -155.6965332 184.88330078 C-155.36804886 183.79268341 -155.03956451 182.70206604 -154.7011261 181.57839966 C-153.91253502 179.12368413 -153.91253502 179.12368413 -154 177 C-96.25 177 -38.5 177 21 177 C14.07 191.355 14.07 191.355 7 206 C4.67061379 210.97318219 2.3490422 215.94522267 0.0625 220.9375 C-3.78108995 229.2844835 -7.68503106 237.57364325 -11.92578125 245.7265625 C-13.142406 247.88230771 -13.142406 247.88230771 -13 250 C-2.12469896 250.09304145 8.75050602 250.16393739 19.62612534 250.20724869 C24.67716368 250.22804521 29.72792794 250.2562165 34.77880859 250.30175781 C39.66123363 250.34550034 44.5433965 250.36919665 49.4260025 250.37950897 C51.28057222 250.38684968 53.13512902 250.4011832 54.98958588 250.42292023 C72.55472745 250.62045705 86.78172809 247.27355141 100.12109375 235.0390625 C111.80729129 222.35674417 114.82411941 207.90332706 114.17919922 191.32470703 C113.28983492 179.78720447 106.32110665 167.89199128 98 160 C87.80724746 151.54257271 76.53249213 146.8041682 63.29296875 146.90234375 C62.56757401 146.9037587 61.84217926 146.90517365 61.09480286 146.90663147 C58.7923255 146.91220069 56.48994765 146.92474739 54.1875 146.9375 C52.62044412 146.94251898 51.0533867 146.94708119 49.48632812 146.95117188 C45.65751411 146.96216002 41.82877389 146.97940327 38 147 C38.13631836 145.79839233 38.13631836 145.79839233 38.27539062 144.57250977 C38.68872985 140.90306429 39.09442059 137.23281093 39.5 133.5625 C39.64308594 132.30244141 39.78617187 131.04238281 39.93359375 129.74414062 C42.74577503 104.09972564 37.77959151 78.16242834 21.69921875 57.31347656 C18.96744838 54.03978419 16.03049186 50.99537026 13 48 C12.14664062 47.14277344 11.29328125 46.28554688 10.4140625 45.40234375 C9.61742187 44.60957031 8.82078125 43.81679688 8 43 C7.43539063 42.43796875 6.87078125 41.8759375 6.2890625 41.296875 C-12.70452776 23.64086152 -38.15664133 16.97319348 -63.53515625 17.65625 C-90.16537991 18.96325484 -115.05155858 32.08406327 -132.58203125 51.921875 Z M-131 208 C-136.96161672 227.43822917 -142.92209221 246.8767876 -148.87298584 266.31829834 C-149.57730926 268.61916447 -150.28175639 270.91999275 -150.98638916 273.22076416 C-152.51523484 278.21289416 -154.04208811 283.20561313 -155.56280518 288.20022583 C-155.97764729 289.56142272 -156.39345207 290.92232663 -156.8102417 292.28292847 C-157.36961064 294.10969176 -157.92517911 295.93761757 -158.48046875 297.765625 C-158.92749146 299.23177246 -158.92749146 299.23177246 -159.38354492 300.72753906 C-160.08726997 302.92927477 -160.08726997 302.92927477 -160 305 C-142.84 305 -125.68 305 -108 305 C-109.09183594 308.50882812 -110.18367188 312.01765625 -111.30859375 315.6328125 C-116.26308212 331.67923459 -120.96791514 347.79742922 -125.63061523 363.93066406 C-126.59566333 367.26794965 -127.56674432 370.60339538 -128.54272461 373.9375 C-129.74080105 378.03035413 -130.92922753 382.12588978 -132.11056328 386.22360611 C-132.55736524 387.76754708 -133.00751427 389.31052369 -133.46113777 390.85247421 C-134.0876696 392.98485634 -134.70169441 395.12046266 -135.31274414 397.25732422 C-135.66389786 398.4668576 -136.01505157 399.67639099 -136.37684631 400.9225769 C-136.96412914 403.822853 -137.0428189 405.28108606 -136 408 C-135.5875 407.57589844 -135.175 407.15179688 -134.75 406.71484375 C-134.1725 406.12832031 -133.595 405.54179687 -133 404.9375 C-132.443125 404.36902344 -131.88625 403.80054688 -131.3125 403.21484375 C-129.32884079 401.31495393 -127.30725066 399.50753246 -125.234375 397.70703125 C-121.14480587 394.15135707 -117.18741899 390.47255301 -113.25 386.75 C-107.55893096 381.39125616 -101.83096552 376.07970121 -96.05859375 370.80859375 C-92.51537055 367.56443588 -89.00841958 364.28169853 -85.5 361 C-76.62252796 352.70029149 -67.72226708 344.43246608 -58.546875 336.4609375 C-58.03640625 335.97882813 -57.5259375 335.49671875 -57 335 C-57 334.67 -57 334.34 -57 334 C-71.85 333.505 -71.85 333.505 -87 333 C-86.06800781 331.08703125 -85.13601563 329.1740625 -84.17578125 327.203125 C-77.90422935 314.30944548 -71.67912447 301.40185826 -65.6875 288.375 C-60.60855758 277.34080476 -55.33635994 266.41135969 -50 255.5 C-44.35841647 243.96214869 -38.78096263 232.40035715 -33.375 220.75 C-32.82457031 219.56599609 -32.27414062 218.38199219 -31.70703125 217.16210938 C-29.24579669 212.75098337 -29.24579669 212.75098337 -28 208 C-61.99 208 -95.98 208 -131 208 Z " fill="#000000" transform="translate(367,13)"/>
</svg>
