<?xml version="1.0" encoding="UTF-8"?>
<svg version="1.1" xmlns="http://www.w3.org/2000/svg" width="512" height="512">
<path d="M0 0 C0.74636719 0.59425781 1.49273437 1.18851563 2.26171875 1.80078125 C7.99342472 6.51902251 12.46368548 12.15390453 17 18 C17.6703125 18.81984375 18.340625 19.6396875 19.03125 20.484375 C23.48843611 26.17966836 26.76825767 32.18839548 29.875 38.6875 C30.2565625 39.48349609 30.638125 40.27949219 31.03125 41.09960938 C33.2995183 46.00739132 34.85255493 50.7157135 36 56 C36.66 55.67 37.32 55.34 38 55 C65.06569819 54.84060248 88.57791295 64.1749753 108 83 C108.89912109 83.78890625 108.89912109 83.78890625 109.81640625 84.59375 C125.20531392 98.59015791 134.31931573 121.26307823 135.91015625 141.75 C135.95462891 142.86375 135.95462891 142.86375 136 144 C136.03996094 144.969375 136.07992188 145.93875 136.12109375 146.9375 C136.66984532 173.79404745 127.15843809 197.96693338 108.8527832 217.59863281 C91.42584167 235.59850701 67.48248089 245.56060517 42.47753906 246.16113281 C40.90696285 246.18088354 39.33630272 246.19468544 37.765625 246.203125 C36.92457214 246.20882507 36.08351929 246.21452515 35.21697998 246.22039795 C33.45570099 246.22976841 31.6944051 246.23634987 29.93310547 246.24023438 C27.24285943 246.25002599 24.5533515 246.28115747 21.86328125 246.3125 C20.14323365 246.31902367 18.42318066 246.32427663 16.703125 246.328125 C15.90408752 246.3404718 15.10505005 246.3528186 14.28179932 246.36553955 C9.68005544 246.34715971 6.76724164 245.93127793 3 243 C0.89898405 240.3259797 1.00153024 238.95715315 1.125 235.5 C2.12149364 231.51402543 2.71655835 230.39861809 6 228 C8.97999983 227.61650822 11.60055354 227.46579446 14.578125 227.49609375 C15.42236023 227.48667252 16.26659546 227.47725128 17.13641357 227.46754456 C19.84118695 227.43890113 22.54508757 227.43581124 25.25 227.4375 C52.78383902 227.39977552 75.60487182 223.04469643 96 203 C96.62648438 202.38640625 97.25296875 201.7728125 97.8984375 201.140625 C109.30798265 189.05993013 116.49760534 171.61251682 117 155 C117.05027344 154.360625 117.10054688 153.72125 117.15234375 153.0625 C118.12001591 132.6252639 109.73302973 113.38292913 96.5859375 98.21484375 C91.01320813 92.35020951 85.03205015 87.96314965 78 84 C77.21109375 83.53851563 76.4221875 83.07703125 75.609375 82.6015625 C63.24697159 75.84726925 49.1465633 73.57376117 35.1875 74.16015625 C33.95 74.21042969 32.7125 74.26070313 31.4375 74.3125 C30.32246094 74.39113281 29.20742188 74.46976562 28.05859375 74.55078125 C24.52292452 73.91408986 23.16636559 72.73057546 21.0612793 69.84790039 C19.19105001 66.59145561 18.21164402 63.15724165 17.1875 59.5625 C9.06383098 33.4615759 -9.01604611 13.67602037 -33.04101562 0.85229492 C-46.9554772 -6.22855033 -62.20194115 -9.39948038 -77.75 -9.3125 C-78.79913574 -9.30758545 -79.84827148 -9.3026709 -80.92919922 -9.29760742 C-104.26226481 -8.94744983 -126.448209 -0.33044134 -144 15 C-144.67160156 15.52851562 -145.34320313 16.05703125 -146.03515625 16.6015625 C-161.31027055 28.93097881 -169.57898018 47.0260616 -175.73242188 65.15820312 C-175.98056641 65.86396484 -176.22871094 66.56972656 -176.484375 67.296875 C-176.70319336 67.93463867 -176.92201172 68.57240234 -177.14746094 69.22949219 C-178.16226138 71.33697581 -179.1575703 72.55634201 -181 74 C-183.82018219 74.16956792 -186.44123374 74.1801523 -189.25 74.0625 C-212.3777052 73.62918862 -232.7208232 79.57853204 -249.796875 95.80078125 C-250.88742188 96.88939453 -250.88742188 96.88939453 -252 98 C-252.62390625 98.61230469 -253.2478125 99.22460938 -253.890625 99.85546875 C-267.20509141 113.91962359 -273.45328655 133.69190149 -273.21484375 152.8203125 C-271.84467003 173.0988836 -264.25886185 190.50269564 -250 205 C-249.31164062 205.70125 -248.62328125 206.4025 -247.9140625 207.125 C-232.97913014 221.33816983 -213.56887767 227.1129521 -193.30078125 227.140625 C-191.66339731 227.15893145 -190.02602707 227.17849971 -188.38867188 227.19921875 C-185.84082263 227.22828073 -183.2938761 227.25000354 -180.74584961 227.25048828 C-178.26337061 227.25382271 -175.78290902 227.28832872 -173.30078125 227.328125 C-172.54235428 227.3210553 -171.78392731 227.3139856 -171.0025177 227.30670166 C-166.97452346 227.39923463 -165.19403077 227.84262267 -162.02490234 230.41308594 C-160.07519102 232.90393971 -159.29378482 233.90575695 -159.3125 237 C-159.28800781 237.639375 -159.26351562 238.27875 -159.23828125 238.9375 C-160.47440876 242.28455296 -163.02076072 244.21488143 -166 246 C-168.88165142 246.46950033 -171.14777782 246.65853559 -174.01171875 246.59375 C-174.77348419 246.59514984 -175.53524963 246.59654968 -176.32009888 246.59799194 C-178.77701732 246.59314928 -181.23109895 246.54922911 -183.6875 246.5 C-185.37784664 246.48048668 -187.06819497 246.46111853 -188.75854492 246.44189453 C-219.95600434 245.95801973 -244.67297809 237.71926545 -267.18530273 215.25585938 C-284.14652202 197.65793894 -292.46588016 173.21654278 -292.22998047 149.00805664 C-291.5407439 121.00698475 -279.88706829 98.11923687 -260.05859375 78.67578125 C-254.90922407 73.99591789 -248.9989838 70.47420633 -243 67 C-242.15824219 66.50757813 -241.31648438 66.01515625 -240.44921875 65.5078125 C-226.52453018 57.97209868 -209.80079814 54.36703034 -194 55 C-193.34 55.33 -192.68 55.66 -192 56 C-191.87625 55.47535156 -191.7525 54.95070313 -191.625 54.41015625 C-188.07764178 41.08539194 -181.70103589 28.65876896 -173 18 C-172.58878906 17.47954102 -172.17757812 16.95908203 -171.75390625 16.42285156 C-165.55295377 8.57965869 -159.07051524 1.99085099 -151 -4 C-150.21238281 -4.60199219 -149.42476562 -5.20398438 -148.61328125 -5.82421875 C-104.08241973 -38.5783235 -41.9437726 -35.02158356 0 0 Z " fill="#000000" transform="translate(334,89)"/>
<path d="M0 0 C2.5625 2.3125 2.5625 2.3125 4 6 C4.0030742 15.89694388 2.03543624 26.03085206 0.75 35.83984375 C0.52943187 37.53704902 0.30905779 39.23427952 0.08886719 40.93153381 C-0.3700218 44.46410433 -0.83077015 47.99642548 -1.29296875 51.52856445 C-1.88446402 56.04945363 -2.47195783 60.5708518 -3.0581665 65.09242916 C-3.51151442 68.58674876 -3.96659673 72.08084071 -4.42224121 75.57486153 C-4.63957601 77.24253052 -4.85645923 78.91025842 -5.07287598 80.5780468 C-5.37500194 82.90373911 -5.67937556 85.22912638 -5.984375 87.55444336 C-6.07271606 88.23762131 -6.16105713 88.92079926 -6.2520752 89.62467957 C-6.71237238 93.11462323 -7.26150031 96.55782422 -8 100 C-6.86981445 99.98952637 -5.73962891 99.97905273 -4.57519531 99.96826172 C-0.37828748 99.93203568 3.81860654 99.90909002 8.015625 99.89013672 C9.83140386 99.88008509 11.64716656 99.86644172 13.46289062 99.84912109 C16.07425935 99.82483594 18.68541387 99.81350852 21.296875 99.8046875 C22.10743347 99.79436493 22.91799194 99.78404236 23.75311279 99.77340698 C31.00275401 99.77196692 31.00275401 99.77196692 34 102 C36.01854861 105.02782292 36.735638 106.8987681 36.6171875 110.53125 C35.3178446 115.72862161 31.62611263 119.86827759 28.44189453 124.07958984 C26.37743953 126.82916706 24.38125933 129.62631696 22.37768555 132.42041016 C20.72196452 134.72654866 19.05765542 137.02624439 17.390625 139.32421875 C14.08728786 143.87815913 10.79274812 148.43839984 7.5 153 C6.41670829 154.50003006 5.33337491 156.00003003 4.25 157.5 C3.71375 158.2425 3.1775 158.985 2.625 159.75 C-3.33333333 168 -9.29166667 176.25 -15.25 184.5 C-15.78616943 185.24241943 -16.32233887 185.98483887 -16.87475586 186.74975586 C-17.95878416 188.2506555 -19.04293142 189.75146922 -20.12719727 191.25219727 C-22.82587655 194.98773967 -25.52251312 198.72472254 -28.21484375 202.46484375 C-34.45814487 211.13278296 -40.74792607 219.76406504 -47.09887695 228.35351562 C-50.89790653 233.49271511 -54.65346292 238.65861403 -58.3515625 243.87109375 C-62.98496905 249.85499558 -62.98496905 249.85499558 -67.9375 250.5625 C-71.20433703 250.37320664 -72.12849501 249.91433666 -75 248 C-77.81703663 243.77444505 -77.45854864 239.79596328 -76.66240311 234.94153023 C-76.19149319 232.75689913 -75.66022188 230.59635584 -75.10400391 228.43188477 C-74.80158531 227.20823715 -74.80158531 227.20823715 -74.49305725 225.95986938 C-73.82965256 223.28477941 -73.15317238 220.61318376 -72.4765625 217.94140625 C-72.00968034 216.0688911 -71.54366029 214.1961608 -71.07846069 212.32322693 C-69.85439793 207.40425121 -68.6193653 202.48809692 -67.3817749 197.57250977 C-65.88392875 191.61495023 -64.3987191 185.654231 -62.91188622 179.69391537 C-61.75400028 175.05313276 -60.59421219 170.41285535 -59.42837524 165.77406311 C-59.21320755 164.9163179 -58.99803986 164.05857269 -58.77635193 163.17483521 C-58.37905264 161.59135345 -57.98086535 160.00809406 -57.58152771 158.42512512 C-56.29765153 153.30230173 -55.12255943 148.16050677 -54 143 C-55.03930664 143.01047363 -56.07861328 143.02094727 -57.14941406 143.03173828 C-61.01086981 143.06797936 -64.87231057 143.09091541 -68.73388672 143.10986328 C-70.40415985 143.1199115 -72.07441542 143.13355236 -73.74462891 143.15087891 C-76.14750504 143.17517926 -78.55014827 143.18649487 -80.953125 143.1953125 C-81.69806213 143.20563507 -82.44299927 143.21595764 -83.21051025 143.22659302 C-86.9522522 143.22740001 -89.87100403 143.17943396 -93 141 C-95.32808203 137.74068516 -95.34040103 134.9216064 -95 131 C-93.82038137 128.5621215 -92.64375871 126.4444435 -91.1875 124.1875 C-90.78152588 123.53571777 -90.37555176 122.88393555 -89.95727539 122.21240234 C-88.65376654 120.13124462 -87.32986201 118.06440145 -86 116 C-85.58814453 115.35659668 -85.17628906 114.71319336 -84.75195312 114.05029297 C-82.56703456 110.64088805 -80.36450637 107.24334354 -78.15234375 103.8515625 C-74.39944865 98.09040077 -70.7016993 92.294134 -67 86.5 C-62.47765597 79.42483051 -57.94692696 72.35573883 -53.375 65.3125 C-49.21235081 58.89875049 -45.0997041 52.4541482 -41 46 C-36.36094959 38.69740703 -31.70987185 31.40348344 -26.98803711 24.15405273 C-24.63202362 20.53590477 -22.30572288 16.90249271 -20.015625 13.2421875 C-19.52151123 12.45948486 -19.02739746 11.67678223 -18.51831055 10.87036133 C-17.57182068 9.36991378 -16.63274458 7.86475493 -15.70239258 6.35424805 C-15.0627356 5.34551636 -15.0627356 5.34551636 -14.41015625 4.31640625 C-14.04027588 3.72287354 -13.67039551 3.12934082 -13.28930664 2.51782227 C-9.72511507 -1.67808362 -4.97627014 -1.67910956 0 0 Z M-21 49 C-22.56582607 51.29045383 -24.07350911 53.59735545 -25.5625 55.9375 C-26.04138672 56.68386719 -26.52027344 57.43023437 -27.01367188 58.19921875 C-28.67932885 60.7972246 -30.33965581 63.39859595 -32 66 C-33.3005068 68.0327277 -34.60129939 70.06527257 -35.90234375 72.09765625 C-37.96267755 75.31635604 -40.02258003 78.53532584 -42.08081055 81.75537109 C-45.99124158 87.87155508 -49.92022439 93.97491655 -53.875 100.0625 C-57.52088308 105.682295 -61.12509149 111.32688663 -64.6875 117 C-65.12239746 117.689729 -65.55729492 118.37945801 -66.00537109 119.09008789 C-68.07576101 121.85317112 -68.07576101 121.85317112 -69 125 C-68.1121582 125.01981934 -67.22431641 125.03963867 -66.30957031 125.06005859 C-63.00688666 125.13828232 -59.70464936 125.22497885 -56.40234375 125.31738281 C-54.97469602 125.35560024 -53.54695437 125.39046572 -52.11914062 125.421875 C-50.06346132 125.46768401 -48.00842446 125.5256498 -45.953125 125.5859375 C-44.71723633 125.6173584 -43.48134766 125.6487793 -42.20800781 125.68115234 C-39.21317018 125.97881277 -37.47055815 126.33196569 -35 128 C-31.55354913 134.89290173 -35.31313742 144.26218277 -37.09765625 151.1796875 C-37.57594388 153.08771539 -38.05422416 154.99574515 -38.53205776 156.9038868 C-39.19846225 159.555955 -39.87314634 162.20588518 -40.54815674 164.85577393 C-41.73585296 169.51847169 -42.9191638 174.18223742 -44.08921814 178.84939575 C-44.71216986 181.33069163 -45.34185514 183.81030823 -45.97877502 186.28805542 C-46.25914108 187.40326569 -46.53950714 188.51847595 -46.82836914 189.66748047 C-47.07929825 190.65150848 -47.33022736 191.6355365 -47.58876038 192.64938354 C-48.24209011 195.01137096 -48.24209011 195.01137096 -47 197 C-46.67427002 196.54898926 -46.34854004 196.09797852 -46.01293945 195.63330078 C-36.59195964 182.58886719 -27.17097982 169.54443359 -17.75 156.5 C-17.2130249 155.75645264 -16.6760498 155.01290527 -16.12280273 154.24682617 C-15.04696023 152.75728525 -13.97095298 151.2678633 -12.89477539 149.77856445 C-10.07042142 145.86953518 -7.24954718 141.95805486 -4.43359375 138.04296875 C-3.84835937 137.23021484 -3.263125 136.41746094 -2.66015625 135.58007812 C-1.54320723 134.02876004 -0.42725953 132.47672031 0.6875 130.92382812 C2.85236719 127.91890433 5.01911466 124.97672862 7.37109375 122.11328125 C9.20349624 120.18069175 9.20349624 120.18069175 9 118 C7.62279785 117.98598145 7.62279785 117.98598145 6.21777344 117.97167969 C2.80294722 117.92760069 -0.61063108 117.86596268 -4.02490234 117.79248047 C-5.50102196 117.76429912 -6.97729169 117.74307034 -8.45361328 117.72900391 C-10.57923057 117.70753302 -12.70304879 117.66086957 -14.828125 117.609375 C-16.1059082 117.58842773 -17.38369141 117.56748047 -18.70019531 117.54589844 C-22.62296046 116.89694143 -23.58049006 116.08347331 -26 113 C-26.43676758 110.38084412 -26.43676758 110.38084412 -26.33203125 107.45483398 C-26.27716553 105.85887894 -26.27716553 105.85887894 -26.22119141 104.23068237 C-25.88797756 99.36382008 -25.35468201 94.55432471 -24.6875 89.72265625 C-24.55432373 88.70827988 -24.42114746 87.6939035 -24.28393555 86.64878845 C-23.86322869 83.45234363 -23.43227243 80.25739943 -23 77.0625 C-22.5693397 73.84242309 -22.14092895 70.62207668 -21.71606445 67.40122986 C-21.45270458 65.40851533 -21.18577826 63.41626796 -20.91479492 61.42457581 C-20.79467041 60.52271042 -20.6745459 59.62084503 -20.55078125 58.69165039 C-20.39089722 57.51017174 -20.39089722 57.51017174 -20.2277832 56.30482483 C-19.98574969 53.85580817 -19.96163613 51.45935185 -20 49 C-20.33 49 -20.66 49 -21 49 Z " fill="#000000" transform="translate(286,201)"/>
</svg>
