<?xml version="1.0" encoding="UTF-8"?>
<svg version="1.1" xmlns="http://www.w3.org/2000/svg" width="512" height="512">
<path d="M0 0 C17.55698373 14.08444062 30.57542953 33.11691692 33.76855469 55.7734375 C36.38554388 80.94953602 31.72762712 104.76054601 15.63330078 124.74438477 C14.4390193 126.17711182 13.22035093 127.58941194 12 129 C11.15888672 129.99193359 11.15888672 129.99193359 10.30078125 131.00390625 C4.78142145 136.99595681 -2.32801634 141.40086563 -9 146 C-6.18458786 148.86395373 -3.36010642 151.58640886 -0.25 154.125 C9.41601598 162.60779369 15.34582096 172.19427756 20 184 C20.36222656 184.9178125 20.72445313 185.835625 21.09765625 186.78125 C26.55856533 204.05296244 24.00443025 224.20147498 16.42578125 240.35546875 C12.57302062 247.44131522 7.67574501 253.30494974 2 259 C1.32453125 259.69867188 0.6490625 260.39734375 -0.046875 261.1171875 C-17.74001705 278.21168941 -39.17358503 279.60104295 -62.40795898 279.51757812 C-64.95561115 279.52300663 -67.50326017 279.53013336 -70.05090332 279.53881836 C-76.22056429 279.55508928 -82.38996956 279.5528117 -88.55963355 279.5411678 C-93.57965391 279.53209038 -98.59961983 279.53092797 -103.61964607 279.53526306 C-104.69622213 279.53618246 -104.69622213 279.53618246 -105.79454719 279.53712043 C-107.25312949 279.53839949 -108.71171178 279.53969635 -110.17029405 279.5410108 C-123.81050384 279.55238544 -137.45060566 279.53935246 -151.09079773 279.51780933 C-162.76249015 279.499945 -174.43402335 279.50304299 -186.10571289 279.52148438 C-199.69951446 279.54295303 -213.29322165 279.55128309 -226.88703781 279.53903532 C-228.34020458 279.53776129 -229.79337137 279.5365038 -231.24653816 279.53526306 C-231.96129473 279.53464596 -232.6760513 279.53402886 -233.41246716 279.53339306 C-238.41855545 279.52995779 -243.42458324 279.53572893 -248.43066216 279.54518127 C-255.18519431 279.55765611 -261.93938221 279.54861102 -268.69390106 279.52560425 C-271.16246357 279.52034706 -273.63105151 279.52177916 -276.09960365 279.53065491 C-293.76547139 279.58828234 -309.08364842 278.40685633 -325 270 C-325.95132813 269.52046875 -326.90265625 269.0409375 -327.8828125 268.546875 C-347.72182341 257.87628427 -361.40726874 239.31652115 -368.31640625 218.1171875 C-374.84080253 195.83591244 -372.09833066 171.83253741 -361.07421875 151.59375 C-358.36212458 146.81344915 -355.41196356 142.31223776 -352 138 C-351.40832031 137.24460938 -350.81664062 136.48921875 -350.20703125 135.7109375 C-341.08809124 124.76820949 -325.59180826 113.0242971 -311 111 C-311.03480469 110.35417969 -311.06960938 109.70835937 -311.10546875 109.04296875 C-311.82824592 83.88343976 -303.46464307 60.05569247 -287 41 C-286.15308594 39.95392578 -286.15308594 39.95392578 -285.2890625 38.88671875 C-270.72257921 21.27700304 -247.58893377 9.62909635 -225 7 C-197.35559919 4.93949284 -170.92799749 10.16833211 -149.25390625 28.296875 C-144.66198735 32.36341834 -140.32294508 36.65213881 -136 41 C-135.27296875 39.45892578 -135.27296875 39.45892578 -134.53125 37.88671875 C-130.40247682 29.28892318 -126.03383774 21.44727611 -120 14 C-119.07960938 12.83404297 -119.07960938 12.83404297 -118.140625 11.64453125 C-89.25755855 -23.02708364 -35.20108586 -26.11935582 0 0 Z M-97 28 C-97.63808594 28.61488281 -98.27617187 29.22976562 -98.93359375 29.86328125 C-108.14711996 39.44616931 -114 53.66801378 -114 67 C-113.02728149 67.01401855 -113.02728149 67.01401855 -112.03491211 67.02832031 C-86.5788209 67.48808504 -66.45134222 72.21112794 -47.671875 90.234375 C-38.09523763 100.20189553 -32.4653023 112.07638468 -28 125 C-15.52848633 121.36095129 -6.09421933 111.65285084 0.24926758 100.62988281 C8.1036703 86.28094411 10.41953744 70.70200911 6.875 54.625 C2.14297551 38.69018266 -7.81623906 25.06960318 -22.3125 16.8125 C-48.34743034 3.28880008 -76.15580752 7.22731419 -97 28 Z M-267.75 58.375 C-278.88587278 72.66734376 -285.29999879 88.6728009 -285 107 C-283.88625 107.08636719 -282.7725 107.17273438 -281.625 107.26171875 C-260.57873255 109.10637449 -240.27606763 115.69516388 -225 131 C-221.94107338 135.84563912 -222.58998261 140.98718735 -223.6875 146.375 C-225 149 -225 149 -227 150.375 C-228.485 150.684375 -228.485 150.684375 -230 151 C-230.66773438 151.16371094 -231.33546875 151.32742187 -232.0234375 151.49609375 C-237.72534308 152.26329367 -241.00232104 150.62604855 -245.44946289 147.31298828 C-246.74041354 146.30700595 -248.02864111 145.29752001 -249.31420898 144.28466797 C-262.70413865 133.81030115 -277.54176047 131.94856097 -294 133 C-307.9118345 134.73503605 -319.30968697 142.20678099 -329 152 C-329.63550781 152.60199219 -330.27101563 153.20398438 -330.92578125 153.82421875 C-341.80107161 164.94064637 -345.37328533 180.16009878 -345.30102539 195.20092773 C-344.92279415 211.43461276 -338.31671971 225.40514278 -327 237 C-319.71307024 243.48063048 -312.19263181 247.81483372 -303 251 C-301.2365625 251.61875 -301.2365625 251.61875 -299.4375 252.25 C-291.35096927 254.01433398 -283.05405003 254.14827264 -274.8052063 254.13371277 C-273.35928929 254.1371111 -273.35928929 254.1371111 -271.88416183 254.14057809 C-268.68724769 254.14685627 -265.49037661 254.14609275 -262.29345703 254.14526367 C-259.98783311 254.14825898 -257.68220969 254.15166236 -255.37658691 254.15544128 C-249.13689232 254.16424643 -242.89721145 254.16661789 -236.65751123 254.16725707 C-232.75420522 254.16796941 -228.85090266 254.17010718 -224.9475975 254.17275429 C-212.01878176 254.18151917 -199.08997572 254.18617544 -186.16115715 254.18542381 C-185.11821297 254.18536388 -185.11821297 254.18536388 -184.05419922 254.18530273 C-183.00996742 254.18524141 -183.00996742 254.18524141 -181.94464003 254.18517885 C-170.66355216 254.18477243 -159.38249768 254.19434431 -148.10141946 254.2084411 C-136.49012813 254.22283495 -124.87885459 254.22952689 -113.26755416 254.22884732 C-106.75985776 254.22859293 -100.25219919 254.23141224 -93.74451065 254.24202538 C-87.62295451 254.25173715 -81.50147214 254.25176444 -75.37991333 254.24450874 C-73.14068366 254.24346682 -70.90144932 254.24580236 -68.66222763 254.2518692 C-48.26492607 254.30352937 -30.5243902 254.08899736 -15.05859375 239.12109375 C-5.4204265 228.81678967 -2.37327502 217.27485275 -2.6953125 203.55078125 C-3.31239564 191.22186806 -9.34847011 181.06669073 -18.25 172.6875 C-24.62671206 167.67308551 -32.0884244 164.32297295 -39.9375 162.4375 C-44.75809904 161.2619138 -47.02042144 159.97277142 -50 156 C-50.99683673 153.0094898 -51.1446469 150.47986608 -51.23876953 147.35229492 C-51.73445951 132.37818995 -55.81021284 118.4284219 -66.25 107.1875 C-77.06250713 97.31416387 -90.31156973 91.7912497 -105 92 C-110.21115903 92.52618759 -115.19006043 93.34842175 -120.125 95.125 C-125.23358594 96.67978703 -130.45569873 96.86247501 -135.53515625 95.140625 C-139.46219848 91.73013508 -140.61756365 87.23979701 -142.375 82.4375 C-145.44545037 74.52714403 -148.40907353 67.49033638 -154 61 C-154.67546875 60.16726562 -155.3509375 59.33453125 -156.046875 58.4765625 C-167.89924024 44.4806844 -185.00994266 34.47844578 -203.4609375 32.77246094 C-228.47089031 31.27974979 -251.21546926 38.84667549 -267.75 58.375 Z " fill="#000000" transform="translate(387,101)"/>
<path d="M0 0 C3.20414448 2.36941485 6.30155173 4.84917273 9.37890625 7.37890625 C10.65685299 8.41362444 11.93552725 9.4474446 13.21484375 10.48046875 C15.92453196 12.67283186 18.62443198 14.87662896 21.3203125 17.0859375 C23.98928114 19.26485758 26.68164106 21.40670172 29.40625 23.515625 C30.04385254 24.00949707 30.68145508 24.50336914 31.33837891 25.01220703 C32.53903228 25.93824456 33.74294696 26.8600751 34.95068359 27.77685547 C39.18266537 31.04340456 41.87597249 33.47494274 43.25390625 38.69140625 C43.40466003 43.13864276 42.56368841 45.51912444 40.37890625 49.37890625 C37.65135835 52.25798459 35.82987628 53.2536368 32.00390625 54.31640625 C25.04439801 54.43639777 20.14474684 50.77588874 14.94140625 46.50390625 C14.3494043 46.02848389 13.75740234 45.55306152 13.14746094 45.06323242 C11.21785437 43.50994438 9.29806788 41.94507499 7.37890625 40.37890625 C6.00815125 39.26781113 4.63705258 38.15713985 3.265625 37.046875 C0.54096688 34.83892367 -2.17834323 32.62460934 -4.89453125 30.40625 C-7.17664756 28.54556373 -9.4688976 26.70081487 -11.78515625 24.8828125 C-12.67976563 24.18027344 -13.574375 23.47773438 -14.49609375 22.75390625 C-15.25664062 22.16351563 -16.0171875 21.573125 -16.80078125 20.96484375 C-19.24292676 18.83713757 -20.51039445 17.12117421 -20.9921875 13.890625 C-21.19364202 5.32288267 -21.19364202 5.32288267 -18.43359375 1.81640625 C-12.5280455 -3.30173557 -6.76209671 -4.18222077 0 0 Z " fill="#000000" transform="translate(429.62109375,229.62109375)"/>
<path d="M0 0 C4.28717444 2.85282348 8.18433933 6.0710876 12.10449219 9.40332031 C15.26536932 12.06588297 18.5133882 14.61807009 21.75 17.1875 C23.00315661 18.19201953 24.25577462 19.19721141 25.5078125 20.203125 C27.66201314 21.93164527 29.82328292 23.64916826 31.9921875 25.359375 C43.47407718 34.42223154 43.47407718 34.42223154 45 39 C45.58533357 45.08746909 44.43450434 48.13445219 41 53 C38.03979398 54.89579152 35.61396171 55.3206548 32.125 55.375 C31.30257812 55.40335938 30.48015625 55.43171875 29.6328125 55.4609375 C23.38793479 54.36762063 18.2880791 48.89210517 13.5 44.9375 C8.23714541 40.62043377 2.93728906 36.36427161 -2.4375 32.1875 C-17.53671994 20.38984018 -17.53671994 20.38984018 -19 16 C-19.38438818 11.31046415 -19.45895659 8.93556536 -17.375 4.6875 C-12.43951667 -0.89738903 -6.97628481 -2.64935156 0 0 Z " fill="#000000" transform="translate(215,59)"/>
<path d="M0 0 C3.2147621 3.30931393 4.41351165 6.01124019 4.4375 10.625 C4.297673 14.69329976 4.01445545 17.12807658 1.125 20.1875 C-7.45473035 25.43443159 -17.37760002 28.7417279 -26.70703125 32.40063477 C-29.50536356 33.5021112 -32.29547182 34.62291016 -35.0859375 35.74414062 C-36.88233929 36.45172339 -38.67919925 37.15814432 -40.4765625 37.86328125 C-41.30072662 38.19757645 -42.12489075 38.53187164 -42.97402954 38.876297 C-48.19461104 40.89168846 -52.2730377 41.67227793 -57.875 41.1875 C-62.23545847 38.96613437 -65.00777421 36.75182971 -66.875 32.1875 C-67.38472086 27.60001227 -67.32167714 25.22297883 -65.5 21 C-58.30309393 13.28902921 -45.76379617 10.23337585 -36.10498047 6.45654297 C-33.48317 5.43091627 -30.8644716 4.39763578 -28.24609375 3.36328125 C-26.57309267 2.70528149 -24.89992162 2.0477137 -23.2265625 1.390625 C-22.44737457 1.08336487 -21.66818665 0.77610474 -20.86538696 0.45953369 C-20.13717743 0.1754364 -19.4089679 -0.10866089 -18.65869141 -0.40136719 C-18.02266998 -0.65053894 -17.38664856 -0.89971069 -16.73135376 -1.15643311 C-10.78875562 -3.25664805 -5.42763505 -3.42176992 0 0 Z " fill="#000000" transform="translate(491.875,101.8125)"/>
<path d="M0 0 C2.70248001 2.45680001 3.82641302 4.4269679 5.0625 7.875 C5.35508933 14.22099578 4.58860336 20.24109703 3.63671875 26.5078125 C3.48846146 27.50328094 3.34020416 28.49874939 3.18745422 29.52438354 C2.87355851 31.61746633 2.55654436 33.71008359 2.23657227 35.80224609 C1.75069661 38.99542187 1.28212581 42.19083266 0.81445312 45.38671875 C0.50625936 47.42724235 0.19704906 49.46761274 -0.11328125 51.5078125 C-0.25091385 52.4579422 -0.38854645 53.4080719 -0.53034973 54.38699341 C-1.49595753 60.56136498 -2.69609961 65.57133849 -7.1875 70.1875 C-10.62292624 72.29560246 -12.9053164 72.80547959 -16.9375 72.875 C-21.07357831 71.68324862 -23.37059956 70.45643635 -26.375 67.375 C-29.84796051 59.59556845 -27.78619636 50.15384048 -26.546875 41.94921875 C-26.40098938 40.95799515 -26.25510376 39.96677155 -26.10479736 38.94551086 C-25.7962599 36.87018626 -25.48344798 34.79549293 -25.16650391 32.72143555 C-24.68643692 29.55548918 -24.23139245 26.38656623 -23.77734375 23.21679688 C-23.47286983 21.18987591 -23.16693125 19.1631743 -22.859375 17.13671875 C-22.66066803 15.72564095 -22.66066803 15.72564095 -22.45794678 14.28605652 C-21.59398775 8.81849497 -20.46565826 5.1826501 -16.9375 0.875 C-12.0866413 -2.51181684 -5.3266284 -2.03998535 0 0 Z " fill="#000000" transform="translate(365.9375,1.125)"/>
<path d="M0 0 C3.03651872 2.08760662 4.57278441 3.5528072 5.625 7.1171875 C6.49037659 12.47170512 5.79792315 15.25180122 3 20 C0.45071438 22.96112882 -2.31352502 25.68654385 -5.09765625 28.42578125 C-5.88772568 29.21397751 -6.6777951 30.00217377 -7.49180603 30.81425476 C-9.15680488 32.47255023 -10.82538828 34.12725349 -12.49731445 35.77856445 C-15.0640111 38.31399269 -17.61977743 40.86004243 -20.17382812 43.40820312 C-21.79364731 45.01885648 -23.41406921 46.62890397 -25.03515625 48.23828125 C-25.80287857 49.00175369 -26.57060089 49.76522614 -27.36158752 50.55183411 C-28.07250046 51.2531395 -28.78341339 51.95444489 -29.51586914 52.67700195 C-30.14191544 53.29622025 -30.76796173 53.91543854 -31.41297913 54.55342102 C-34.96383016 57.79004289 -38.69900414 57.32728334 -43.296875 57.28515625 C-46.94474364 56.90033774 -48.62320018 55.76015463 -51 53 C-52.68313929 50.13686626 -53.31680052 47.94237035 -53.375 44.625 C-53.40335938 43.89539063 -53.43171875 43.16578125 -53.4609375 42.4140625 C-52.18231283 35.7175367 -45.99361319 30.67224743 -41.3828125 26.046875 C-40.6480368 25.3054425 -39.91326111 24.56401001 -39.15621948 23.80010986 C-37.60726887 22.24107138 -36.05562875 20.68470091 -34.50146484 19.13085938 C-32.12921013 16.75421791 -29.7734228 14.36202886 -27.41796875 11.96875 C-25.90723156 10.45214661 -24.39554442 8.93648876 -22.8828125 7.421875 C-22.18261993 6.7073114 -21.48242737 5.9927478 -20.76101685 5.25653076 C-14.21240457 -1.23169968 -8.83314875 -3.38360026 0 0 Z " fill="#000000" transform="translate(255,455)"/>
<path d="M0 0 C3.39233343 2.75627091 4.57891213 4.30232296 5.6171875 8.48828125 C5.99958553 12.58457532 5.84978803 15.76649801 3.47094727 19.21948242 C2.78057373 19.94498291 2.0902002 20.6704834 1.37890625 21.41796875 C0.56421875 22.27986816 -0.25046875 23.14176758 -1.08984375 24.02978516 C-2.05808973 25.02162313 -3.02828134 26.01156402 -4 27 C-4.54841553 27.56168884 -5.09683105 28.12337769 -5.66186523 28.7020874 C-9.40107479 32.5247499 -13.17194847 36.31460212 -16.95922852 40.08959961 C-18.96163992 42.08657438 -20.95855218 44.08893971 -22.95507812 46.09179688 C-24.22884552 47.36490473 -25.5029224 48.63770302 -26.77734375 49.91015625 C-27.37312729 50.50796402 -27.96891083 51.10577179 -28.58274841 51.72169495 C-32.65840466 55.77405215 -34.53800553 57.17211495 -40.25 57.375 C-43.89200225 57.32249407 -46.56574922 57.22640689 -49.5625 55.0625 C-52.566832 51.28782646 -54.13075702 47.87646766 -54 43 C-51.85706275 36.36482748 -47.96653684 32.3678033 -43.078125 27.51171875 C-42.29991394 26.72730911 -41.52170288 25.94289948 -40.71990967 25.13471985 C-39.07739368 23.48512281 -37.42975588 21.84061165 -35.77734375 20.20092773 C-33.25643685 17.69390141 -30.76046786 15.16379332 -28.265625 12.63085938 C-26.66291023 11.02719349 -25.05878958 9.42493115 -23.453125 7.82421875 C-22.34025116 6.6914576 -22.34025116 6.6914576 -21.20489502 5.53581238 C-14.8459039 -0.71101268 -8.68780706 -4.05309827 0 0 Z " fill="#000000" transform="translate(158,455)"/>
<path d="M0 0 C3.19985305 2.5998806 4.69883332 4.09649995 6 8 C6.38504544 13.19811339 6.00557423 15.78121041 3 20 C0.39757792 22.87427241 -2.34352553 25.59983978 -5.09765625 28.328125 C-5.88772568 29.11773621 -6.6777951 29.90734741 -7.49180603 30.72088623 C-9.15794163 32.38400736 -10.82650039 34.04470403 -12.49731445 35.703125 C-15.06195361 38.24945751 -17.61845035 40.80375168 -20.17382812 43.359375 C-21.79379872 44.97443202 -23.41422573 46.5890314 -25.03515625 48.203125 C-25.80287857 48.9697345 -26.57060089 49.73634399 -27.36158752 50.52618408 C-28.07250046 51.23071716 -28.78341339 51.93525024 -29.51586914 52.66113281 C-30.14191544 53.28336731 -30.76796173 53.90560181 -31.41297913 54.54669189 C-34.8073329 57.65505797 -38.11688164 57.27443254 -42.5234375 57.2109375 C-45.80865378 56.93112413 -47.55486004 56.22285451 -50 54 C-52.89550431 49.60682104 -53.55878366 46.21531417 -53 41 C-50.74448277 35.1802022 -46.85517906 31.40354767 -42.515625 27.08203125 C-41.78180603 26.34297043 -41.04798706 25.60390961 -40.29193115 24.842453 C-38.74234417 23.28646065 -37.18889093 21.73431023 -35.63183594 20.18579102 C-33.2596434 17.8221088 -30.90670333 15.44038063 -28.5546875 13.05664062 C-27.04279848 11.54313938 -25.52981321 10.03073226 -24.015625 8.51953125 C-23.31745667 7.81012894 -22.61928833 7.10072662 -21.89996338 6.36982727 C-15.21823997 -0.21841143 -9.26051512 -3.86721886 0 0 Z " fill="#000000" transform="translate(337,397)"/>
<path d="M0 0 C3.37669882 2.51456295 4.82465809 5.39726218 6 9.4375 C6 16.96608543 2.30484799 21.15316596 -2.77735901 26.25619507 C-3.5430571 27.00438507 -4.30875519 27.75257507 -5.09765625 28.5234375 C-5.88772568 29.31021881 -6.6777951 30.09700012 -7.49180603 30.90762329 C-9.15566898 32.56109898 -10.82427559 34.20981332 -12.49731445 35.85400391 C-15.06608065 38.37851896 -17.62109346 40.9163158 -20.17382812 43.45703125 C-21.79349592 45.06328177 -23.4139127 46.66877747 -25.03515625 48.2734375 C-25.80287857 49.03377289 -26.57060089 49.79410828 -27.36158752 50.57748413 C-28.07250046 51.27556183 -28.78341339 51.97363953 -29.51586914 52.69287109 C-30.14191544 53.30907318 -30.76796173 53.92527527 -31.41297913 54.56015015 C-34.78954319 57.62359144 -38.07711784 57.32942222 -42.453125 57.28515625 C-46.16066516 56.87004823 -48.25861356 55.4672478 -51 53 C-52.75296688 50.12658006 -53.29506805 47.9152443 -53.3125 44.5625 C-53.32925781 43.82128906 -53.34601563 43.08007812 -53.36328125 42.31640625 C-52.34558877 35.82724882 -46.68233106 31.35984775 -42.26171875 26.92578125 C-41.50333206 26.16073776 -40.74494537 25.39569427 -39.96357727 24.60746765 C-38.36157986 22.99536599 -36.75687661 21.38594928 -35.1496582 19.77905273 C-32.6961059 17.32112126 -30.25899318 14.84764465 -27.82226562 12.37304688 C-26.26139875 10.80631265 -24.69958104 9.240525 -23.13671875 7.67578125 C-22.41151535 6.93620682 -21.68631195 6.19663239 -20.93913269 5.43464661 C-14.44386611 -1.00274619 -8.82640649 -3.68986054 0 0 Z " fill="#000000" transform="translate(240,397)"/>
<path d="M0 0 C3.52685678 3.52685678 5.15294356 6.31214801 5.3125 11.25 C5.36857422 12.37148438 5.36857422 12.37148438 5.42578125 13.515625 C4.28188076 20.19012693 -1.87838067 25.17099204 -6.46875 29.734375 C-7.5447345 30.81322968 -7.5447345 30.81322968 -8.64245605 31.91387939 C-10.15289773 33.42567665 -11.66584638 34.93497289 -13.18115234 36.44189453 C-15.49941382 38.74941654 -17.80677643 41.06745183 -20.11328125 43.38671875 C-21.58529639 44.8574128 -23.05793154 46.3274866 -24.53125 47.796875 C-25.21989136 48.48956482 -25.90853271 49.18225464 -26.61804199 49.89593506 C-27.26551392 50.53710266 -27.91298584 51.17827026 -28.58007812 51.83886719 C-29.14537231 52.40257019 -29.7106665 52.96627319 -30.29309082 53.54705811 C-34.44698298 57.08290173 -38.21114876 57.49250578 -43.5234375 57.3828125 C-47.66288025 56.74296173 -49.23117794 55.11492481 -52 52 C-54.19936627 48.46188904 -54.38395298 45.21114003 -53.72972107 41.09255981 C-52.85365308 38.58033322 -51.67828792 37.16828337 -49.88696289 35.20654297 C-48.93830856 34.16321808 -48.93830856 34.16321808 -47.9704895 33.09881592 C-44.93299725 29.86350962 -41.86554498 26.66424311 -38.74609375 23.5078125 C-38.08215103 22.83579803 -37.41820831 22.16378357 -36.73414612 21.47140503 C-35.34318306 20.0667316 -33.95074653 18.66351583 -32.55688477 17.26171875 C-31.13769586 15.83092261 -29.72300809 14.3956485 -28.31274414 12.95605469 C-26.25856751 10.85928596 -24.19152774 8.77601492 -22.12109375 6.6953125 C-21.49593369 6.05264435 -20.87077362 5.4099762 -20.22666931 4.74783325 C-14.01765927 -1.43078022 -8.3336244 -3.40632937 0 0 Z " fill="#000000" transform="translate(143,397)"/>
<path d="M0 0 C5.78628817 5.46482772 8.10594961 14.05220838 11 21.3125 C11.45898682 22.45247437 11.45898682 22.45247437 11.92724609 23.61547852 C14.19438541 29.45517621 16.01627911 34.61330735 14.125 40.8125 C12.04651169 44.48449601 10.99838264 46.17271737 7.25 48.125 C1.99073758 48.97611728 -2.00694437 49.10632659 -6.7265625 46.44921875 C-11.10727284 42.46127642 -12.8953102 36.69221735 -14.95727539 31.27929688 C-15.68461929 29.38251239 -16.45022926 27.50461216 -17.22070312 25.625 C-19.96668985 18.58208725 -21.56992076 13.54997084 -19.75 6.125 C-15.13364277 -1.35668241 -8.08078542 -2.571159 0 0 Z " fill="#000000" transform="translate(291.75,24.875)"/>
<path d="M0 0 C1.65225586 0.23589844 1.65225586 0.23589844 3.33789062 0.4765625 C9.26792994 1.40704543 13.78015083 2.19117984 18.3125 6.25 C21.22354309 10.45202742 21.06393145 15.33858209 20.3125 20.25 C18.61161635 23.82696561 16.26252116 25.82608068 12.625 27.44921875 C8.70184884 28.39762204 5.37174275 28.13037569 1.4375 27.5625 C0.70370117 27.46437012 -0.03009766 27.36624023 -0.78613281 27.26513672 C-3.08994813 26.94650301 -5.38851833 26.60170625 -7.6875 26.25 C-8.43612305 26.13994629 -9.18474609 26.02989258 -9.95605469 25.91650391 C-12.12068145 25.59090678 -14.27901964 25.23895036 -16.4375 24.875 C-17.71109375 24.66101563 -18.9846875 24.44703125 -20.296875 24.2265625 C-24.75805544 22.9416603 -27.58556916 21.00307179 -30.0625 17.0625 C-31.25033213 11.71725544 -30.75953437 6.98743501 -27.875 2.3125 C-20.3539337 -4.77879109 -9.27539792 -1.47002167 0 0 Z " fill="#000000" transform="translate(467.6875,179.75)"/>
<path d="M0 0 C4.10064771 2.08760247 6.28254745 3.76465322 8 8 C8.3359375 10.11328125 8.3359375 10.11328125 8.375 12.3125 C8.40335937 13.03050781 8.43171875 13.74851562 8.4609375 14.48828125 C7.29962681 20.81644035 2.74875194 25.7924232 -1.375 30.5 C-1.85960693 31.06170898 -2.34421387 31.62341797 -2.84350586 32.20214844 C-3.7966793 33.30654574 -4.75192108 34.40916215 -5.70947266 35.50976562 C-7.35000014 37.4041621 -8.95432266 39.32812881 -10.5625 41.25 C-13.78015634 44.88017639 -13.78015634 44.88017639 -17.42578125 45.23828125 C-25.23179022 45.43897702 -25.23179022 45.43897702 -29.0625 43.25 C-31.960884 39.88413471 -33.29570256 37.15194571 -33.375 32.6875 C-33.40335937 31.96949219 -33.43171875 31.25148438 -33.4609375 30.51171875 C-32.29970153 24.18396683 -27.7489861 19.20703241 -23.625 14.5 C-23.13966797 13.93829102 -22.65433594 13.37658203 -22.15429688 12.79785156 C-21.20016964 11.69364408 -20.2441882 10.59103537 -19.28613281 9.49023438 C-17.65790107 7.60361202 -16.08277828 5.67478565 -14.5 3.75 C-10.43602592 -0.72037149 -5.74081272 -0.71515244 0 0 Z " fill="#000000" transform="translate(430,48)"/>
</svg>
