<?xml version="1.0" encoding="UTF-8"?>
<svg version="1.1" xmlns="http://www.w3.org/2000/svg" width="512" height="512">
<path d="M0 0 C10.41046449 9.2176212 19.84113205 19.02894695 27 31 C27.34708008 31.57202148 27.69416016 32.14404297 28.05175781 32.73339844 C48.05947737 65.86271185 54.26787932 104.04516227 45.0859375 141.75390625 C36.12402652 174.94212129 15.91755744 206.10885523 -14 224 C-14.57202148 224.34708008 -15.14404297 224.69416016 -15.73339844 225.05175781 C-48.86271185 245.05947737 -87.04516227 251.26787932 -124.75390625 242.0859375 C-157.94212129 233.12402652 -189.10885523 212.91755744 -207 183 C-207.52062012 182.14196777 -207.52062012 182.14196777 -208.05175781 181.26660156 C-228.05947737 148.13728815 -234.26787932 109.95483773 -225.0859375 72.24609375 C-216.12402652 39.05787871 -195.91755744 7.89114477 -166 -10 C-165.14196777 -10.52062012 -165.14196777 -10.52062012 -164.26660156 -11.05175781 C-112.62459119 -42.23981317 -46.94981613 -38.65913571 0 0 Z M-163.25 45.375 C-181.60264492 66.81180309 -187.03115237 92.57722077 -185 120 C-182.14309313 144.66603669 -167.98288559 166.24555798 -149.42578125 182.1328125 C-127.33340084 199.13789759 -101.81178301 204.87378772 -74.43261719 201.70263672 C-50.02138437 197.87776409 -27.94894413 183.4211178 -13 164 C2.62734451 141.5096962 8.58657857 116.22084367 4.33984375 89.1171875 C-0.44085573 64.51575762 -15.43470753 42.20520983 -35.95703125 27.9453125 C-78.9022638 0.42297483 -129.07413483 8.99208287 -163.25 45.375 Z " fill="#000000" transform="translate(346,149)"/>
<path d="M0 0 C8.32919334 5.67634432 15.40703366 13.53209768 22.52294922 20.64916992 C24.05077796 22.17478085 25.58649456 23.69215893 27.12255859 25.20947266 C28.11262972 26.19661387 29.10223046 27.18422713 30.09130859 28.17236328 C31.40977783 29.48466919 31.40977783 29.48466919 32.75488281 30.82348633 C37.60513966 36.16329537 41.16162109 41.50373824 41.16162109 48.93017578 C40.63118777 56.3009888 38.85908316 61.09178278 33.41162109 66.22314453 C27.41467345 71.15154514 22.21296969 71.77465112 14.68896484 71.05517578 C9.41854575 69.84143166 5.44498378 67.1377258 1.52490234 63.50830078 C0.66461426 62.71182129 -0.19567383 61.9153418 -1.08203125 61.09472656 C-5.48194356 56.9099384 -9.84280704 52.69209958 -14.14477539 48.40698242 C-15.65999434 46.9015882 -17.18558948 45.40721979 -18.71142578 43.91259766 C-32.89914602 29.87864251 -32.89914602 29.87864251 -33.08837891 19.72314453 C-32.98810923 12.05808452 -30.00437327 6.88513862 -24.83837891 1.47314453 C-17.60513512 -3.64305229 -7.76587928 -4.60177335 0 0 Z " fill="#000000" transform="translate(402.83837890625,372.52685546875)"/>
<path d="M0 0 C5.83032834 3.25152927 10.80753196 6.98734282 12.8046875 13.66796875 C14.10509149 19.93044058 14.03349806 26.06437911 10.72314453 31.65087891 C5.04680021 39.98007225 -2.80895315 47.05791256 -9.92602539 54.17382812 C-11.45163632 55.70165687 -12.9690144 57.23737347 -14.48632812 58.7734375 C-15.47346934 59.76350863 -16.4610826 60.75310937 -17.44921875 61.7421875 C-18.76152466 63.06065674 -18.76152466 63.06065674 -20.1003418 64.40576172 C-25.44015084 69.25601857 -30.78059371 72.8125 -38.20703125 72.8125 C-45.57784427 72.28206668 -50.36863825 70.50996206 -55.5 65.0625 C-60.42840061 59.06555236 -61.05150659 53.8638486 -60.33203125 46.33984375 C-59.11828713 41.06942466 -56.41458127 37.09586269 -52.78515625 33.17578125 C-51.98867676 32.31549316 -51.19219727 31.45520508 -50.37158203 30.56884766 C-46.18679387 26.16893535 -41.96895505 21.80807186 -37.68383789 17.50610352 C-36.17844367 15.99088457 -34.68407525 14.46528942 -33.18945312 12.93945312 C-23.55476771 3.19920387 -14.25569281 -4.51430272 0 0 Z " fill="#000000" transform="translate(128.75,371.1875)"/>
<path d="M0 0 C4.70370065 4.40536869 8.09628795 8.44808763 9 15 C8.95973792 23.41477435 6.82827836 29.37966417 1.03515625 35.63671875 C0.23867676 36.49700684 -0.55780273 37.35729492 -1.37841797 38.24365234 C-5.56320613 42.64356465 -9.78104495 47.00442814 -14.06616211 51.30639648 C-15.57155633 52.82161543 -17.06592475 54.34721058 -18.56054688 55.87304688 C-32.59450202 70.06076712 -32.59450202 70.06076712 -42.75 70.25 C-50.41506001 70.14973032 -55.58800591 67.16599436 -61 62 C-65.18947965 56.07694256 -65.73218798 50.10653038 -65 43 C-61.85834105 31.70700972 -49.90687217 22.72025579 -41.82397461 14.63867188 C-40.29836368 13.11084313 -38.7809856 11.57512653 -37.26367188 10.0390625 C-36.27653066 9.04899137 -35.2889174 8.05939063 -34.30078125 7.0703125 C-33.42591064 6.19133301 -32.55104004 5.31235352 -31.6496582 4.40673828 C-22.68013457 -3.74046193 -10.68972664 -7.36403391 0 0 Z " fill="#000000" transform="translate(435,72)"/>
<path d="M0 0 C2.3581543 1.85522461 2.3581543 1.85522461 4.63671875 3.96484375 C5.49700684 4.76132324 6.35729492 5.55780273 7.24365234 6.37841797 C11.64356465 10.56320613 16.00442814 14.78104495 20.30639648 19.06616211 C21.82161543 20.57155633 23.34721058 22.06592475 24.87304688 23.56054688 C39.06076712 37.59450202 39.06076712 37.59450202 39.25 47.75 C39.14973032 55.41506001 36.16599436 60.58800591 31 66 C25.07694256 70.18947965 19.10653038 70.73218798 12 70 C0.70700972 66.85834105 -8.27974421 54.90687217 -16.36132812 46.82397461 C-17.88915687 45.29836368 -19.42487347 43.7809856 -20.9609375 42.26367188 C-21.95100863 41.27653066 -22.94060937 40.2889174 -23.9296875 39.30078125 C-24.80866699 38.42591064 -25.68764648 37.55104004 -26.59326172 36.6496582 C-31.44351857 31.30984916 -35 25.96940629 -35 18.54296875 C-34.46956668 11.17215573 -32.69746206 6.38136175 -27.25 1.25 C-18.72983827 -5.75202383 -9.31298453 -5.0891816 0 0 Z " fill="#000000" transform="translate(103,72)"/>
<path d="M0 0 C4.7282244 3.97600688 8.83211842 8.81013869 10 15 C10.09886072 16.63689459 10.14804078 18.27716722 10.16113281 19.91699219 C10.17074036 20.89190613 10.1803479 21.86682007 10.19024658 22.87127686 C10.19449646 23.91922424 10.19874634 24.96717163 10.203125 26.046875 C10.20882507 27.13204407 10.21452515 28.21721313 10.22039795 29.33526611 C10.22984084 31.63170397 10.23637911 33.92815534 10.24023438 36.22460938 C10.24992493 39.72289944 10.28094959 43.22059814 10.3125 46.71875 C10.31903196 48.95312152 10.32428167 51.18749724 10.328125 53.421875 C10.3404718 54.46172546 10.3528186 55.50157593 10.36553955 56.57293701 C10.33921162 65.23624061 8.71017715 72.04772539 2.6484375 78.5234375 C-2.63983749 83.26032837 -8.21956356 83.54889884 -15.06640625 83.34375 C-21.9987697 82.53143577 -26.29399847 79.24183976 -30.7734375 74.07421875 C-34.54367555 67.69843402 -34.30712386 60.84521428 -34.30078125 53.66015625 C-34.30506638 52.57923203 -34.3093515 51.4983078 -34.31376648 50.3846283 C-34.31949136 48.10611672 -34.32002368 45.82758688 -34.31567383 43.54907227 C-34.31251349 40.07731751 -34.33599839 36.60641524 -34.36132812 33.13476562 C-34.36360137 30.91406357 -34.3643045 28.69335923 -34.36328125 26.47265625 C-34.372491 25.44221695 -34.38170074 24.41177765 -34.39118958 23.35011292 C-34.3442947 15.98822388 -33.58654823 10.0758952 -28.6875 4.25 C-19.76221519 -3.22233147 -10.66967034 -5.7363819 0 0 Z " fill="#000000" transform="translate(268,429)"/>
<path d="M0 0 C1.46237091 -0.01441132 1.46237091 -0.01441132 2.95428467 -0.02911377 C4.00223206 -0.03336365 5.05017944 -0.03761353 6.12988281 -0.04199219 C7.75763641 -0.0505423 7.75763641 -0.0505423 9.41827393 -0.05926514 C11.71471178 -0.06870803 14.01116315 -0.0752463 16.30761719 -0.07910156 C19.80590725 -0.08879212 23.30360595 -0.11981678 26.80175781 -0.15136719 C29.03612934 -0.15789915 31.27050505 -0.16314886 33.50488281 -0.16699219 C34.54473328 -0.17933899 35.58458374 -0.19168579 36.65594482 -0.20440674 C45.31924843 -0.17807881 52.1307332 1.45095566 58.60644531 7.51269531 C63.34333618 12.8009703 63.63190666 18.38069637 63.42675781 25.22753906 C62.61444359 32.15990251 59.32484757 36.45513128 54.15722656 40.93457031 C47.78144183 44.70480836 40.92822209 44.46825667 33.74316406 44.46191406 C32.12177773 44.46834175 32.12177773 44.46834175 30.46763611 44.47489929 C28.18912453 44.48062417 25.91059469 44.48115649 23.63208008 44.47680664 C20.16032533 44.4736463 16.68942305 44.4971312 13.21777344 44.52246094 C10.99707138 44.52473418 8.77636705 44.52543731 6.55566406 44.52441406 C5.52522476 44.53362381 4.49478546 44.54283356 3.43312073 44.55232239 C-3.9287683 44.50542751 -9.84109699 43.74768105 -15.66699219 38.84863281 C-20.85496045 32.65189294 -23.26785455 28.42925352 -23.13183594 20.31347656 C-22.48519792 13.8353393 -19.90810318 9.33973737 -14.91699219 5.16113281 C-9.77178945 1.38098386 -6.30321783 0.05032361 0 0 Z " fill="#000000" transform="translate(448.9169921875,233.8388671875)"/>
<path d="M0 0 C1.62138634 -0.00642769 1.62138634 -0.00642769 3.27552795 -0.01298523 C5.55403953 -0.01871011 7.83256937 -0.01924243 10.11108398 -0.01489258 C13.58283874 -0.01173224 17.05374101 -0.03521714 20.52539062 -0.06054688 C22.74609268 -0.06282012 24.96679702 -0.06352325 27.1875 -0.0625 C28.73315895 -0.07631462 28.73315895 -0.07631462 30.31004333 -0.09040833 C37.67193237 -0.04351345 43.58426105 0.71423302 49.41015625 5.61328125 C54.59812452 11.81002112 57.01101861 16.03266054 56.875 24.1484375 C56.22836198 30.62657476 53.65126725 35.12217669 48.66015625 39.30078125 C43.51495351 43.0809302 40.0463819 44.41159045 33.74316406 44.46191406 C32.28079315 44.47632538 32.28079315 44.47632538 30.78887939 44.49102783 C29.74093201 44.49527771 28.69298462 44.49952759 27.61328125 44.50390625 C25.98552765 44.51245636 25.98552765 44.51245636 24.32489014 44.5211792 C22.02845228 44.53062209 19.73200091 44.53716036 17.43554688 44.54101562 C13.93725681 44.55070618 10.43955811 44.58173084 6.94140625 44.61328125 C4.70703473 44.61981321 2.47265901 44.62506292 0.23828125 44.62890625 C-0.80156921 44.64125305 -1.84141968 44.65359985 -2.91278076 44.6663208 C-11.57608436 44.63999287 -18.38756914 43.0109584 -24.86328125 36.94921875 C-29.60017212 31.66094376 -29.88874259 26.08121769 -29.68359375 19.234375 C-28.87127952 12.30201155 -25.58168351 8.00678278 -20.4140625 3.52734375 C-14.03827777 -0.2428943 -7.18505803 -0.00634261 0 0 Z " fill="#000000" transform="translate(29.33984375,233.69921875)"/>
<path d="M0 0 C5.47867403 4.15792226 8.43871845 8.53874486 9.75 15.328125 C10.04384848 19.10895861 10.05412771 22.8770218 10.05078125 26.66796875 C10.05506638 27.74889297 10.0593515 28.8298172 10.06376648 29.9434967 C10.06949136 32.22200828 10.07002368 34.50053812 10.06567383 36.77905273 C10.06251349 40.25080749 10.08599839 43.72170976 10.11132812 47.19335938 C10.11360137 49.41406143 10.1143045 51.63476577 10.11328125 53.85546875 C10.122491 54.88590805 10.13170074 55.91634735 10.14118958 56.97801208 C10.0942947 64.33990112 9.33654823 70.2522298 4.4375 76.078125 C-1.75923987 81.26609327 -5.98187929 83.67898736 -14.09765625 83.54296875 C-20.57579351 82.89633073 -25.07139544 80.319236 -29.25 75.328125 C-33.03014895 70.18292226 -34.3608092 66.71435065 -34.41113281 60.41113281 C-34.42074036 59.43621887 -34.4303479 58.46130493 -34.44024658 57.45684814 C-34.44449646 56.40890076 -34.44874634 55.36095337 -34.453125 54.28125 C-34.45882507 53.19608093 -34.46452515 52.11091187 -34.47039795 50.99285889 C-34.47984084 48.69642103 -34.48637911 46.39996966 -34.49023438 44.10351562 C-34.49992493 40.60522556 -34.53094959 37.10752686 -34.5625 33.609375 C-34.56903196 31.37500348 -34.57428167 29.14062776 -34.578125 26.90625 C-34.5966452 25.3464743 -34.5966452 25.3464743 -34.61553955 23.75518799 C-34.58921162 15.09188439 -32.96017715 8.28039961 -26.8984375 1.8046875 C-19.75821523 -4.59105662 -8.09760004 -4.79108003 0 0 Z " fill="#000000" transform="translate(268.25,2.671875)"/>
</svg>
