<?xml version="1.0" encoding="UTF-8"?>
<svg version="1.1" xmlns="http://www.w3.org/2000/svg" width="512" height="512">
<path d="M0 0 C4.80120046 3.92305418 9.22779805 8.22514108 13.60546875 12.609375 C14.9368505 13.93858484 16.28046952 15.25682337 17.66796875 16.52734375 C34.67747131 32.31251193 45.23321764 55.93244617 51 78 C51.45052734 79.68029297 51.45052734 79.68029297 51.91015625 81.39453125 C58.24592067 110.00861148 55.52072004 144.7814975 42 171 C42.58438308 170.99962297 43.16876616 170.99924595 43.77085781 170.9988575 C58.01944324 170.9917266 72.26764943 171.01776193 86.5161047 171.0802784 C93.40673137 171.10971986 100.2970508 171.12811802 107.18774414 171.12011719 C113.84044758 171.1124242 120.49257069 171.13603723 127.14517403 171.17855453 C129.68039115 171.18967725 132.21567644 171.19039357 134.75089836 171.18042374 C138.30854963 171.16822889 141.86415811 171.19337685 145.42163086 171.22705078 C146.98609703 171.20871941 146.98609703 171.20871941 148.58216858 171.1900177 C155.86543415 171.31384916 160.49275357 173.20290514 166 178 C170.58457499 183.36730731 170.72630365 188.59136441 170.51171875 195.546875 C169.53180689 202.15940998 166.49772403 206.04744871 161.33494568 210.08335876 C155.37593307 213.38749541 148.26353736 212.56484534 141.64477539 212.53344727 C140.08038013 212.54051104 138.5159917 212.54925799 136.95161438 212.55955505 C132.7159771 212.58200784 128.48071422 212.57911899 124.24504018 212.57023358 C120.7038246 212.56511403 117.16267878 212.57242411 113.62147039 212.57970566 C105.26491857 212.59669168 96.90854942 212.59315202 88.55200195 212.57641602 C79.94208729 212.55949514 71.33267964 212.57533154 62.72282034 212.6076389 C55.31960498 212.63436207 47.91654718 212.64160347 40.51328844 212.63312382 C36.09648823 212.62820262 31.67999301 212.63036628 27.26323128 212.65091133 C23.10891172 212.66931153 18.95531958 212.66325745 14.80103874 212.63871193 C13.28053014 212.63371773 11.7599657 212.63715764 10.23950195 212.64986038 C-4.93677618 212.76657592 -4.93677618 212.76657592 -11 207 C-15.63835036 201.64887295 -17.37198921 197.34539533 -17.19921875 190.12890625 C-16.59143517 183.63396406 -13.92438066 179.71709395 -9.8125 174.875 C8.94231833 152.77110696 13.80032221 126.32535243 12 98 C9.34659786 73.77001614 -4.80608657 51.23340847 -22.90625 35.46875 C-44.71955425 18.34647892 -71.31381943 10.80047399 -98.87402344 13.89892578 C-124.52149123 17.28447423 -148.83022094 31.39131524 -164.75 51.75 C-181.41858659 75.15245401 -187.76924239 102.47774177 -183.34765625 131.04296875 C-180.74590181 144.29895975 -174.9021331 156.8786547 -167.28515625 167.9609375 C-166 170 -166 170 -166 172 C-164.93004288 171.98667633 -163.86008575 171.97335266 -162.75770569 171.95962524 C-152.65065537 171.83774099 -142.5437551 171.74793039 -132.43613529 171.68912697 C-127.24023251 171.65787835 -122.0449253 171.61552392 -116.84936523 171.54736328 C-111.83076095 171.48193977 -106.81272776 171.44624534 -101.79372978 171.43073654 C-99.88360039 171.41969137 -97.97350057 171.39812236 -96.0636158 171.36561966 C-77.99248349 171.07044805 -77.99248349 171.07044805 -71.51902771 176.41513062 C-66.66535448 181.47918445 -65.72623587 184.92501355 -65.375 191.875 C-65.55465079 197.69816348 -66.6214324 201.42118226 -70.00390625 206.1328125 C-76.08617446 211.82229236 -81.23759024 212.58557604 -89.27218628 212.52139282 C-90.29270525 212.52904392 -91.31322422 212.53669501 -92.36466801 212.54457796 C-95.77701429 212.5651807 -99.1886839 212.55726506 -102.60107422 212.54931641 C-105.05053326 212.55801258 -107.49998686 212.56837953 -109.94943237 212.58029175 C-115.90795008 212.60429328 -121.86620283 212.60937705 -127.82474457 212.60469122 C-132.669582 212.601121 -137.5143648 212.60463241 -142.35919571 212.61314011 C-143.04948908 212.61433048 -143.73978246 212.61552086 -144.45099381 212.61674731 C-145.8534615 212.61917089 -147.25592918 212.62159916 -148.65839685 212.62403207 C-161.80285777 212.64577139 -174.947216 212.64146372 -188.09168269 212.62926237 C-200.10655977 212.61892574 -212.12111247 212.64143208 -224.1359254 212.67945881 C-236.48386666 212.71823915 -248.83165456 212.73472349 -261.1796571 212.72721231 C-268.10768188 212.72339164 -275.03543062 212.72832987 -281.96340561 212.75664139 C-288.47901337 212.78299908 -294.9940798 212.77791762 -301.50972366 212.75181961 C-303.8989865 212.74708723 -306.28829498 212.75256065 -308.67750549 212.76906586 C-311.94370459 212.78999994 -315.20772504 212.77380585 -318.47384644 212.7484436 C-319.88646643 212.77056646 -319.88646643 212.77056646 -321.3276242 212.79313624 C-328.28343078 212.6797839 -332.72359238 210.50652754 -338 206 C-342.58457499 200.63269269 -342.72630365 195.40863559 -342.51171875 188.453125 C-341.7439892 183.27241569 -339.82192918 179.57511183 -336 176 C-329.91219517 171.65109913 -325.00874316 171.41884645 -317.64868164 171.45410156 C-316.52599884 171.44376389 -315.40331604 171.43342621 -314.24661255 171.42277527 C-310.55098023 171.39337459 -306.85589627 171.3918486 -303.16015625 171.390625 C-300.59182187 171.37564161 -298.02349712 171.35891413 -295.45518494 171.34051514 C-289.39572383 171.30130639 -283.33643456 171.2796342 -277.27686828 171.26654124 C-270.37468565 171.25064282 -263.47268503 171.21221539 -256.57060826 171.17194796 C-242.3804716 171.08966322 -228.19032698 171.03549987 -214 171 C-214.41404587 169.98208374 -214.82809174 168.96416748 -215.25468445 167.91540527 C-215.80233312 166.56019569 -216.34983619 165.20492726 -216.8972168 163.84960938 C-217.1696093 163.18104919 -217.4420018 162.51248901 -217.72264862 161.82366943 C-219.87782714 156.47451696 -221.51618697 151.12190493 -222.8125 145.5 C-223.01552734 144.67242187 -223.21855469 143.84484375 -223.42773438 142.9921875 C-231.82558824 108.07041894 -225.07768512 69.77035812 -207 39 C-200.26877366 28.27609654 -192.06182996 18.82336075 -183 10 C-182.32517578 9.2575 -182.32517578 9.2575 -181.63671875 8.5 C-135.73500726 -40.70481232 -51.04747169 -38.85659643 0 0 Z " fill="#000000" transform="translate(342,144)"/>
<path d="M0 0 C1.13179688 -0.03351563 2.26359375 -0.06703125 3.4296875 -0.1015625 C12.56753381 1.6950965 19.28082866 9.33526208 25.61328125 15.71484375 C26.47890182 16.57759415 27.3445224 17.44034454 28.2363739 18.32923889 C30.05262701 20.14346197 31.86514321 21.96143315 33.67407227 23.78295898 C36.43632586 26.56131901 39.21427685 29.32325654 41.99414062 32.08398438 C43.76398383 33.85580943 45.53289651 35.62856458 47.30078125 37.40234375 C48.12685379 38.2223436 48.95292633 39.04234344 49.80403137 39.88719177 C55.96062461 46.1192501 60.68751061 51.31405896 60.75 60.5 C60.53775844 67.3795541 58.94899741 71.71466706 54.125 76.625 C48.75582314 81.2111719 43.5378318 81.33753546 36.58203125 81.15234375 C29.89355635 80.13206792 25.73784287 76.27188599 21.125 71.625 C21.12669189 73.19012329 21.12669189 73.19012329 21.12841797 74.78686523 C21.12471885 78.69560758 21.0816734 82.60313542 21.02734375 86.51147461 C21.00928816 88.1959648 21.00159614 89.8806018 21.00488281 91.56518555 C21.02489455 108.45008777 21.02489455 108.45008777 15.69970703 115.05859375 C10.72724827 120.0048411 7.16710993 120.90042563 0.25 121.25 C-5.57316348 121.07034921 -9.29618226 120.0035676 -14.0078125 116.62109375 C-19.13981867 111.13478589 -20.47248118 106.3396254 -20.484375 99.06640625 C-20.50091125 98.27725327 -20.51744751 97.48810028 -20.53448486 96.67503357 C-20.58268363 94.17910768 -20.6042719 91.6837897 -20.625 89.1875 C-20.6531834 87.48499592 -20.68311412 85.78251981 -20.71484375 84.08007812 C-20.78843421 79.92843555 -20.83817969 75.77712487 -20.875 71.625 C-21.40609375 72.10710937 -21.9371875 72.58921875 -22.484375 73.0859375 C-23.19078125 73.71757812 -23.8971875 74.34921875 -24.625 75 C-25.32109375 75.62648438 -26.0171875 76.25296875 -26.734375 76.8984375 C-32.00055183 81.14597429 -36.67650113 81.17004681 -43.31640625 81.06640625 C-50.22073688 80.20999641 -54.04593566 76.76634362 -58.4375 71.625 C-61.04667399 66.16393816 -61.01803081 59.43847929 -59.875 53.625 C-56.05245341 46.45320895 -50.50279184 40.81211538 -44.78515625 35.13671875 C-43.92240585 34.27109818 -43.05965546 33.4054776 -42.17076111 32.5136261 C-40.35653803 30.69737299 -38.53856685 28.88485679 -36.71704102 27.07592773 C-33.93868099 24.31367414 -31.17674346 21.53572315 -28.41601562 18.75585938 C-26.64419057 16.98601617 -24.87143542 15.21710349 -23.09765625 13.44921875 C-22.2776564 12.62314621 -21.45765656 11.79707367 -20.61280823 10.94596863 C-14.3807499 4.78937539 -9.18594104 0.06248939 0 0 Z " fill="#000000" transform="translate(255.875,391.375)"/>
<path d="M0 0 C5.55353962 2.49385364 9.19274981 6.10909644 11.8046875 11.6640625 C12.74544378 14.45332236 13.0278038 16.67983613 13.0703125 19.6171875 C13.09867187 20.50019531 13.12703125 21.38320312 13.15625 22.29296875 C11.96107174 30.10214199 7.17508034 35.40847962 1.69921875 40.76171875 C0.6933799 41.76618294 0.6933799 41.76618294 -0.33277893 42.79093933 C-1.74258932 44.19474359 -3.15722133 45.59372073 -4.57641602 46.98803711 C-6.74296534 49.11795218 -8.89295848 51.26356175 -11.04101562 53.41210938 C-12.41832925 54.77959484 -13.79655373 56.14616364 -15.17578125 57.51171875 C-15.81551376 58.14922562 -16.45524628 58.78673248 -17.11436462 59.44355774 C-22.92670006 65.13378387 -27.78967465 68.36713138 -36.0546875 68.6171875 C-41.27319025 68.53277054 -45.14577202 67.51960931 -49.3046875 64.3046875 C-53.9334682 59.2926962 -56.4319654 55.02889649 -56.6171875 48.1171875 C-56.65457031 47.21613281 -56.69195312 46.31507812 -56.73046875 45.38671875 C-55.65344756 37.5906663 -50.83685086 32.23616429 -45.4140625 26.8828125 C-44.75061829 26.21554138 -44.08717407 25.54827026 -43.40362549 24.86077881 C-42.00657801 23.46102491 -40.60452868 22.066247 -39.19775391 20.67626953 C-37.06061191 18.56055251 -34.94566365 16.42433104 -32.83203125 14.28515625 C-31.46482224 12.92059074 -30.09637279 11.55726671 -28.7265625 10.1953125 C-28.10231384 9.56296692 -27.47806519 8.93062134 -26.8348999 8.27911377 C-19.17143344 0.77479968 -10.7853342 -3.25388049 0 0 Z " fill="#000000" transform="translate(433.3046875,66.6953125)"/>
<path d="M0 0 C1.32451172 -0.04253906 1.32451172 -0.04253906 2.67578125 -0.0859375 C10.48495449 1.10924076 15.79129212 5.89523216 21.14453125 11.37109375 C22.14899544 12.3769326 22.14899544 12.3769326 23.17375183 13.40309143 C24.57755609 14.81290182 25.97653323 16.22753383 27.37084961 17.64672852 C29.50076468 19.81327784 31.64637425 21.96327098 33.79492188 24.11132812 C35.16240734 25.48864175 36.52897614 26.86686623 37.89453125 28.24609375 C38.85079155 29.20569252 38.85079155 29.20569252 39.82637024 30.18467712 C45.51659637 35.99701256 48.74994388 40.85998715 49 49.125 C48.91558304 54.34350275 47.90242181 58.21608452 44.6875 62.375 C38.85830802 67.75849923 34.15550381 69.70818557 26.2421875 69.58203125 C14.58798743 68.63757773 5.47104339 56.39750132 -2.37744141 48.60522461 C-3.50354535 47.49070475 -4.63411852 46.38068305 -5.76904297 45.27514648 C-19.26020898 32.13165089 -19.26020898 32.13165089 -20.84375 23.46875 C-20.75970513 16.49302591 -19.75288332 11.06987742 -14.88671875 5.84375 C-10.37217531 1.8308225 -5.98914941 0.08667365 0 0 Z " fill="#000000" transform="translate(86.3125,65.625)"/>
<path d="M0 0 C1.7510051 -0.01285538 1.7510051 -0.01285538 3.53738403 -0.02597046 C5.99999403 -0.03742637 8.46267168 -0.03848017 10.92529297 -0.02978516 C14.67664032 -0.02346894 18.42482399 -0.07039849 22.17578125 -0.12109375 C24.57551688 -0.12564079 26.97526094 -0.12704624 29.375 -0.125 C30.48777313 -0.14341949 31.60054626 -0.16183899 32.74703979 -0.18081665 C40.31150318 -0.09173485 45.12370579 1.54941644 50.8203125 6.6015625 C55.40488749 11.96886981 55.54661615 17.19292691 55.33203125 24.1484375 C54.5643017 29.32914681 52.64224168 33.02645067 48.8203125 36.6015625 C42.57463879 41.13631885 37.2176352 41.21549178 29.640625 41.203125 C28.47328827 41.21169525 27.30595154 41.2202655 26.10324097 41.22909546 C23.64063097 41.24055137 21.17795332 41.24160517 18.71533203 41.23291016 C14.96398468 41.22659394 11.21580101 41.27352349 7.46484375 41.32421875 C5.06510812 41.32876579 2.66536406 41.33017124 0.265625 41.328125 C-0.84714813 41.34654449 -1.95992126 41.36496399 -3.10641479 41.38394165 C-10.67087818 41.29485985 -15.48308079 39.65370856 -21.1796875 34.6015625 C-25.76426249 29.23425519 -25.90599115 24.01019809 -25.69140625 17.0546875 C-24.9236767 11.87397819 -23.00161668 8.17667433 -19.1796875 4.6015625 C-12.93401379 0.06680615 -7.5770102 -0.01236678 0 0 Z " fill="#000000" transform="translate(457.1796875,235.3984375)"/>
<path d="M0 0 C1.7510051 -0.01285538 1.7510051 -0.01285538 3.53738403 -0.02597046 C5.99999403 -0.03742637 8.46267168 -0.03848017 10.92529297 -0.02978516 C14.67664032 -0.02346894 18.42482399 -0.07039849 22.17578125 -0.12109375 C24.57551688 -0.12564079 26.97526094 -0.12704624 29.375 -0.125 C30.48777313 -0.14341949 31.60054626 -0.16183899 32.74703979 -0.18081665 C40.31150318 -0.09173485 45.12370579 1.54941644 50.8203125 6.6015625 C55.40488749 11.96886981 55.54661615 17.19292691 55.33203125 24.1484375 C54.5643017 29.32914681 52.64224168 33.02645067 48.8203125 36.6015625 C42.57463879 41.13631885 37.2176352 41.21549178 29.640625 41.203125 C28.47328827 41.21169525 27.30595154 41.2202655 26.10324097 41.22909546 C23.64063097 41.24055137 21.17795332 41.24160517 18.71533203 41.23291016 C14.96398468 41.22659394 11.21580101 41.27352349 7.46484375 41.32421875 C5.06510812 41.32876579 2.66536406 41.33017124 0.265625 41.328125 C-0.84714813 41.34654449 -1.95992126 41.36496399 -3.10641479 41.38394165 C-10.67087818 41.29485985 -15.48308079 39.65370856 -21.1796875 34.6015625 C-25.76426249 29.23425519 -25.90599115 24.01019809 -25.69140625 17.0546875 C-24.9236767 11.87397819 -23.00161668 8.17667433 -19.1796875 4.6015625 C-12.93401379 0.06680615 -7.5770102 -0.01236678 0 0 Z " fill="#000000" transform="translate(25.1796875,235.3984375)"/>
<path d="M0 0 C4.86378685 3.00362996 8.15005075 6.4963896 10.234375 11.89453125 C10.83369362 15.95526885 10.84262872 19.97457197 10.8359375 24.07421875 C10.84450775 25.24155548 10.853078 26.40889221 10.86190796 27.61160278 C10.87336387 30.07421278 10.87441767 32.53689043 10.86572266 34.99951172 C10.85940644 38.75085907 10.90633599 42.49904274 10.95703125 46.25 C10.96157829 48.64973563 10.96298374 51.04947969 10.9609375 53.44921875 C10.97935699 54.56199188 10.99777649 55.67476501 11.01675415 56.82125854 C10.92767235 64.38572193 9.28652106 69.19792454 4.234375 74.89453125 C-1.13293231 79.47910624 -6.35698941 79.6208349 -13.3125 79.40625 C-18.49320931 78.63852045 -22.19051317 76.71646043 -25.765625 72.89453125 C-30.30038135 66.64885754 -30.37955428 61.29185395 -30.3671875 53.71484375 C-30.37575775 52.54750702 -30.384328 51.38017029 -30.39315796 50.17745972 C-30.40461387 47.71484972 -30.40566767 45.25217207 -30.39697266 42.78955078 C-30.39065644 39.03820343 -30.43758599 35.29001976 -30.48828125 31.5390625 C-30.49282829 29.13932687 -30.49423374 26.73958281 -30.4921875 24.33984375 C-30.51060699 23.22707062 -30.52902649 22.11429749 -30.54800415 20.96780396 C-30.45892235 13.40334057 -28.81777106 8.59113796 -23.765625 2.89453125 C-17.29271618 -2.6344117 -7.84970384 -3.13766411 0 0 Z " fill="#000000" transform="translate(265.765625,1.10546875)"/>
</svg>
