<svg xmlns="http://www.w3.org/2000/svg" version="1.1" viewBox="25.63 68.47 460.49 375.02">
<path d="M0 0 C0.69319336 0.16097168 1.38638672 0.32194336 2.10058594 0.48779297 C36.82002014 8.85034063 65.69613702 31.75488849 84.37109375 61.7734375 C93.33685041 76.6582799 102 96.30211158 102 114 C103.03459351 113.99111755 104.06918701 113.98223511 105.13513184 113.9730835 C114.90409786 113.89185705 124.672995 113.83196719 134.4422226 113.79275131 C139.46422952 113.77191192 144.48596295 113.74366102 149.5078125 113.69824219 C154.35780003 113.65465421 159.20752514 113.63083547 164.05769348 113.62049103 C165.90440499 113.61312287 167.75110278 113.5987346 169.59770203 113.57707977 C172.19239899 113.54787318 174.78602344 113.54405113 177.38085938 113.54589844 C178.1375592 113.53151733 178.89425903 113.51713623 179.67388916 113.50231934 C185.14327104 113.54421796 189.46293696 114.88169487 194 118 C198.16914657 123.23815851 199.54727424 127.32325422 199 134 C197.19007388 139.27239347 194.76547618 142.94520757 190 146 C186.53315797 147.15561401 183.4433719 147.14067379 179.8384428 147.13142776 C178.73175048 147.13450672 178.73175048 147.13450672 177.60270074 147.13764787 C175.11090568 147.14333784 172.61916555 147.14185817 170.12736511 147.14044189 C168.33063849 147.14302438 166.53391245 147.14603722 164.73718721 147.1494453 C159.78445988 147.15753215 154.83174704 147.1593058 149.8790139 147.16004276 C144.54351973 147.16189038 139.20803314 147.16943621 133.87254333 147.17617798 C122.19913771 147.18977351 110.52573552 147.19578784 98.85232329 147.20018864 C91.56742959 147.20294884 84.28253723 147.20718577 76.99764442 147.21169281 C56.83924919 147.22388677 36.68085502 147.23418603 16.52245617 147.2375679 C15.2316924 147.23778747 13.94092863 147.23800703 12.6110508 147.23823325 C11.31715054 147.23845153 10.02325027 147.23866981 8.6901409 147.2388947 C6.06808547 147.23933817 3.44603004 147.23978474 0.82397461 147.24023438 C-0.47666306 147.2404558 -1.77730074 147.24067723 -3.11735167 147.24090537 C-24.20046629 147.24485483 -45.28354637 147.26231281 -66.36664764 147.2855939 C-87.99747034 147.30928759 -109.62827569 147.32176884 -131.25911158 147.32293582 C-143.41005787 147.32385367 -155.56095916 147.32963353 -167.71189308 147.34775543 C-178.05713204 147.36312965 -188.4023121 147.36829273 -198.7475603 147.36001733 C-204.02823869 147.35610139 -209.30879837 147.35708634 -214.58946228 147.37107468 C-219.42118044 147.38375703 -224.25269001 147.38266616 -229.08440765 147.37048396 C-230.8347516 147.36851711 -232.58511004 147.3716507 -234.33543358 147.38032833 C-236.71085052 147.39136179 -239.08552357 147.38397494 -241.46091938 147.3719368 C-242.14379437 147.37953199 -242.82666936 147.38712718 -243.53023753 147.39495254 C-248.0659849 147.34517618 -251.13673508 146.35201497 -255 144 C-258.88448797 139.89970714 -260.74070608 136.29042965 -261.375 130.6875 C-260.90835238 126.0987984 -259.67214573 122.75898176 -257 119 C-251.35330268 114.50568989 -246.95316156 113.85396588 -239.94848633 113.88647461 C-239.12874832 113.88632858 -238.30901031 113.88618256 -237.46443176 113.8860321 C-234.75360472 113.88672904 -232.0428463 113.89451122 -229.33203125 113.90234375 C-227.45301857 113.90420871 -225.5740054 113.90563224 -223.69499207 113.90663147 C-218.74824685 113.91045052 -213.80153098 113.92027562 -208.85479736 113.93133545 C-203.80749915 113.9415627 -198.76019621 113.94613191 -193.71289062 113.95117188 C-183.80858086 113.96189841 -173.90429287 113.97896752 -164 114 C-163.79880051 112.83122818 -163.59760101 111.66245636 -163.39030457 110.45826721 C-163.12123775 108.91039083 -162.85205114 107.36253527 -162.58276367 105.81469727 C-162.45077324 105.04606606 -162.31878281 104.27743484 -162.18279266 103.48551178 C-161.25356251 98.16347616 -160.10970593 93.04101126 -158.3125 87.9375 C-158.05976318 87.20200928 -157.80702637 86.46651855 -157.54663086 85.70874023 C-145.50985925 51.93559236 -120.76526876 25.09257544 -88.84375 9.2265625 C-61.58205948 -3.69206014 -29.32386138 -6.96770373 0 0 Z " fill="#000000" transform="translate(287,168)"/>
<path d="M0 0 C1.17175781 -0.04640625 1.17175781 -0.04640625 2.3671875 -0.09375 C9.90532727 1.52919227 15.56393963 7.50137377 20.80078125 12.8125 C21.49262009 13.50384033 22.18445892 14.19518066 22.89726257 14.9074707 C24.34698664 16.3595202 25.79305623 17.81522679 27.2355957 19.27441406 C29.43993867 21.5024649 31.65742322 23.71677574 33.87695312 25.9296875 C35.28985797 27.34816643 36.70199452 28.76741115 38.11328125 30.1875 C38.7726619 30.84596924 39.43204254 31.50443848 40.11140442 32.18286133 C45.07312391 37.2215316 48.55300378 41.05893529 48.5625 48.4375 C48.423092 53.60193274 47.73030963 56.60236797 44.125 60.5 C39.59998717 64.58354816 36.3343471 65.81629418 30.1796875 65.71484375 C24.34594642 65.10485181 21.0243871 61.50424457 17.125 57.5 C17.12135437 58.12560822 17.11770874 58.75121643 17.11395264 59.39578247 C17.07208526 65.9175508 17.00270955 72.43861816 16.91748047 78.95996094 C16.88928549 81.39250675 16.86806368 83.82514392 16.85400391 86.2578125 C16.83255492 89.75828782 16.78589157 93.25766631 16.734375 96.7578125 C16.73314636 97.84240753 16.73191772 98.92700256 16.73065186 100.04446411 C16.61251816 106.1588785 16.25811437 109.87386814 12.125 114.5 C7.3625342 118.119474 3.61080265 119.20861658 -2.375 118.953125 C-7.43168208 118.03660137 -11.17322518 115.52333264 -14.44873047 111.62890625 C-16.64510025 106.81057775 -16.35601039 102.0925622 -16.38671875 96.85546875 C-16.41364555 95.16808342 -16.41364555 95.16808342 -16.44111633 93.4466095 C-16.49521716 89.86027757 -16.52911525 86.27407875 -16.5625 82.6875 C-16.59567317 80.25323669 -16.63016282 77.81899094 -16.66601562 75.38476562 C-16.75094363 69.42329643 -16.81929466 63.46181001 -16.875 57.5 C-17.41769531 57.99371094 -17.96039063 58.48742187 -18.51953125 58.99609375 C-19.23496094 59.63675781 -19.95039063 60.27742188 -20.6875 60.9375 C-21.39519531 61.57558594 -22.10289062 62.21367187 -22.83203125 62.87109375 C-26.75264974 65.99709358 -31.05883872 65.99443481 -35.875 65.5 C-41.55007225 63.49703332 -45.18175089 59.88649821 -47.875 54.5 C-48.18359375 51.9609375 -48.18359375 51.9609375 -48.3125 48.875 C-48.37308594 47.87210937 -48.43367187 46.86921875 -48.49609375 45.8359375 C-47.08195314 38.24049043 -40.02053663 32.33706461 -34.71875 27.04296875 C-34.05339233 26.37332596 -33.38803467 25.70368317 -32.70251465 25.01374817 C-31.3066527 23.61218645 -29.9082216 22.21317907 -28.50732422 20.81665039 C-26.37185884 18.68436351 -24.25012263 16.53902958 -22.12890625 14.39257812 C-20.76383157 13.02523179 -19.39797287 11.65866764 -18.03125 10.29296875 C-17.08880432 9.33670845 -17.08880432 9.33670845 -16.12731934 8.36112976 C-11.43698858 3.71942404 -6.8860286 0.09030857 0 0 Z " fill="#000000" transform="translate(255.875,324.5)"/>
<path d="M0 0 C1.55984399 0.88815199 3.10514831 1.80221544 4.63671875 2.73828125 C5.47267578 3.22506348 6.30863281 3.7118457 7.16992188 4.21337891 C8.95726833 5.25797921 10.73856769 6.31298448 12.51416016 7.37744141 C15.44481063 9.12259157 18.40173226 10.81474769 21.3671875 12.5 C23.35362502 13.64060376 25.33931994 14.78250191 27.32421875 15.92578125 C28.26177002 16.46033936 29.19932129 16.99489746 30.1652832 17.5456543 C35.8306566 20.86913888 39.74103889 23.7336425 42.63671875 29.80078125 C43.85233282 35.54732049 43.27946072 40.20852889 40.57421875 45.42578125 C36.25244853 50.46784651 32.40426034 51.4298114 26.01953125 52.23046875 C18.25520248 51.71284683 10.80045037 46.09137683 4.19921875 42.36328125 C3.08716064 41.73623291 1.97510254 41.10918457 0.8293457 40.46313477 C-24.27487073 26.25351281 -24.27487073 26.25351281 -26.67578125 19.05078125 C-27.40431805 12.21925585 -26.94499374 7.5241306 -22.67578125 2.05078125 C-16.02641254 -3.24157344 -7.66475955 -3.79806243 0 0 Z " fill="#000000" transform="translate(81.67578125,177.94921875)"/>
<path d="M0 0 C4.45460263 4.85956651 5.51818664 9.07442035 5.42651367 15.49853516 C4.76932623 20.46600834 2.33498219 24.36787619 -0.1875 28.625 C-0.9930835 30.03543579 -0.9930835 30.03543579 -1.81494141 31.47436523 C-2.93884063 33.43112777 -4.07325516 35.38188588 -5.21777344 37.32666016 C-6.90087159 40.18773586 -8.55026394 43.06613881 -10.1953125 45.94921875 C-11.23214133 47.73827553 -12.27111853 49.5260894 -13.3125 51.3125 C-13.78719727 52.13862793 -14.26189453 52.96475586 -14.75097656 53.81591797 C-17.96215483 59.2026639 -21.19459256 63.37854628 -26.9375 66.25 C-34.04605901 66.96910796 -39.26615346 66.76392888 -44.9375 62.25 C-48.55621941 57.61061614 -49.71963654 53.78022519 -49.4375 47.890625 C-48.46274388 42.74269427 -45.62525517 38.67626347 -42.9375 34.25 C-41.72505377 32.08030455 -40.53454215 29.8993091 -39.34399414 27.7175293 C-35.88402779 21.39282418 -32.35082844 15.10981705 -28.625 8.9375 C-28.03074219 7.95136719 -27.43648438 6.96523437 -26.82421875 5.94921875 C-23.98471962 1.88691254 -21.29605027 -1.13732046 -16.75 -3.1875 C-10.63524289 -4.08967728 -5.32731712 -3.17372084 0 0 Z " fill="#000000" transform="translate(373.9375,100.75)"/>
<path d="M0 0 C3.78624313 1.84871999 6.36612896 4.50850109 8.234375 8.27734375 C10.02063852 13.83695683 9.69243261 18.58091926 7.2890625 23.85546875 C4.96955371 27.64991043 1.88583875 29.77282302 -1.91796875 31.95703125 C-2.59722412 32.36381104 -3.27647949 32.77059082 -3.97631836 33.18969727 C-6.34023455 34.59298653 -8.72094495 35.96406282 -11.10546875 37.33203125 C-12.05744141 37.8832666 -13.00941406 38.43450195 -13.99023438 39.00244141 C-41.20713787 54.73311151 -41.20713787 54.73311151 -51.10546875 52.33203125 C-55.51718615 50.08606603 -58.17061986 47.91456809 -60.10546875 43.33203125 C-61.40321367 38.08069136 -61.61305463 33.2670148 -59.30688477 28.28393555 C-54.84437366 21.0338286 -44.42192829 16.88118211 -37.29296875 12.83203125 C-35.62524414 11.87490234 -35.62524414 11.87490234 -33.92382812 10.8984375 C-31.71950014 9.63697889 -29.51138201 8.38211765 -27.29931641 7.13427734 C-25.20345068 5.95160797 -23.11428138 4.75697562 -21.03271484 3.54931641 C-20.0783252 3.00581543 -19.12393555 2.46231445 -18.140625 1.90234375 C-17.30539307 1.42039551 -16.47016113 0.93844727 -15.60961914 0.44189453 C-10.52543341 -1.81146496 -5.2503402 -1.66569235 0 0 Z " fill="#000000" transform="translate(448.10546875,176.66796875)"/>
<path d="M0 0 C0.80179688 0.10183594 1.60359375 0.20367187 2.4296875 0.30859375 C10.93512604 4.26547168 15.34445682 14.65825172 19.6875 22.4375 C20.958859 24.68533514 22.23098401 26.93273723 23.50390625 29.1796875 C24.10992676 30.25573242 24.71594727 31.33177734 25.34033203 32.44042969 C27.48143958 36.18604985 29.71078019 39.87202551 31.97631836 43.54345703 C34.70884831 48.34643741 34.69705954 53.18514036 34.125 58.5625 C32.80776463 62.76813099 30.51425474 65.252685 27.0625 68 C22.31410097 70.3639659 17.2887391 70.3347208 12.125 69.5625 C5.4405618 66.28104852 2.03329209 60.65770591 -1.5546875 54.3359375 C-1.88993439 53.74761139 -2.22518127 53.15928528 -2.57058716 52.5531311 C-3.63446463 50.68353404 -4.69220665 48.8105446 -5.75 46.9375 C-6.45144629 45.70421279 -7.15326641 44.47113813 -7.85546875 43.23828125 C-9.22671922 40.827706 -10.59024401 38.41302733 -11.94677734 35.99414062 C-13.18602589 33.78866107 -14.43552861 31.58889499 -15.69775391 29.39648438 C-16.24093262 28.43806641 -16.78411133 27.47964844 -17.34375 26.4921875 C-17.82005859 25.66187012 -18.29636719 24.83155273 -18.78710938 23.97607422 C-20.94623848 19.18586992 -20.87024989 14.4487247 -19.171875 9.5234375 C-16.99215113 5.182462 -14.09869954 2.80364669 -9.875 0.5625 C-6.39898915 -0.35343739 -3.55081303 -0.55020585 0 0 Z " fill="#000000" transform="translate(152.875,97.4375)"/>
<path d="M0 0 C4.1912347 2.44681657 6.43002028 4.69108518 8.68359375 9.05078125 C9.0712738 11.69969177 9.0712738 11.69969177 9.08764648 14.57202148 C9.10033066 15.65341904 9.11301483 16.73481659 9.12608337 17.84898376 C9.12314774 19.00741287 9.1202121 20.16584198 9.1171875 21.359375 C9.12242935 22.55885269 9.1276712 23.75833038 9.1330719 24.99415588 C9.13948954 27.528404 9.13815848 30.06268191 9.12963867 32.59692383 C9.12113223 36.47075548 9.14989112 40.34311097 9.18164062 44.21679688 C9.18325284 46.68098914 9.18267472 49.14518402 9.1796875 51.609375 C9.19653847 53.34398232 9.19653847 53.34398232 9.21372986 55.1136322 C9.15931341 61.40482181 8.94943909 65.29195022 4.68359375 70.05078125 C0.86429203 73.67911788 -2.19919631 74.36078583 -7.31640625 74.55078125 C-12.43361619 74.36078583 -15.49710453 73.67911788 -19.31640625 70.05078125 C-24.31875707 64.4484017 -23.91416031 58.94884605 -23.8828125 51.6796875 C-23.88901108 50.48399643 -23.89520966 49.28830536 -23.90159607 48.05638123 C-23.9086877 45.53230604 -23.90553182 43.00818401 -23.89282227 40.48413086 C-23.8789657 36.62981746 -23.91303188 32.77793634 -23.95117188 28.92382812 C-23.9521232 26.46744732 -23.95026356 24.0110635 -23.9453125 21.5546875 C-23.95857071 20.40658096 -23.97182892 19.25847443 -23.98548889 18.07557678 C-23.90394484 11.04067426 -23.14528052 7.26714947 -18.31640625 2.05078125 C-12.94157731 -1.82409543 -6.14784851 -2.51927013 0 0 Z " fill="#000000" transform="translate(263.31640625,69.94921875)"/>
</svg>