<?xml version="1.0" encoding="UTF-8"?>
<svg version="1.1" xmlns="http://www.w3.org/2000/svg" width="512" height="512">
<path d="M0 0 C16.45552491 11.51433424 28.7891496 29.02007321 33.44921875 48.69921875 C33.92246932 51.49569941 34.06522667 54.15647526 33.8359375 56.984375 C34.4959375 56.654375 35.1559375 56.324375 35.8359375 55.984375 C54.13795584 55.87398888 69.02633174 60.92674295 82.515625 73.5703125 C91.84330166 83.27486499 97.1148179 94.70349686 98.8359375 107.984375 C99.43019531 108.05914062 100.02445312 108.13390625 100.63671875 108.2109375 C112.59296065 110.10757307 123.45596206 116.59132341 130.62109375 126.4375 C138.23749791 138.63871747 140.8209835 151.45795963 138.15234375 165.609375 C136.1727001 172.57509208 133.41181225 178.37144452 128.8359375 183.984375 C128.28421875 184.67144531 127.7325 185.35851562 127.1640625 186.06640625 C119.37620947 194.76949842 108.2964246 199.59770077 96.8359375 200.984375 C91.8453209 201.1098917 86.8746587 200.99937811 81.88533401 200.86142159 C77.64812976 200.75645308 73.41009595 200.72664651 69.171875 200.68554688 C63.80908391 200.6318726 58.4503155 200.55558609 53.08984375 200.38452148 C32.82345306 198.61971233 32.82345306 198.61971233 14.9753418 205.55249023 C12.16401618 209.05155444 10.29521201 212.78850512 8.6673584 216.95559692 C7.58055717 219.60753713 6.04494041 221.7059054 4.27734375 223.94921875 C3.79652344 224.61373047 3.31570313 225.27824219 2.8203125 225.96289062 C2.35109375 226.60935547 1.881875 227.25582031 1.3984375 227.921875 C0.30596338 229.43097061 -0.78648374 230.94008578 -1.87890625 232.44921875 C-2.42144043 233.19800293 -2.96397461 233.94678711 -3.52294922 234.71826172 C-5.69843926 237.72226329 -7.86990045 240.72916379 -10.04101562 243.73632812 C-11.66619098 245.98732311 -13.29208006 248.23780147 -14.91796875 250.48828125 C-17.07411549 253.47346608 -19.22753754 256.46058888 -21.37890625 259.44921875 C-27.10686398 267.40240127 -32.86309139 275.33425253 -38.6640625 283.234375 C-39.23954834 284.02062256 -39.81503418 284.80687012 -40.40795898 285.61694336 C-41.97885044 287.75076257 -43.56648717 289.87048788 -45.1640625 291.984375 C-45.6163623 292.59724365 -46.06866211 293.2101123 -46.53466797 293.84155273 C-49.59069168 297.79850204 -49.59069168 297.79850204 -52.296875 298.67578125 C-57.70089752 298.3261092 -57.70089752 298.3261092 -59.88342285 296.71578979 C-62.43447494 293.26678732 -61.5414957 289.07271362 -61.1640625 284.984375 C-60.39477108 280.02662826 -59.37240114 275.1304118 -58.3203125 270.2265625 C-58.02797887 268.82856104 -57.73653083 267.43037414 -57.44592285 266.03201294 C-56.68532454 262.38389149 -55.91286441 258.73838489 -55.13775635 255.09332275 C-54.3462611 251.36061852 -53.56621759 247.62552375 -52.78515625 243.890625 C-51.25587791 236.58617851 -49.71403808 229.28446093 -48.1640625 221.984375 C-48.84509033 221.9750293 -49.52611816 221.96568359 -50.2277832 221.95605469 C-53.31144897 221.90239369 -56.39359044 221.81873949 -59.4765625 221.734375 C-60.54841797 221.72019531 -61.62027344 221.70601562 -62.72460938 221.69140625 C-63.75263672 221.65917969 -64.78066406 221.62695312 -65.83984375 221.59375 C-66.78770752 221.57280273 -67.73557129 221.55185547 -68.7121582 221.53027344 C-71.1640625 220.984375 -71.1640625 220.984375 -72.97631836 219.07836914 C-74.32584966 216.69914407 -74.51040319 215.38386543 -74.4140625 212.671875 C-74.39085937 211.59486328 -74.39085937 211.59486328 -74.3671875 210.49609375 C-74.10892532 207.30258258 -73.62611136 204.15413201 -73.1640625 200.984375 C-74.2107032 200.99436775 -74.2107032 200.99436775 -75.27848816 201.00456238 C-81.91137557 201.06511654 -88.54418385 201.11057161 -95.1772871 201.13981152 C-98.58600514 201.15535031 -101.99449144 201.17636733 -105.40307617 201.21069336 C-109.3376979 201.25006084 -113.27223163 201.26418148 -117.20703125 201.27734375 C-118.40861374 201.29282761 -119.61019623 201.30831146 -120.84819031 201.32426453 C-136.10315773 201.32724384 -149.14029892 197.90040815 -160.4765625 187.359375 C-168.26630334 179.13618276 -173.30785238 168.67185119 -173.203125 157.24609375 C-173.19466553 156.04472778 -173.19466553 156.04472778 -173.18603516 154.8190918 C-173.17878418 154.21363525 -173.1715332 153.60817871 -173.1640625 152.984375 C-174.12276245 153.00794067 -174.12276245 153.00794067 -175.10083008 153.03198242 C-178.05931373 153.0952013 -181.01765454 153.1336368 -183.9765625 153.171875 C-184.98138672 153.19701172 -185.98621094 153.22214844 -187.02148438 153.24804688 C-200.3428251 153.37654855 -212.63685004 149.49418045 -222.4765625 140.234375 C-232.80071481 129.1062928 -235.9822572 117.22585267 -235.51171875 102.40234375 C-234.76093371 89.8166031 -228.45966794 79.4137134 -219.4921875 70.83984375 C-212.3385747 65.13855838 -204.16630224 62.13952966 -195.1640625 60.984375 C-195.07125 59.128125 -195.07125 59.128125 -194.9765625 57.234375 C-193.34056811 42.95864312 -184.05346175 29.9275153 -173.1640625 20.984375 C-158.27173232 10.90341303 -141.90507455 6.97280848 -123.95898438 10.40625 C-121.09923441 11.15597591 -118.37044496 12.11400558 -115.625 13.20703125 C-112.82613715 14.0911165 -111.81040676 14.22004276 -109.1640625 12.984375 C-106.88173203 10.91469833 -106.88173203 10.91469833 -104.6015625 8.359375 C-99.59180019 3.2024831 -94.41066931 -0.50021857 -88.1640625 -4.015625 C-87.36355469 -4.47710937 -86.56304687 -4.93859375 -85.73828125 -5.4140625 C-58.24414112 -20.26359808 -25.59341003 -16.3039501 0 0 Z M-98.5546875 23.74609375 C-99.93145277 25.48190752 -101.28495775 27.23664137 -102.60546875 29.015625 C-104.1640625 30.984375 -104.1640625 30.984375 -106.1640625 31.984375 C-110.95227904 32.40132644 -113.5598603 31.51886449 -117.6640625 29.109375 C-127.95711685 23.73354711 -139.02118961 22.64003333 -150.1640625 25.984375 C-162.06387411 30.57623169 -170.57883114 37.4820712 -176.73046875 48.69140625 C-179.1563089 54.26356769 -180.14456157 60.02251089 -181.1640625 65.984375 C-182.47897192 72.52658825 -182.47897192 72.52658825 -184.84765625 74.109375 C-187.67641725 75.17791204 -190.28167411 75.4300128 -193.2890625 75.734375 C-202.20659808 77.02546601 -209.39429786 80.8686463 -214.9140625 88.09765625 C-220.42261623 96.41212954 -221.24390861 104.03899231 -220.1640625 113.984375 C-219.24107345 117.30431009 -217.94324883 120.04592789 -216.1640625 122.984375 C-215.6071875 124.03625 -215.0503125 125.088125 -214.4765625 126.171875 C-209.62302156 132.0748302 -202.59963953 136.2031525 -195.1640625 137.984375 C-190.82146078 138.32850168 -186.51662788 138.26909725 -182.1640625 138.171875 C-181.00777344 138.15833984 -179.85148437 138.14480469 -178.66015625 138.13085938 C-175.82763246 138.09574544 -172.99609943 138.046565 -170.1640625 137.984375 C-169.58156738 136.84101685 -169.58156738 136.84101685 -168.98730469 135.67456055 C-164.01312058 126.01801814 -158.14889572 117.84878093 -148.1640625 112.984375 C-146.22296699 112.46223226 -144.28130906 111.94140927 -142.33129883 111.45361328 C-138.97208204 110.57897202 -136.25116286 109.63885022 -133.1640625 107.984375 C-130.92976593 103.80899664 -130.67803857 99.64162759 -130.1640625 94.984375 C-124.62258033 74.0850708 -112.20551364 55.68931748 -93.3515625 44.734375 C-72.36477584 33.11876172 -50.38819913 30.28127484 -27.1640625 35.984375 C-11.96174379 40.54507061 3.14469749 49.19732221 12.8359375 61.984375 C16.76669394 61.40984754 16.76669394 61.40984754 19.8359375 58.984375 C18.66851514 42.89424939 9.21639033 28.72277126 -2.1640625 17.984375 C-2.94394531 17.23542969 -3.72382813 16.48648438 -4.52734375 15.71484375 C-18.66336911 3.28939625 -36.4458346 -0.02897345 -54.69287109 0.79345703 C-71.44416901 2.08761974 -87.63402178 11.13022665 -98.5546875 23.74609375 Z M-100.8125 69.2578125 C-111.60254344 81.76852732 -116.39514269 94.57527345 -118.0012207 110.82592773 C-118.42130284 114.61440073 -118.72887406 117.30465211 -120.8046875 120.546875 C-124.00251152 122.49521811 -126.6293565 122.64489127 -130.3515625 122.921875 C-139.8062627 123.88489593 -146.1520902 127.18136725 -152.66015625 134.08203125 C-159.11377608 142.24544127 -159.92501565 150.84195662 -159.1640625 160.984375 C-157.53452857 168.17984713 -153.84183942 174.26636464 -148.1640625 178.984375 C-140.51648997 183.63986013 -133.95279997 186.11644278 -124.99682617 186.09790039 C-123.77593796 186.09782486 -122.55504974 186.09774933 -121.29716492 186.09767151 C-119.98867081 186.09251022 -118.6801767 186.08734894 -117.33203125 186.08203125 C-115.97154289 186.08016461 -114.61105385 186.07874187 -113.25056458 186.07774353 C-109.68150963 186.07393775 -106.11249581 186.06412414 -102.54345703 186.05303955 C-98.89681555 186.04278363 -95.25016739 186.03823697 -91.60351562 186.03320312 C-84.45701449 186.02250003 -77.31054119 186.00544704 -70.1640625 185.984375 C-70.06827911 185.28137772 -69.97249573 184.57838043 -69.87380981 183.8540802 C-68.96844782 177.21776272 -68.05690616 170.58232663 -67.13847542 163.94780445 C-66.66655766 160.53719097 -66.197006 157.12628698 -65.73291016 153.71459961 C-65.1988282 149.78921096 -64.65436706 145.86529566 -64.109375 141.94140625 C-63.94470734 140.72040726 -63.78003967 139.49940826 -63.61038208 138.2414093 C-63.45036713 137.1006041 -63.29035217 135.95979889 -63.12548828 134.78442383 C-62.98781036 133.78292801 -62.85013245 132.78143219 -62.70828247 131.74958801 C-62.15537746 128.94024584 -61.41115256 126.56073547 -60.1640625 123.984375 C-57.19769313 122.50119032 -54.51772641 122.84065392 -51.20751953 122.82324219 C-50.49188843 122.81827728 -49.77625732 122.81331238 -49.03894043 122.80819702 C-46.66657558 122.79356709 -44.29427759 122.78677205 -41.921875 122.78125 C-40.27521767 122.77549923 -38.62856036 122.76974149 -36.98190308 122.76397705 C-33.52683194 122.7534647 -30.0717841 122.74762357 -26.61669922 122.74414062 C-22.18905465 122.73865534 -17.76171752 122.71462773 -13.33416939 122.68616867 C-9.93182475 122.66754652 -6.52955423 122.66233692 -3.12716293 122.66080475 C-1.49487502 122.65777673 0.13741154 122.64974315 1.76964951 122.63661957 C4.05353952 122.61956745 6.33667766 122.62143689 8.62060547 122.62792969 C9.92029266 122.62428406 11.21997986 122.62063843 12.55905151 122.61688232 C16.02426197 123.00549501 17.45895517 123.46799733 19.8359375 125.984375 C20.76518591 132.1116067 18.61949325 136.97677924 16.3359375 142.53125 C15.80323242 143.87077728 15.80323242 143.87077728 15.25976562 145.23736572 C14.12971385 148.07434928 12.98384381 150.90457409 11.8359375 153.734375 C10.69045608 156.57933955 9.54844156 159.42559944 8.41210938 162.27423096 C7.70574564 164.04282441 6.99368508 165.80915539 6.27539062 167.57293701 C5.95505859 168.37096741 5.63472656 169.1689978 5.3046875 169.99121094 C5.02044922 170.69179626 4.73621094 171.39238159 4.44335938 172.11419678 C3.68148325 174.13219607 3.68148325 174.13219607 3.8359375 176.984375 C12.0859375 177.314375 20.3359375 177.644375 28.8359375 177.984375 C29.4959375 180.624375 30.1559375 183.264375 30.8359375 185.984375 C39.26852977 186.05419014 47.70099928 186.10734498 56.13381004 186.13981152 C60.05041155 186.15540161 63.96681387 186.17651647 67.88330078 186.21069336 C71.6699377 186.24352661 75.45638422 186.26127794 79.24315262 186.26900673 C80.68070086 186.2745076 82.11823986 186.28524829 83.55570602 186.30156517 C95.70772899 186.43389434 105.59648857 185.46877219 114.8359375 176.984375 C121.47989311 170.43081334 124.45258424 163.63883558 125.0859375 154.296875 C124.89329584 144.98002387 121.3602836 137.55900508 114.8359375 130.984375 C106.99673491 124.61757916 99.58249175 122.80649384 89.6640625 121.7421875 C86.8359375 120.984375 86.8359375 120.984375 85.48828125 119.3125 C84.67438135 116.40780334 84.41322871 113.61492721 84.1484375 110.609375 C82.38487933 97.6586654 76.16132777 86.99723135 65.8359375 78.984375 C55.84800264 72.65120626 44.81461416 69.38816582 33.0234375 71.484375 C27.78786832 72.65970686 23.28878603 74.13695558 18.5859375 76.734375 C13.79766664 79.2906938 11.04916011 79.56696043 5.8359375 77.984375 C4.8046875 76.15234375 4.8046875 76.15234375 3.8359375 73.984375 C-7.30547731 58.91814361 -23.67706006 50.78011231 -41.7265625 47.296875 C-64.0179886 45.27038172 -85.34288964 53.00244415 -100.8125 69.2578125 Z M-49.1640625 137.984375 C-49.52419261 139.95138037 -49.82565797 141.92915535 -50.10375977 143.90942383 C-50.283871 145.17776566 -50.46398224 146.44610748 -50.64955139 147.75288391 C-50.8433611 149.14903435 -51.03699593 150.54520908 -51.23046875 151.94140625 C-51.43053321 153.36533089 -51.63089 154.78921449 -51.83152771 156.21305847 C-52.25190895 159.20295413 -52.66938034 162.19323736 -53.0847168 165.18383789 C-53.61687185 169.01456275 -54.15515808 172.84439424 -54.69551182 176.67397022 C-55.11026507 179.61706794 -55.5222545 182.56054725 -55.93336296 185.50415611 C-56.13078732 186.91603513 -56.32894966 188.32781116 -56.52786446 189.73948097 C-56.80588827 191.71632012 -57.07991157 193.69372066 -57.35375977 195.67114258 C-57.51062759 196.79619705 -57.66749542 197.92125153 -57.82911682 199.08039856 C-58.24044965 202.15944613 -58.24044965 202.15944613 -58.1640625 205.984375 C-57.55409424 205.99895752 -56.94412598 206.01354004 -56.31567383 206.02856445 C-53.53535186 206.10332275 -50.75619426 206.19988982 -47.9765625 206.296875 C-47.01685547 206.31943359 -46.05714844 206.34199219 -45.06835938 206.36523438 C-41.18659409 206.51298323 -37.72816851 206.82131853 -33.98828125 207.90234375 C-31.40698267 210.84845113 -31.5704693 212.92530428 -31.76513672 216.765625 C-32.63163792 223.75702759 -34.20160945 230.61236175 -35.7265625 237.484375 C-36.24093861 239.82083049 -36.75224093 242.15779669 -37.25535583 244.4967041 C-37.5667419 245.94277871 -37.88475693 247.38744535 -38.21009827 248.83044434 C-39.15045006 252.4856013 -39.15045006 252.4856013 -38.1640625 255.984375 C-32.1857218 248.37918495 -26.45763635 240.64117243 -20.91357422 232.71386719 C-17.03458021 227.18159201 -13.05941927 221.72713719 -9.0390625 216.296875 C-4.75616226 210.50770552 -0.48739867 204.71028029 3.7109375 198.859375 C4.34539795 197.98019409 4.34539795 197.98019409 4.99267578 197.08325195 C6.98082819 194.75123323 6.98082819 194.75123323 7.8359375 191.984375 C6.65515625 191.93539062 5.474375 191.88640625 4.2578125 191.8359375 C2.70049813 191.76088621 1.14320759 191.68533939 -0.4140625 191.609375 C-1.19136719 191.5784375 -1.96867187 191.5475 -2.76953125 191.515625 C-10.16021601 191.13661553 -10.16021601 191.13661553 -13.1640625 188.984375 C-15.16489215 184.98271571 -13.73153942 179.87534949 -12.48849487 175.73321533 C-11.63975113 173.43016794 -10.72888765 171.16418745 -9.78515625 168.8984375 C-9.28786766 167.66303726 -9.28786766 167.66303726 -8.78053284 166.40267944 C-7.73142282 163.80048625 -6.66754182 161.20469798 -5.6015625 158.609375 C-4.53420118 155.99182706 -3.47013193 153.37304513 -2.41188049 150.75180054 C-1.75551363 149.1278852 -1.09355012 147.50621819 -0.42539978 145.88711548 C1.3358782 141.57579491 1.3358782 141.57579491 1.8359375 136.984375 C-5.26651249 136.95910713 -12.36895098 136.94154299 -19.47143555 136.92944336 C-21.88973422 136.92440151 -24.30802983 136.91756822 -26.72631836 136.90893555 C-30.19385533 136.89686343 -33.66135216 136.89114537 -37.12890625 136.88671875 C-38.21743393 136.88155746 -39.30596161 136.87639618 -40.42747498 136.87107849 C-41.42843704 136.87100296 -42.42939911 136.87092743 -43.46069336 136.87084961 C-44.34671738 136.868629 -45.23274139 136.86640839 -46.14561462 136.86412048 C-48.1610494 136.76009459 -48.1610494 136.76009459 -49.1640625 137.984375 Z " fill="#000000" transform="translate(304.1640625,114.015625)"/>
</svg>
