<?xml version="1.0" encoding="UTF-8"?>
<!DOCTYPE svg PUBLIC "-//W3C//DTD SVG 1.1//EN" "http://www.w3.org/Graphics/SVG/1.1/DTD/svg11.dtd">
<svg xmlns="http://www.w3.org/2000/svg" version="1.1" width="512px" height="512px" style="shape-rendering:geometricPrecision; text-rendering:geometricPrecision; image-rendering:optimizeQuality; fill-rule:evenodd; clip-rule:evenodd" xmlns:xlink="http://www.w3.org/1999/xlink">
<g><path style="opacity:0.94" fill="#000000" d="M 256.5,7.5 C 314.938,3.94774 355.438,28.9477 378,82.5C 380.666,90.9989 382.5,99.6656 383.5,108.5C 426.426,95.3469 461.593,106.347 489,141.5C 505.265,168.505 507.931,196.839 497,226.5C 483.452,256.04 460.619,273.54 428.5,279C 400.169,279.5 371.835,279.667 343.5,279.5C 343.5,274.167 343.5,268.833 343.5,263.5C 371.524,263.899 399.524,263.399 427.5,262C 469.575,250.581 489.075,223.081 486,179.5C 476.756,142.757 453.256,122.757 415.5,119.5C 402.692,120.202 390.692,123.702 379.5,130C 372.923,132.13 368.756,129.964 367,123.5C 365.645,74.6041 341.811,42.4375 295.5,27C 250.075,18.2485 214.575,33.0819 189,71.5C 183.756,80.5657 180.089,90.2323 178,100.5C 176.319,104.499 173.319,106.499 169,106.5C 146.685,93.007 124.518,93.1737 102.5,107C 91.1583,115.84 83.9916,127.34 81,141.5C 80.9336,149.271 80.2669,156.938 79,164.5C 78.1667,165.333 77.3333,166.167 76.5,167C 49.6867,167.802 32.52,180.968 25,206.5C 21.9179,230.505 31.0846,248.005 52.5,259C 58.5998,261.442 64.9331,262.775 71.5,263C 106.165,263.5 140.832,263.667 175.5,263.5C 175.5,268.833 175.5,274.167 175.5,279.5C 137.165,279.667 98.8319,279.5 60.5,279C 32.1171,272.951 14.6171,255.784 8,227.5C 4.17742,191.957 18.6774,167.457 51.5,154C 55.4728,152.972 59.4728,152.139 63.5,151.5C 65.5226,112.64 85.5226,88.8064 123.5,80C 137.563,78.4823 151.23,79.8156 164.5,84C 180.807,41.1904 211.473,15.6904 256.5,7.5 Z"/></g>
<g><path style="opacity:0.949" fill="#000000" d="M 227.5,191.5 C 254.922,191.017 282.255,191.517 309.5,193C 311.429,196.256 311.929,199.756 311,203.5C 300.167,223.167 289.333,242.833 278.5,262.5C 293.489,263.333 308.489,263.833 323.5,264C 326.516,265.529 327.849,268.029 327.5,271.5C 327.485,273.634 326.985,275.634 326,277.5C 290.815,318.347 255.315,358.847 219.5,399C 211.332,401.268 207.332,398.268 207.5,390C 211.898,361.114 216.564,332.281 221.5,303.5C 210.162,303.667 198.828,303.5 187.5,303C 184.484,301.471 183.151,298.971 183.5,295.5C 183.956,291.298 185.123,287.298 187,283.5C 198.862,255.581 210.529,227.581 222,199.5C 223.129,196.206 224.962,193.54 227.5,191.5 Z M 237.5,207.5 C 254.513,207.167 271.513,207.501 288.5,208.5C 277.667,228.167 266.833,247.833 256,267.5C 255.333,270.167 255.333,272.833 256,275.5C 256.5,277.333 257.667,278.5 259.5,279C 273.167,279.333 286.833,279.667 300.5,280C 277.374,307.462 253.874,334.629 230,361.5C 232.449,341.802 235.449,322.135 239,302.5C 239.667,298.833 239.667,295.167 239,291.5C 238.5,289.667 237.333,288.5 235.5,288C 225.151,287.832 214.817,287.332 204.5,286.5C 215.703,260.219 226.703,233.885 237.5,207.5 Z"/></g>
<g><path style="opacity:0.953" fill="#000000" d="M 43.5,359.5 C 62.9261,359.025 82.2594,359.525 101.5,361C 103.429,364.256 103.929,367.756 103,371.5C 97.8773,380.915 92.3773,390.082 86.5,399C 96.1667,399.333 105.833,399.667 115.5,400C 118.516,401.529 119.849,404.029 119.5,407.5C 119.485,409.634 118.985,411.634 118,413.5C 93.484,443.675 68.6507,473.508 43.5,503C 35.9558,505.246 31.9558,502.58 31.5,495C 35.5984,476.44 39.9317,457.94 44.5,439.5C 33.495,439.667 22.495,439.5 11.5,439C 8.48396,437.471 7.15062,434.971 7.5,431.5C 17.8279,407.842 28.9945,384.508 41,361.5C 41.9947,360.934 42.828,360.267 43.5,359.5 Z M 52.5,375.5 C 61.8393,375.334 71.1726,375.5 80.5,376C 74.6227,384.918 69.1227,394.085 64,403.5C 63.3333,406.167 63.3333,408.833 64,411.5C 64.5,413.333 65.6667,414.5 67.5,415C 76.1667,415.333 84.8333,415.667 93.5,416C 81.6667,430.5 69.8333,445 58,459.5C 59.1716,451.804 60.8382,444.137 63,436.5C 63.8372,432.705 63.5039,429.039 62,425.5C 61.2496,424.874 60.4162,424.374 59.5,424C 49.4834,423.832 39.4834,423.332 29.5,422.5C 37.4499,406.934 45.1166,391.268 52.5,375.5 Z"/></g>
<g><path style="opacity:0.953" fill="#000000" d="M 427.5,359.5 C 446.926,359.025 466.259,359.525 485.5,361C 487.429,364.256 487.929,367.756 487,371.5C 481.877,380.915 476.377,390.082 470.5,399C 480.167,399.333 489.833,399.667 499.5,400C 502.516,401.529 503.849,404.029 503.5,407.5C 503.485,409.634 502.985,411.634 502,413.5C 477.484,443.675 452.651,473.508 427.5,503C 419.956,505.246 415.956,502.58 415.5,495C 419.598,476.44 423.932,457.94 428.5,439.5C 417.495,439.667 406.495,439.5 395.5,439C 392.484,437.471 391.151,434.971 391.5,431.5C 401.828,407.842 412.995,384.508 425,361.5C 425.995,360.934 426.828,360.267 427.5,359.5 Z M 436.5,375.5 C 445.839,375.334 455.173,375.5 464.5,376C 458.623,384.918 453.123,394.085 448,403.5C 447.333,406.167 447.333,408.833 448,411.5C 448.5,413.333 449.667,414.5 451.5,415C 460.167,415.333 468.833,415.667 477.5,416C 465.667,430.5 453.833,445 442,459.5C 443.172,451.804 444.838,444.137 447,436.5C 447.837,432.705 447.504,429.039 446,425.5C 445.25,424.874 444.416,424.374 443.5,424C 433.483,423.832 423.483,423.332 413.5,422.5C 421.45,406.934 429.117,391.268 436.5,375.5 Z"/></g>
</svg>
