<svg xmlns="http://www.w3.org/2000/svg" version="1.1" viewBox="-0.32 -0.31 512.68 513.67">
<path d="M0 0 C1.01790619 0.00215515 2.03581238 0.0043103 3.08456421 0.00653076 C17.69363523 0.05620146 32.02575853 0.30709809 46.375 3.3125 C47.34985352 3.51117676 48.32470703 3.70985352 49.32910156 3.91455078 C88.37782454 12.08284366 124.83813271 27.70153311 156.375 52.3125 C157.27089844 52.99699219 158.16679687 53.68148437 159.08984375 54.38671875 C174.64561709 66.50203669 189.29582193 80.73146847 201.375 96.3125 C202.14972656 97.27027344 202.92445313 98.22804688 203.72265625 99.21484375 C238.26056965 142.61986011 256.81394766 197.76289597 256.69067383 253.03979492 C256.6875221 255.97938487 256.71104926 258.9179558 256.73632812 261.85742188 C256.78098737 275.23056192 255.57551542 288.12666711 253.375 301.3125 C253.09281616 303.01805054 253.09281616 303.01805054 252.80493164 304.75805664 C245.77946967 343.86954746 228.79665906 381.05202178 204.375 412.3125 C203.61574219 413.28445313 202.85648437 414.25640625 202.07421875 415.2578125 C189.73986402 430.63741644 175.93895499 445.19015196 160.375 457.3125 C159.43914062 458.07691406 158.50328125 458.84132813 157.5390625 459.62890625 C125.58628299 485.2157721 86.41988322 501.72551276 46.375 509.3125 C45.56562988 509.47621094 44.75625977 509.63992188 43.92236328 509.80859375 C13.88110013 515.67977137 -20.7615176 514.58512909 -50.625 508.3125 C-52.14794678 507.99901611 -52.14794678 507.99901611 -53.70166016 507.67919922 C-90.84546555 499.78695344 -125.70945445 483.68345578 -155.625 460.3125 C-156.59695312 459.55324219 -157.56890625 458.79398437 -158.5703125 458.01171875 C-173.94991644 445.67736402 -188.50265196 431.87645499 -200.625 416.3125 C-201.77162109 414.90871094 -201.77162109 414.90871094 -202.94140625 413.4765625 C-210.77816849 403.69004401 -217.25970982 393.09854746 -223.625 382.3125 C-224.01961426 381.64492676 -224.41422852 380.97735352 -224.82080078 380.28955078 C-237.79696384 358.00791592 -246.08228285 333.05826387 -251.4375 307.9375 C-251.63255127 307.02419922 -251.82760254 306.11089844 -252.02856445 305.16992188 C-255.27291121 289.01545066 -256.00008268 273.12281746 -255.9375 256.6875 C-255.93534485 255.66959381 -255.9331897 254.65168762 -255.93096924 253.60293579 C-255.88129854 238.99386477 -255.63040191 224.66174147 -252.625 210.3125 C-252.42632324 209.33764648 -252.22764648 208.36279297 -252.02294922 207.35839844 C-241.93598313 159.13741149 -219.89911449 114.53770064 -185.40722656 79.14160156 C-183.63301167 77.32072238 -181.87518486 75.48496071 -180.1171875 73.6484375 C-173.01562574 66.30860161 -165.60158994 59.73928631 -157.40917969 53.64355469 C-155.59628085 52.2910746 -153.80174757 50.91656557 -152.0078125 49.5390625 C-143.60124472 43.15234877 -134.85975388 37.61076633 -125.65234375 32.45166016 C-123.78933792 31.40484113 -121.94116361 30.33571119 -120.09375 29.26171875 C-83.4933446 8.69459905 -41.63834482 -0.15855121 0 0 Z M-96.4375 165.52734375 C-99.63552379 170.33489926 -100.53647181 175.64305006 -99.625 181.3125 C-96.47073613 191.75436517 -87.66498208 198.90503052 -80.13671875 206.2890625 C-78.70787556 207.70856603 -77.28014282 209.12918811 -75.85346985 210.5508728 C-72.11786488 214.26749923 -68.36748634 217.96885531 -64.6137085 221.66711426 C-60.77696164 225.45247111 -56.95454606 229.25224047 -53.13085938 233.05078125 C-45.64277487 240.48543957 -38.13898592 247.90402676 -30.625 255.3125 C-32.25554518 259.48690564 -35.31876715 262.23777627 -38.46411133 265.29931641 C-39.06109329 265.88855896 -39.65807526 266.47780151 -40.27314758 267.0848999 C-41.5685903 268.36270582 -42.86622306 269.63829443 -44.16578102 270.91191483 C-46.2272311 272.93387539 -48.28101549 274.96332973 -50.33268738 276.99520874 C-56.16661466 282.77117853 -62.00986025 288.53757449 -67.8684082 294.28857422 C-71.45418485 297.80959233 -75.02740056 301.34296104 -78.59320641 304.88419724 C-79.94920623 306.2260115 -81.30985151 307.56314913 -82.67533302 308.89531326 C-94.88397223 320.18569804 -94.88397223 320.18569804 -100.125 335.4375 C-99.10234955 343.36304098 -97.00449413 347.83543183 -90.66796875 352.90234375 C-85.77645718 356.2787026 -80.47605263 357.2531679 -74.625 356.3125 C-64.18313483 353.15823613 -57.03246948 344.35248208 -49.6484375 336.82421875 C-48.22893397 335.39537556 -46.80831189 333.96764282 -45.3866272 332.54096985 C-41.67000077 328.80536488 -37.96864469 325.05498634 -34.27038574 321.3012085 C-30.48502889 317.46446164 -26.68525953 313.64204606 -22.88671875 309.81835938 C-15.45206043 302.33027487 -8.03347324 294.82648592 -0.625 287.3125 C3.54940564 288.94304518 6.30027627 292.00626715 9.36181641 295.15161133 C9.95105896 295.74859329 10.54030151 296.34557526 11.1473999 296.96064758 C12.42520582 298.2560903 13.70079443 299.55372306 14.97441483 300.85328102 C16.99637539 302.9147311 19.02582973 304.96851549 21.05770874 307.02018738 C26.83367853 312.85411466 32.60007449 318.69736025 38.35107422 324.5559082 C41.87209233 328.14168485 45.40546104 331.71490056 48.94669724 335.28070641 C50.2885115 336.63670623 51.62564913 337.99735151 52.95781326 339.36283302 C64.24819804 351.57147223 64.24819804 351.57147223 79.5 356.8125 C87.42554098 355.78984955 91.89793183 353.69199413 96.96484375 347.35546875 C100.3412026 342.46395718 101.3156679 337.16355263 100.375 331.3125 C97.22073613 320.87063483 88.41498208 313.71996948 80.88671875 306.3359375 C79.45787556 304.91643397 78.03014282 303.49581189 76.60346985 302.0741272 C72.86786488 298.35750077 69.11748634 294.65614469 65.3637085 290.95788574 C61.52696164 287.17252889 57.70454606 283.37275953 53.88085938 279.57421875 C46.39277487 272.13956043 38.88898592 264.72097324 31.375 257.3125 C33.00554518 253.13809436 36.06876715 250.38722373 39.21411133 247.32568359 C39.81109329 246.73644104 40.40807526 246.14719849 41.02314758 245.5401001 C42.3185903 244.26229418 43.61622306 242.98670557 44.91578102 241.71308517 C46.9772311 239.69112461 49.03101549 237.66167027 51.08268738 235.62979126 C56.91661466 229.85382147 62.75986025 224.08742551 68.6184082 218.33642578 C72.20418485 214.81540767 75.77740056 211.28203896 79.34320641 207.74080276 C80.69920623 206.3989885 82.05985151 205.06185087 83.42533302 203.72968674 C95.63397223 192.43930196 95.63397223 192.43930196 100.875 177.1875 C99.84522664 169.20675646 97.73133511 164.80874522 91.34765625 159.72265625 C86.23732461 156.06952809 81.51392454 155.51502485 75.375 156.3125 C64.94572588 159.38174783 57.74948983 168.30614175 50.3984375 175.80078125 C48.97893397 177.22962444 47.55831189 178.65735718 46.1366272 180.08403015 C42.42000077 183.81963512 38.71864469 187.57001366 35.02038574 191.3237915 C31.23502889 195.16053836 27.43525953 198.98295394 23.63671875 202.80664062 C16.20206043 210.29472513 8.78347324 217.79851408 1.375 225.3125 C-2.79940564 223.68195482 -5.55027627 220.61873285 -8.61181641 217.47338867 C-9.20105896 216.87640671 -9.79030151 216.27942474 -10.3973999 215.66435242 C-11.67520582 214.3689097 -12.95079443 213.07127694 -14.22441483 211.77171898 C-16.24637539 209.7102689 -18.27582973 207.65648451 -20.30770874 205.60481262 C-26.08367853 199.77088534 -31.85007449 193.92763975 -37.60107422 188.0690918 C-41.12209233 184.48331515 -44.65546104 180.91009944 -48.19669724 177.34429359 C-49.5385115 175.98829377 -50.87564913 174.62764849 -52.20781326 173.26216698 C-63.72264751 160.98254609 -63.72264751 160.98254609 -79.25 155.75 C-86.65685501 156.24640298 -91.93855484 159.76918297 -96.4375 165.52734375 Z " fill="#000000" transform="translate(255.625,-0.3125)"/>
</svg>